<?xml version="1.0" standalone="no"?>
<!DOCTYPE svg PUBLIC "-//W3C//DTD SVG 1.1//EN" "http://www.w3.org/Graphics/SVG/1.1/DTD/svg11.dtd" >
<svg>
<metadata>
Created by FontForge 20090914 at Thu Jan  5 23:10:58 2023
 By www-data
Copyright 2018 The Chivo Project Authors (https://github.com/Omnibus-Type/Chivo)
</metadata>
<defs>
<font id="ChivoMono-Thin" horiz-adv-x="600" >
  <font-face 
    font-family="Chivo Mono Thin"
    font-weight="250"
    font-stretch="normal"
    units-per-em="1000"
    panose-1="2 0 0 9 0 0 0 0 0 0"
    ascent="800"
    descent="-200"
    x-height="511"
    cap-height="686"
    bbox="-395 -250 650 1101"
    underline-thickness="72"
    underline-position="-134"
    unicode-range="U+000D-U+FEFF"
  />
<missing-glyph 
d="M50 0v700h500v-700h-500zM130 50h340l-170 255zM100 95l170 255l-170 255v-510zM500 95v510l-170 -255zM300 395l170 255h-340z" />
    <glyph glyph-name="fi" unicode="fi" 
d="M130 0v465h-120v46h120v106c0 26 4.83301 47.167 14.5 63.5s23 28.333 40 36s36.167 11.5 57.5 11.5c14.667 0 29 -1.5 43 -4.5s25.667 -7.16699 35 -12.5v-45c-9.33301 3.33301 -21.5 6.83301 -36.5 10.5s-26.833 5.5 -35.5 5.5c-10.667 0 -21.167 -1.5 -31.5 -4.5
s-18.833 -9.16699 -25.5 -18.5s-10 -24 -10 -44v-104h269v-511h-51v465h-218v-465h-51zM375 625v95h100v-95h-100z" />
    <glyph glyph-name="fl" unicode="fl" 
d="M130 0v465h-120v46h120v106c0 26 4.83301 47.167 14.5 63.5s23 28.333 40 36s36.167 11.5 57.5 11.5c14.667 0 29 -1.5 43 -4.5s25.667 -7.16699 35 -12.5v-45c-9.33301 3.33301 -21.5 6.83301 -36.5 10.5s-26.833 5.5 -35.5 5.5c-10.667 0 -21.167 -1.5 -31.5 -4.5
s-18.833 -9.16699 -25.5 -18.5s-10 -24 -10 -44v-104h139v-46h-139v-465h-51zM399 0v720h51v-720h-51z" />
    <glyph glyph-name="f_f" unicode="ff" 
d="M130 0v465h-120v46h120v106c0 26 4.83301 47.167 14.5 63.5s23 28.333 40 36s36.167 11.5 57.5 11.5c14.667 0 29 -1.5 43 -4.5s25.667 -7.16699 35 -12.5v-45c-9.33301 3.33301 -21.5 6.83301 -36.5 10.5s-26.833 5.5 -35.5 5.5c-10.667 0 -21.167 -1.5 -31.5 -4.5
s-18.833 -9.16699 -25.5 -18.5s-10 -24 -10 -44v-104h218v106c0 26 4.83301 47.167 14.5 63.5s23 28.333 40 36s36.167 11.5 57.5 11.5c14.667 0 29 -1.5 43 -4.5s25.667 -7.16699 35 -12.5v-45c-9.33301 3.33301 -21.5 6.83301 -36.5 10.5s-26.833 5.5 -35.5 5.5
c-10.667 0 -21.167 -1.5 -31.5 -4.5s-18.833 -9.16699 -25.5 -18.5s-10 -24 -10 -44v-104h140v-46h-140v-465h-51v465h-218v-465h-51z" />
    <glyph glyph-name="f_f_i" unicode="ffi" 
d="M91 0l0.000976562 464.998h-81v46h81v106c0 38.667 8.66699 66.834 26 84.501s39.333 26.5 66 26.5c11.333 0 22.166 -1.33301 32.499 -4s18.833 -6 25.5 -10v-45c-6.66699 3.33301 -15.5 6.33301 -26.5 9s-19.5 4 -25.5 4c-13.333 0 -24.5 -3.83301 -33.5 -11.5
s-13.5 -26.167 -13.5 -55.5v-104h122v106c0 38.667 10.5 66.834 31.5 84.501s47.833 26.5 80.5 26.5c14.667 0 29 -1.5 43 -4.5s25.667 -7.16699 35 -12.5v-45c-9.33301 3.33301 -21.5 6.83301 -36.5 10.5s-26.833 5.5 -35.5 5.5c-10.667 0 -21.167 -1.5 -31.5 -4.5
s-18.833 -9.16699 -25.5 -18.5s-10 -24 -10 -44v-104h122v-46h-122v-465h-51v465h-122v-465h-51zM437.001 -0.00195312v511h51v-511h-51zM421.001 624.998v95h80v-95h-80z" />
    <glyph glyph-name="f_f_l" unicode="ffl" 
d="M91 0l0.000976562 464.998h-81v46h81v106c0 38.667 8.66699 66.834 26 84.501s39.333 26.5 66 26.5c11.333 0 22.166 -1.33301 32.499 -4s18.833 -6 25.5 -10v-45c-6.66699 3.33301 -15.5 6.33301 -26.5 9s-19.5 4 -25.5 4c-13.333 0 -24.5 -3.83301 -33.5 -11.5
s-13.5 -26.167 -13.5 -55.5v-104h122v106c0 38.667 10.5 66.834 31.5 84.501s47.833 26.5 80.5 26.5c22.667 0 43.667 -2.66699 63 -8h49v-720h-51v465h-122v-465h-51v465h-122v-465h-51zM315.001 510.998h121.999v164c-9.33301 2 -19.166 3.66699 -29.499 5
s-18.833 2 -25.5 2c-10.667 0 -21.167 -1.5 -31.5 -4.5s-18.833 -9.16699 -25.5 -18.5s-10 -24 -10 -44v-104z" />
    <glyph glyph-name=".notdef" 
d="M50 0v700h500v-700h-500zM130 50h340l-170 255zM100 95l170 255l-170 255v-510zM500 95v510l-170 -255zM300 395l170 255h-340z" />
    <glyph glyph-name="CR" unicode="&#xd;" 
 />
    <glyph glyph-name="space" unicode=" " 
 />
    <glyph glyph-name="exclam" unicode="!" 
d="M280 167l-11 519h64l-12 -519h-41zM250 0v95h100v-95h-100z" />
    <glyph glyph-name="quotedbl" unicode="&#x22;" 
d="M228 414l-11 125v147h52v-147l-11 -125h-30zM341 414l-11 125v147h52v-147l-11 -125h-30z" />
    <glyph glyph-name="numbersign" unicode="#" 
d="M87 0l42 188h-117v58h130l39 174h-130v58h143l49 218h59l-50 -218h166l49 218h59l-50 -218h113v-58h-126l-39 -174h126v-58h-139l-42 -188h-58l42 188h-166l-42 -188h-58zM200 246h166l39 174h-166z" />
    <glyph glyph-name="dollar" unicode="$" 
d="M273 -66l8.99512 85.001c-41.333 2 -79.166 9 -113.499 21s-61.666 31.167 -81.999 57.5s-30.5 61.166 -30.5 104.499c0 2 0.166992 4.5 0.5 7.5s0.5 5.83301 0.5 8.5h51c0 -3.33301 -0.166992 -7.5 -0.5 -12.5s-0.5 -9.16699 -0.5 -12.5c0 -32 8.5 -57 25.5 -75
s40 -30.667 69 -38s61.5 -11 97.5 -11s68.5 3.66699 97.5 11s52.167 20.5 69.5 39.5s26 45.833 26 80.5c0 30.667 -9.16699 54.5 -27.5 71.5s-42.166 30.333 -71.499 40s-60.666 18.167 -93.999 25.5c-27.333 6.66699 -54.5 13.834 -81.5 21.501s-51.333 17.834 -73 30.501
s-39 29.167 -52 49.5s-19.5 46.5 -19.5 78.5c0 35.333 9.66699 64.166 29 86.499s44.833 39 76.5 50s66.5 17.167 104.5 18.5l-10 90h50l-10 -90c39.333 -0.666992 75 -6.83398 107 -18.501s57.5 -29.5 76.5 -53.5s28.5 -55.333 28.5 -94v-12h-50v21
c0 26 -7.83301 47 -23.5 63s-36.667 27.833 -63 35.5s-55.833 11.5 -88.5 11.5c-32 0 -61.167 -3.33301 -87.5 -10s-47.333 -18 -63 -34s-23.5 -38 -23.5 -66c0 -27.333 8.66699 -48.833 26 -64.5s40.166 -27.834 68.499 -36.501s58.5 -16.667 90.5 -24
c28 -6.66699 55.833 -14 83.5 -22s52.834 -18.5 75.501 -31.5s40.834 -30.167 54.501 -51.5s20.5 -48.666 20.5 -81.999c0 -44 -10.5 -79.5 -31.5 -106.5s-49 -46.5 -84 -58.5s-73.833 -18.333 -116.5 -19l10 -85h-50z" />
    <glyph glyph-name="percent" unicode="%" 
d="M478 -1c-24 0 -44.835 5.33203 -62.502 15.999s-31.334 25.167 -41.001 43.5s-14.5 38.5 -14.5 60.5v110c0 22 4.83301 42.167 14.5 60.5s23.334 32.833 41.001 43.5s38.5 16 62.5 16h3c24.667 0 45.834 -5.33301 63.501 -16s31.334 -25.167 41.001 -43.5
s14.5 -38.5 14.5 -60.5v-110c0 -21.333 -4.83301 -41.166 -14.5 -59.499s-23.167 -33 -40.5 -44s-38.333 -16.5 -63 -16.5h-4zM-0.00195312 -0.000976562l226 280h46l-212 -280h-60zM117.998 335.999c-24 0 -44.835 5.49902 -62.502 16.499s-31.334 25.5 -41.001 43.5
s-14.5 38 -14.5 60v110c0 22 4.83301 42.167 14.5 60.5s23.334 32.833 41.001 43.5s38.5 16 62.5 16h3c24.667 0 45.834 -5.33301 63.501 -16s31.334 -25.167 41.001 -43.5s14.5 -38.5 14.5 -60.5v-110c0 -21.333 -4.83301 -41.166 -14.5 -59.499s-23.167 -33 -40.5 -44
s-38.333 -16.5 -63 -16.5h-4zM119.996 381.998c23.333 0 40.833 6.83301 52.5 20.5s17.5 30.167 17.5 49.5v118c0 19.333 -5.83301 35.833 -17.5 49.5s-29.167 20.5 -52.5 20.5c-22 0 -39.167 -6.83301 -51.5 -20.5s-18.5 -30.167 -18.5 -49.5v-118
c0 -19.333 6.16699 -35.833 18.5 -49.5s29.5 -20.5 51.5 -20.5zM479.996 44.998c23.333 0 40.833 6.83301 52.5 20.5s17.5 30.167 17.5 49.5v118c0 19.333 -5.83301 35.833 -17.5 49.5s-29.167 20.5 -52.5 20.5c-22 0 -39.167 -6.83301 -51.5 -20.5
s-18.5 -30.167 -18.5 -49.5v-118c0 -19.333 6.16699 -35.833 18.5 -49.5s29.5 -20.5 51.5 -20.5zM328.996 405.998l214 280h57l-226 -280h-45z" />
    <glyph glyph-name="ampersand" unicode="&#x26;" 
d="M303 0c-38 0 -71.334 3.83203 -100.001 11.499s-52.667 19 -72 34s-33.833 33.667 -43.5 56s-14.5 48.166 -14.5 77.499c0 42 11.333 78.333 34 109s54 52.334 94 65.001v2c-21.333 10.667 -40.666 22.5 -57.999 35.5s-31 29 -41 48s-15 43.167 -15 72.5
c0 30 5.66699 56.5 17 79.5s26.833 42.333 46.5 58s42.5 27.5 68.5 35.5s54 12 84 12c22.667 0 45.334 -2.66699 68.001 -8v-50c-20 6.66699 -42.667 10 -68 10c-29.333 0 -56.333 -4.83301 -81 -14.5s-44.334 -24.667 -59.001 -45s-22 -46.166 -22 -77.499
c0 -30.667 7.66699 -56 23 -76s35.833 -35 61.5 -45s53.167 -15 82.5 -15h131l18 163h33v-163h110v-46h-110v-329h-187zM302.999 45.999l136.001 -0.000976562v283h-136c-36.667 0 -68.334 -6 -95.001 -18s-47 -29.167 -61 -51.5s-21 -49.5 -21 -81.5
c0 -43.333 15 -76.166 45 -98.499s74 -33.5 132 -33.5z" />
    <glyph glyph-name="quotesingle" unicode="'" 
d="M285 414l-11 125v147h52v-147l-11 -125h-30z" />
    <glyph glyph-name="parenleft" unicode="(" 
d="M385 -157c-50.667 58 -89.834 123.501 -117.501 196.501s-41.5 148.167 -41.5 225.5s13.833 152.333 41.5 225s66.834 138 117.501 196h29c-24.667 -38 -47.334 -79.667 -68.001 -125s-37.167 -92.833 -49.5 -142.5s-18.5 -100.834 -18.5 -153.501
s6.16699 -104 18.5 -154s28.833 -97.667 49.5 -143s43.334 -87 68.001 -125h-29z" />
    <glyph glyph-name="parenright" unicode=")" 
d="M215 686c51.333 -58 90.666 -123.5 117.999 -196.5s41 -148.167 41 -225.5c0 -76.667 -13.667 -151.5 -41 -224.5s-66.666 -138.5 -117.999 -196.5h-29c25.333 38 48.166 79.667 68.499 125s36.666 93 48.999 143s18.5 101 18.5 153c0 52.667 -6.16699 104 -18.5 154
s-28.666 97.667 -48.999 143s-43.166 87 -68.499 125h29z" />
    <glyph glyph-name="asterisk" unicode="*" 
d="M207 311l-50 35l116 136l-170 42l20 58l161 -70l-13 174h62l-17 -176l163 68l18 -59l-172 -39l113 -133l-49 -36l-92 151z" />
    <glyph glyph-name="plus" unicode="+" 
d="M270 0v226h-226v58h226v227h60v-227h226v-58h-226v-226h-60z" />
    <glyph glyph-name="comma" unicode="," 
d="M255 -106v6c11.333 15.333 20.833 31 28.5 47s11.5 33.667 11.5 53h-33v95h75v-84c0 -19.333 -2.83301 -38.833 -8.5 -58.5s-16.167 -39.167 -31.5 -58.5h-42z" />
    <glyph glyph-name="hyphen" unicode="-" 
d="M174 237v62h253v-62h-253z" />
    <glyph glyph-name="period" unicode="." 
d="M250 0v95h100v-95h-100z" />
    <glyph glyph-name="slash" unicode="/" 
d="M26 -171l490 857h59l-489 -857h-60z" />
    <glyph glyph-name="zero" unicode="0" 
d="M297 -10c-41.333 0 -78.5 9.16699 -111.5 27.5s-59 44.166 -78 77.499s-28.5 72 -28.5 116v264c0 44.667 9.5 83.5 28.5 116.5s45 58.667 78 77s70.167 27.5 111.5 27.5h6c42 0 79.333 -9.16699 112 -27.5s58.5 -44 77.5 -77s28.5 -71.833 28.5 -116.5v-264
c0 -44 -9.5 -82.667 -28.5 -116s-44.833 -59.166 -77.5 -77.499s-70 -27.5 -112 -27.5h-6zM300 38c32 0 60.667 7.16699 86 21.5s45.166 34.166 59.499 59.499s21.5 54 21.5 86v276c0 32 -7.16699 60.667 -21.5 86s-34.166 45.166 -59.499 59.499s-54 21.5 -86 21.5
s-60.5 -7.16699 -85.5 -21.5s-44.833 -34.166 -59.5 -59.499s-22 -54 -22 -86v-276c0 -32 7.33301 -60.667 22 -86s34.5 -45.166 59.5 -59.499s53.5 -21.5 85.5 -21.5z" />
    <glyph glyph-name="one" unicode="1" 
d="M92 0l-0.000976562 47.999h195v571h-195v34l62.5 7c23 2.66699 48.333 6.83398 76 12.501s56.834 13.5 87.501 23.5h23v-648h195v-48h-444z" />
    <glyph glyph-name="two" unicode="2" 
d="M73 0v32.998c0 43.333 8.66699 77.5 26 102.5s43 48.5 77 70.5l202 131c22.667 14.667 43.5 34.667 62.5 60s28.5 56.666 28.5 93.999c0 48.667 -13.5 87 -40.5 115s-66.833 42 -119.5 42c-32 0 -61.167 -7 -87.5 -21s-47.333 -33.333 -63 -58s-23.5 -53 -23.5 -85v-16
c0 -5.33301 0.333008 -10 1 -14h-54c-0.666992 5.33301 -1 9 -1 11v7c0 44.667 10.5 83.834 31.5 117.501s49 59.834 84 78.501s73.5 28 115.5 28h2c44 0 81.5 -8.66699 112.5 -26s54.833 -41.166 71.5 -71.499s25 -65.166 25 -104.499
c0 -35.333 -5.83301 -65.666 -17.5 -90.999s-26.5 -47 -44.5 -65s-37.333 -33.667 -58 -47l-212 -137c-20.667 -13.333 -35 -27.333 -43 -42s-12.667 -27.834 -14 -39.501s-2 -19.834 -2 -24.501h395v-48h-454z" />
    <glyph glyph-name="three" unicode="3" 
d="M287 -10c-43.333 0 -82.1631 7.99902 -116.496 23.999s-61.333 38.333 -81 67s-29.5 62.334 -29.5 101.001v17h53c0 -55.333 15.5 -96.333 46.5 -123s74.167 -40 129.5 -40c50.667 0 92.834 12.5 126.501 37.5s50.5 60.833 50.5 107.5c0 33.333 -8 60.833 -24 82.5
s-37.5 37.667 -64.5 48s-56.5 15.5 -88.5 15.5h-77v48h72c30 0 57.667 5 83 15s45.666 25 60.999 45s23 45.333 23 76c0 31.333 -7.33301 57.166 -22 77.499s-34.167 35.333 -58.5 45s-51.5 14.5 -81.5 14.5c-50.667 0 -90.334 -12.833 -119.001 -38.5
s-43 -63.167 -43 -112.5h-53v14c0 39.333 9.66699 72.666 29 99.999s45.166 48.333 77.499 63s67.833 22 106.5 22h5c38.667 0 74.167 -7.16699 106.5 -21.5s58.166 -35.166 77.499 -62.499s29 -61 29 -101c0 -29.333 -5 -53.5 -15 -72.5s-23.5 -35 -40.5 -48
s-36.167 -24.833 -57.5 -35.5v-4c36 -10.667 66.167 -29.667 90.5 -57s36.5 -64.666 36.5 -111.999c0 -40 -10.333 -74.333 -31 -103s-48.334 -50.667 -83.001 -66s-72.667 -23 -114 -23h-4z" />
    <glyph glyph-name="four" unicode="4" 
d="M394 0l-0.000976562 187.001h-346v48c21.333 30.667 41.333 61.167 60 91.5s36.167 60.5 52.5 90.5s31.5 60.167 45.5 90.5s27.5 61.166 40.5 92.499s25.5 63.333 37.5 96h56c-11.333 -34.667 -24.166 -69.5 -38.499 -104.5s-29.666 -69 -45.999 -102
s-33 -64.833 -50 -95.5s-34 -59.334 -51 -86.001s-33.5 -51 -49.5 -73h289v257l9 18c3.33301 6.66699 6.66602 13.834 9.99902 21.501l10 22c3.33301 7 6 13.5 8 19.5h19v-338h82v-48h-82v-187h-56z" />
    <glyph glyph-name="five" unicode="5" 
d="M305 -10c-46 0 -85.498 9.99902 -118.498 29.999s-58.333 46.667 -76 80s-26.5 70.333 -26.5 111h54c0 -31.333 6.83301 -60.166 20.5 -86.499s33 -47.333 58 -63s54.5 -23.5 88.5 -23.5c34.667 0 64.5 8.16699 89.5 24.5s44.167 38 57.5 65s20 56.167 20 87.5
c0 34 -7.5 64.333 -22.5 91s-35.167 47.667 -60.5 63s-53.333 23 -84 23c-31.333 0 -60.833 -8.16699 -88.5 -24.5s-48.834 -37.833 -63.501 -64.5l-48 7l28 376h363v-54h-313l-19 -250c21.333 19.333 44.666 34 69.999 44s51.333 15 78 15c42 0 79.167 -9.5 111.5 -28.5
s57.5 -45.5 75.5 -79.5s27 -73.333 27 -118c0 -40.667 -9 -78 -27 -112s-43.5 -61.333 -76.5 -82s-72.167 -31 -117.5 -31z" />
    <glyph glyph-name="six" unicode="6" 
d="M308 -10c-42 0 -79.498 9.16797 -112.498 27.501s-59 44.166 -78 77.499s-28.5 72 -28.5 116v264c0 44.667 9.16699 83.5 27.5 116.5s43.666 58.667 75.999 77s69.5 27.5 111.5 27.5h4c42 0 78.833 -9.16699 110.5 -27.5s56.334 -44 74.001 -77s26.5 -71.833 26.5 -116.5
h-52c0 53.333 -15.167 95.5 -45.5 126.5s-68.833 46.5 -115.5 46.5c-32 0 -60.333 -7.16699 -85 -21.5s-43.834 -34.166 -57.501 -59.499s-20.5 -54 -20.5 -86v-140c19.333 27.333 44.666 48.833 75.999 64.5s64.333 23.5 99 23.5c40 0 76.167 -9.33301 108.5 -28
s57.833 -44.334 76.5 -77.001s28 -70.334 28 -113.001c0 -44 -9.5 -82.667 -28.5 -116s-45 -59.166 -78 -77.499s-70.5 -27.5 -112.5 -27.5h-4zM310.002 38.001c33.333 0 62.5 7.33398 87.5 22.001s44.5 35 58.5 61s21 55.667 21 89c0 34 -7.33301 63.833 -22 89.5
s-34.5 45.667 -59.5 60s-53.5 21.5 -85.5 21.5c-32.667 0 -61.5 -7.33301 -86.5 -22s-44.667 -34.834 -59 -60.501s-21.5 -55.167 -21.5 -88.5c0 -34 7.33301 -64 22 -90s34.5 -46.167 59.5 -60.5s53.5 -21.5 85.5 -21.5z" />
    <glyph glyph-name="seven" unicode="7" 
d="M202 0c0 66 7.83008 129.335 23.4971 190.002s36.334 118 62.001 172s53.667 103.667 84 149s59.833 85.666 88.5 120.999h-389v54h471v-30c-39.333 -44 -76.666 -91.833 -111.999 -143.5s-66.166 -105.834 -92.499 -162.501s-46.333 -114.5 -60 -173.5
s-18.167 -117.833 -13.5 -176.5h-62z" />
    <glyph glyph-name="eight" unicode="8" 
d="M300 -10c-44.667 0 -84.1689 7.33301 -118.502 22s-61.166 36.167 -80.499 64.5s-29 63.833 -29 106.5c0 46 11.333 82.667 34 110s52 47 88 59v4c-28.667 14.667 -52.334 33.5 -71.001 56.5s-28 56.167 -28 99.5c0 38.667 8.5 71.667 25.5 99s41 48.333 72 63
s66.833 22 107.5 22c41.333 0 77.333 -7.33301 108 -22s54.5 -35.667 71.5 -63s25.5 -60.333 25.5 -99c0 -28.667 -4.33301 -52.834 -13 -72.501s-20.5 -36 -35.5 -49s-32.167 -24.5 -51.5 -34.5v-4c36.667 -14.667 66.334 -34.667 89.001 -60s34 -61.666 34 -108.999
c0 -58 -19.167 -104.667 -57.5 -140s-95.166 -53 -170.499 -53zM299.998 38c59.333 0 103.169 13 131.502 39s42.5 61.333 42.5 106s-15.333 80 -46 106s-73.334 39 -128.001 39s-97.334 -13.167 -128.001 -39.5s-46 -61.5 -46 -105.5s14 -79.167 42 -105.5
s72 -39.5 132 -39.5zM299.001 376c41.333 0 76.834 11.5 106.501 34.5s44.5 56.833 44.5 101.5c0 44 -13.667 77.667 -41 101s-64 35 -110 35s-82.5 -11.833 -109.5 -35.5s-40.5 -57.167 -40.5 -100.5s14.667 -76.833 44 -100.5s64.666 -35.5 105.999 -35.5z" />
    <glyph glyph-name="nine" unicode="9" 
d="M292 -10c-42 0 -79.167 9.16797 -111.5 27.501s-57.666 44 -75.999 77s-27.5 71.833 -27.5 116.5h52c0 -52.667 15.5 -94.667 46.5 -126s69.833 -47 116.5 -47c32 0 60.5 7.16699 85.5 21.5s44.5 34.166 58.5 59.499s21 54 21 86v141
c-18.667 -27.333 -43.667 -49 -75 -65s-64.666 -24 -99.999 -24c-40 0 -76 9.33301 -108 28s-57.5 44.5 -76.5 77.5s-28.5 70.5 -28.5 112.5c0 44.667 9.66699 83.5 29 116.5s45.666 58.667 78.999 77s71 27.5 113 27.5c42.667 0 80.5 -9.16699 113.5 -27.5
s59.167 -44 78.5 -77s29 -71.833 29 -116.5v-264c0 -44.667 -9.5 -83.5 -28.5 -116.5s-44.833 -58.667 -77.5 -77s-70.334 -27.5 -113.001 -27.5zM290 305.001c32.667 0 61.499 7.33203 86.499 21.999s44.667 35 59 61s21.5 55.333 21.5 88
c0 34.667 -7.16699 64.834 -21.5 90.501s-34.166 45.667 -59.499 60s-54 21.5 -86 21.5c-32.667 0 -61.667 -7.33301 -87 -22s-45 -35 -59 -61s-21 -55.667 -21 -89c0 -34 7.33301 -63.833 22 -89.5s34.5 -45.667 59.5 -60s53.5 -21.5 85.5 -21.5z" />
    <glyph glyph-name="colon" unicode=":" 
d="M250 0v95h100v-95h-100zM250 416v95h100v-95h-100z" />
    <glyph glyph-name="semicolon" unicode=";" 
d="M255 -106v6c11.333 15.333 20.833 31 28.5 47s11.5 33.667 11.5 53h-33v95h75v-84c0 -19.333 -2.83301 -38.833 -8.5 -58.5s-16.167 -39.167 -31.5 -58.5h-42zM250 416v95h100v-95h-100z" />
    <glyph glyph-name="less" unicode="&#x3c;" 
d="M545 495v-62l-463 -179l463 -179v-62l-510 197v88z" />
    <glyph glyph-name="equal" unicode="=" 
d="M44 328v58h512v-58h-512zM44 120v58h512v-58h-512z" />
    <glyph glyph-name="greater" unicode="&#x3e;" 
d="M55 13v62l463 179l-463 179v62l510 -197v-88z" />
    <glyph glyph-name="question" unicode="?" 
d="M287 167l0.000976562 77.001c0 24.667 5.33301 45.167 16 61.5s23.834 31 39.501 44l47 40.5c15.667 14 28.834 30.667 39.501 50s16 43.666 16 72.999c0 10 -1.66699 22.667 -5 38s-9.66602 30.333 -18.999 45s-23.166 27 -41.499 37s-42.5 15 -72.5 15
c-34.667 0 -62.167 -6.16699 -82.5 -18.5s-35.5 -27.5 -45.5 -45.5s-16.5 -35.333 -19.5 -52s-4.5 -29.334 -4.5 -38.001c0 -3.33301 0.333008 -8 1 -14s1.33398 -11 2.00098 -15h-54c-0.666992 2 -1.33398 5.83301 -2.00098 11.5s-1 12.834 -1 21.501
c0 6 1.16699 16.667 3.5 32s7.16602 32.5 14.499 51.5s18.333 37.167 33 54.5s34.5 31.833 59.5 43.5s56.5 17.5 94.5 17.5s69 -5.66699 93 -17s42.833 -25.5 56.5 -42.5s23.667 -34.333 30 -52s10.166 -33 11.499 -46s2 -21.167 2 -24.5
c0 -35.333 -5.33301 -64.333 -16 -87s-23.834 -41.5 -39.501 -56.5s-31.334 -28.833 -47.001 -41.5s-28.834 -26.5 -39.501 -41.5s-16 -34.167 -16 -57.5v-64h-54zM264.001 0.000976562v95h100v-95h-100z" />
    <glyph glyph-name="at" unicode="@" 
d="M287 -153c-99.333 0 -171.666 33.499 -216.999 100.499s-68 171.833 -68 314.5c0 143.333 26.167 251.666 78.5 324.999s129.5 110 231.5 110c94 0 165.167 -32.667 213.5 -98s72.5 -161.666 72.5 -288.999c0 -70 -3.83301 -128.667 -11.5 -176s-20.167 -83 -37.5 -107
s-41 -36 -71 -36c-22.667 0 -41 8 -55 24s-21 39.333 -21 70c-16 -33.333 -36 -57.5 -60 -72.5s-51.667 -22.5 -83 -22.5c-18.667 0 -35.5 3 -50.5 9s-27.833 14.667 -38.5 26s-18.667 25.333 -24 42s-8 35.334 -8 56.001c0 37.333 9.16699 68.833 27.5 94.5
s46.666 45.167 84.999 58.5s86.833 20 145.5 20v64c0 36 -8.33301 64.167 -25 84.5s-41.334 30.5 -74.001 30.5c-26 0 -48.333 -8 -67 -24s-28 -42.667 -28 -80v-16h-49c-0.666992 4 -1.16699 8.16699 -1.5 12.5s-0.5 8.83301 -0.5 13.5c0 45.333 14.333 80 43 104
s63 36 103 36h4c47.333 0 83.5 -13.333 108.5 -40s37.5 -63.667 37.5 -111v-281c0 -22 3.33301 -36.333 10 -43s14.667 -10 24 -10c14.667 0 26.834 10.333 36.501 31s17 51.5 22 92.5s7.5 91.5 7.5 151.5c0 110.667 -20 194.5 -60 251.5s-98.667 85.5 -176 85.5
c-84.667 0 -148.834 -32.667 -192.501 -98s-65.5 -161.666 -65.5 -288.999c0 -124.667 18.5 -216.667 55.5 -276s96.5 -89 178.5 -89c18.667 0 37.667 1.16699 57 3.5s37.5 5.66602 54.5 9.99902s31.5 9.5 43.5 15.5v-51c-14 -5.33301 -29.667 -10 -47 -14
s-35.166 -7.16699 -53.499 -9.5s-36.5 -3.5 -54.5 -3.5zM264 35.999c22.667 0 44 6.33203 64 18.999s36.333 32.334 49 59.001s19 60.667 19 102v35c-52 0 -93 -5.16699 -123 -15.5s-51.167 -25 -63.5 -44s-18.5 -42.167 -18.5 -69.5c0 -26.667 6.33301 -47.667 19 -63
s30.667 -23 54 -23z" />
    <glyph glyph-name="A" unicode="A" 
d="M20 0l252 686h56l252 -686h-58l-222 612h-4l-220 -612h-56zM117 170v49h364v-49h-364z" />
    <glyph glyph-name="B" unicode="B" 
d="M90 0l0.000976562 685.998h254c36.667 0 68.5 -7.16699 95.5 -21.5s47.833 -33.666 62.5 -57.999s22 -52.166 22 -83.499c0 -34 -6.33301 -62.333 -19 -85s-28.334 -40.334 -47.001 -53.001s-37 -21.334 -55 -26.001v-6c9.33301 -1.33301 21.5 -4.66602 36.5 -9.99902
s30.167 -14.166 45.5 -26.499s28.333 -29.333 39 -51s16 -49.167 16 -82.5s-8.5 -64 -25.5 -92s-39.833 -50.167 -68.5 -66.5s-60.667 -24.5 -96 -24.5h-260zM144.001 47.998l200 0.000976562c26 0 49.667 6.16699 71 18.5s38.5 28.833 51.5 49.5s19.5 44 19.5 70
s-6.5 49.667 -19.5 71s-30.167 38.166 -51.5 50.499s-45 18.5 -71 18.5h-200v-278zM144.001 373.999h190.001c25.333 0 48.166 6.16699 68.499 18.5s36.5 29 48.5 50s18 43.833 18 68.5c0 37.333 -9.66699 67.833 -29 91.5s-49 35.5 -89 35.5h-207v-264z" />
    <glyph glyph-name="C" unicode="C" 
d="M300 -10c-34 0 -65.8301 4.66699 -95.4971 14s-55.834 25.666 -78.501 48.999s-40.334 55.833 -53.001 97.5s-19 94.834 -19 159.501v66c0 64.667 6.5 117.834 19.5 159.501s31 74.167 54 97.5s49.167 39.666 78.5 48.999s60 14 92 14h3
c54 0 99.167 -9.83301 135.5 -29.5s63.5 -48.834 81.5 -87.501s27 -87 27 -145h-53c0 50.667 -6.66699 91.667 -20 123s-34 54.333 -62 69s-64.667 22 -110 22c-26.667 0 -51.5 -3.66699 -74.5 -11s-43.333 -20.5 -61 -39.5s-31.5 -45.5 -41.5 -79.5s-15 -77.333 -15 -130
v-90c0 -52.667 5 -96 15 -130s23.833 -60.5 41.5 -79.5s38 -32.167 61 -39.5s47.833 -11 74.5 -11c67.333 0 116.166 16.833 146.499 50.5s45.5 87.834 45.5 162.501h53c0 -57.333 -9 -105.5 -27 -144.5s-45 -68.167 -81 -87.5s-80.667 -29 -134 -29h-3z" />
    <glyph glyph-name="D" unicode="D" 
d="M90 0v685.999h220c36.667 0 71.167 -4.83301 103.5 -14.5s60.666 -26.167 84.999 -49.5s43.333 -55 57 -95s20.5 -90.333 20.5 -151v-65c0 -60 -6.83301 -110.167 -20.5 -150.5s-32.667 -72.166 -57 -95.499s-52.666 -40 -84.999 -50s-66.833 -15 -103.5 -15h-220z
M144 47.999h166c39.333 0 75 7.16699 107 21.5s57.5 39.833 76.5 76.5s28.5 88.667 28.5 156v83c0 65.333 -9.5 116.333 -28.5 153s-44.5 62.5 -76.5 77.5s-67.667 22.5 -107 22.5h-166v-590z" />
    <glyph glyph-name="E" unicode="E" 
d="M100 0v686h424l-10 -48h-360v-264h319v-48h-319v-278h369l11 -48h-434z" />
    <glyph glyph-name="F" unicode="F" 
d="M100 0v686h406l-9 -48h-343v-264h293v-48h-293v-326h-54z" />
    <glyph glyph-name="G" unicode="G" 
d="M300 -10c-34 0 -65.832 4.66797 -95.499 14.001s-55.834 25.666 -78.501 48.999s-40.334 55.833 -53.001 97.5s-19 94.834 -19 159.501v66c0 64.667 6.16699 117.834 18.5 159.501s29.5 74.167 51.5 97.5s47.833 39.666 77.5 48.999s61.834 14 96.501 14h5
c30.667 0 60.334 -3.83301 89.001 -11.5s54.334 -20.834 77.001 -39.501s40.667 -44 54 -76s20 -72 20 -120h-53c0 53.333 -9.16699 94.333 -27.5 123s-42 48.5 -71 59.5s-59.833 16.5 -92.5 16.5c-36.667 0 -69.334 -7 -98.001 -21s-51.334 -39.667 -68.001 -77
s-25 -91.333 -25 -162v-90c0 -52.667 5 -96 15 -130s23.833 -60.5 41.5 -79.5s38 -32.167 61 -39.5s47.833 -11 74.5 -11c34 0 65.667 6.16699 95 18.5s53 34.5 71 66.5s27 78 27 138v42h-222v47h272v-231c0 -26 0.666992 -49.667 2 -71s2.66602 -37.333 3.99902 -48h-37
l-16 92c-20.667 -36 -48.167 -62 -82.5 -78s-71.166 -24 -110.499 -24h-3z" />
    <glyph glyph-name="H" unicode="H" 
d="M90 0v686h54v-312h312v312h54v-686h-54v326h-312v-326h-54z" />
    <glyph glyph-name="I" unicode="I" 
d="M134 0v49h139v588h-139v49h332v-49h-139v-588h139v-49h-332z" />
    <glyph glyph-name="J" unicode="J" 
d="M295 -10c-34.667 0 -66 6.66797 -94 20.001s-50.333 33.166 -67 59.499s-25 58.5 -25 96.5v19h50v-13c0 -47.333 13.5 -81.5 40.5 -102.5s59.833 -31.5 98.5 -31.5s71.5 10.667 98.5 32s40.5 55.333 40.5 102v514h54v-520c0 -38.667 -8.66699 -71 -26 -97
s-40.5 -45.667 -69.5 -59s-61.167 -20 -96.5 -20h-4z" />
    <glyph glyph-name="K" unicode="K" 
d="M90 0v686h54v-407l363 407h64l-267 -299l275 -387h-68l-244 346l-123 -138v-208h-54z" />
    <glyph glyph-name="L" unicode="L" 
d="M120 0v686h54v-638h340l12 -48h-406z" />
    <glyph glyph-name="M" unicode="M" 
d="M80 0v686h91l125 -627h5l130 627h89v-686h-52v625h-5l-129 -625h-77l-126 625h-5v-625h-46z" />
    <glyph glyph-name="N" unicode="N" 
d="M90 0v686h60l261 -498l44 -88h3v586h52v-686h-60l-272 514l-33 72h-3v-586h-52z" />
    <glyph glyph-name="O" unicode="O" 
d="M300 -10c-34 0 -65.833 4.66797 -95.5 14.001s-55.834 25.666 -78.501 48.999s-40.334 55.833 -53.001 97.5s-19 94.834 -19 159.501v66c0 64.667 6.5 117.834 19.5 159.501s31 74.167 54 97.5s49.167 39.666 78.5 48.999s60 14 92 14h3c34 0 65.833 -4.66699 95.5 -14
s55.667 -25.833 78 -49.5s39.833 -56.334 52.5 -98.001s19 -94.5 19 -158.5v-66c0 -64 -6.33301 -116.833 -19 -158.5s-30.167 -74.167 -52.5 -97.5s-48.166 -39.833 -77.499 -49.5s-60.666 -14.5 -93.999 -14.5h-3zM300 38.001c26.667 0 51.5 3.66699 74.5 11
s43.333 20.5 61 39.5s31.5 45.5 41.5 79.5s15 77.333 15 130v90c0 52.667 -5 96 -15 130s-23.833 60.5 -41.5 79.5s-38 32.167 -61 39.5s-47.833 11 -74.5 11s-51.5 -3.66699 -74.5 -11s-43.333 -20.5 -61 -39.5s-31.5 -45.5 -41.5 -79.5s-15 -77.333 -15 -130v-90
c0 -52.667 5 -96 15 -130s23.833 -60.5 41.5 -79.5s38 -32.167 61 -39.5s47.833 -11 74.5 -11z" />
    <glyph glyph-name="P" unicode="P" 
d="M90 0v686h281c34 0 65.167 -8.33301 93.5 -25s51 -39 68 -67s25.5 -59 25.5 -93v-4c0 -34 -8.5 -65 -25.5 -93s-39.5 -50.5 -67.5 -67.5s-59.333 -25.5 -94 -25.5h-227v-311h-54zM144 359l220 0.000976562c26 0 49.667 6.16699 71 18.5s38.5 29.166 51.5 50.499
s19.5 45 19.5 71s-6.5 49.5 -19.5 70.5s-30.167 37.667 -51.5 50s-45 18.5 -71 18.5h-220v-279z" />
    <glyph glyph-name="Q" unicode="Q" 
d="M437 -137c-28 0 -53.335 5.33496 -76.002 16.002s-41.167 25.667 -55.5 45s-23.5 41.666 -27.5 66.999c-31.333 2 -60.666 8.33301 -87.999 19s-51.166 27.834 -71.499 51.501s-36.166 55.667 -47.499 96s-17 91.166 -17 152.499v66c0 64.667 6.5 117.834 19.5 159.501
s31 74.167 54 97.5s49.167 39.666 78.5 48.999s60 14 92 14h3c34 0 65.833 -4.66699 95.5 -14s55.667 -25.833 78 -49.5s39.833 -56.334 52.5 -98.001s19 -94.5 19 -158.5v-66c0 -62 -6 -113.5 -18 -154.5s-28.5 -73.333 -49.5 -97s-45.667 -40.667 -74 -51
s-58.5 -16.166 -90.5 -17.499l12 16c0 -28.667 10.833 -52.334 32.5 -71.001s49.167 -28 82.5 -28c16 0 34.333 2.5 55 7.5s38.667 11.833 54 20.5v-45c-10.667 -6 -26.334 -12 -47.001 -18s-42.667 -9 -66 -9zM299.998 38.002c26.667 0 51.5 3.66699 74.5 11
s43.333 20.5 61 39.5s31.5 45.5 41.5 79.5s15 77.333 15 130v90c0 52.667 -5 96 -15 130s-23.833 60.5 -41.5 79.5s-38 32.167 -61 39.5s-47.833 11 -74.5 11s-51.5 -3.66699 -74.5 -11s-43.333 -20.5 -61 -39.5s-31.5 -45.5 -41.5 -79.5s-15 -77.333 -15 -130v-90
c0 -52.667 5 -96 15 -130s23.833 -60.5 41.5 -79.5s38 -32.167 61 -39.5s47.833 -11 74.5 -11z" />
    <glyph glyph-name="R" unicode="R" 
d="M562 -3c-10 0 -21.168 3 -33.501 9s-22.833 18.333 -31.5 37s-13 46.667 -13 84c0 44 -5 78.667 -15 104s-22.5 44.166 -37.5 56.499s-29.5 20.166 -43.5 23.499s-25 5 -33 5h-211v-316h-54v686h279c32.667 0 62.5 -7 89.5 -21s48.833 -34 65.5 -60s25 -57.333 25 -94
c0 -41.333 -11.167 -77.666 -33.5 -108.999s-50.833 -50.666 -85.5 -57.999v-5c22 -6 41 -17.5 57 -34.5s28.167 -38.333 36.5 -64s12.5 -54.834 12.5 -87.501c0 -46.667 3.5 -79.167 10.5 -97.5s20.5 -30.166 40.5 -35.499v-19
c-0.666992 -0.666992 -3.16699 -1.5 -7.5 -2.5s-10.166 -1.5 -17.499 -1.5zM143.999 364h210c43.333 0 77.833 13.5 103.5 40.5s38.5 61.167 38.5 102.5c0 43.333 -12.5 76 -37.5 98s-57.167 33 -96.5 33h-218v-274z" />
    <glyph glyph-name="S" unicode="S" 
d="M303 -10c-34 0 -65.9971 3.33008 -95.9971 9.99707s-56.333 17.667 -79 33s-40.5 35.666 -53.5 60.999s-19.5 56.333 -19.5 93v9c0 3.33301 0.333008 6.33301 1 9h51c-0.666992 -4.66699 -1 -9.16699 -1 -13.5v-13.5c0 -34.667 8.66699 -62.167 26 -82.5
s40.5 -35 69.5 -44s61.5 -13.5 97.5 -13.5s68.667 4.33301 98 13s52.666 23.834 69.999 45.501s26 51.167 26 88.5c0 30 -7.66699 54.167 -23 72.5s-35.5 33 -60.5 44s-52.5 20.333 -82.5 28s-59.833 15.834 -89.5 24.501s-57 19.667 -82 33s-45.167 31.166 -60.5 53.499
s-23 51.5 -23 87.5c0 39.333 10.5 71.333 31.5 96s48.833 42.834 83.5 54.501s72 17.5 112 17.5c42 0 80.167 -6 114.5 -18s61.666 -31.167 81.999 -57.5s30.5 -61.166 30.5 -104.499v-13h-50v22c0 28 -8 51 -24 69s-37.167 31.5 -63.5 40.5s-55.833 13.5 -88.5 13.5
c-32 0 -61.333 -4 -88 -12s-47.834 -21 -63.501 -39s-23.5 -42 -23.5 -72c0 -27.333 7.66699 -49.333 23 -66s35.5 -30 60.5 -40s52.5 -18.667 82.5 -26s59.833 -15.333 89.5 -24s57 -20 82 -34s45.167 -32.667 60.5 -56s23 -53.666 23 -90.999
c0 -48.667 -11.167 -87.5 -33.5 -116.5s-51.833 -49.833 -88.5 -62.5s-77 -19 -121 -19z" />
    <glyph glyph-name="T" unicode="T" 
d="M274 0v638h-232v48h516v-48h-232v-638h-52z" />
    <glyph glyph-name="U" unicode="U" 
d="M297 -10c-68 0 -121 20.167 -159 60.5s-57 96.833 -57 169.5v466h54v-466c0 -56.667 14.5 -101.167 43.5 -133.5s69.5 -48.5 121.5 -48.5s92.5 16.167 121.5 48.5s43.5 76.833 43.5 133.5v466h54v-466c0 -72.667 -19 -129.167 -57 -169.5s-91 -60.5 -159 -60.5h-6z" />
    <glyph glyph-name="V" unicode="V" 
d="M272 0l-252 686h58l222 -612h4l220 612h56l-252 -686h-56z" />
    <glyph glyph-name="W" unicode="W" 
d="M130 0l-130 686h55l110 -579h4l98 579h72l100 -579h4l106 579h51l-130 -686h-67l-101 581h-4l-99 -581h-69z" />
    <glyph glyph-name="X" unicode="X" 
d="M14 0l255 359l-232 327h65l199 -284h2l202 284h59l-233 -327l255 -359h-65l-222 315h-2l-224 -315h-59z" />
    <glyph glyph-name="Y" unicode="Y" 
d="M273 0v266l-246 420h63l211 -365h3l214 365h55l-246 -420v-266h-54z" />
    <glyph glyph-name="Z" unicode="Z" 
d="M48 0v25l415 613h-391v48h471v-24l-415 -614h423v-48h-503z" />
    <glyph glyph-name="bracketleft" unicode="[" 
d="M260 -161v847h170v-38h-117v-771h117v-38h-170z" />
    <glyph glyph-name="backslash" unicode="\" 
d="M515 -171l-489 857h59l490 -857h-60z" />
    <glyph glyph-name="bracketright" unicode="]" 
d="M340 686v-847h-170v38h117v771h-117v38h170z" />
    <glyph glyph-name="asciicircum" unicode="^" 
d="M59 0l197 511h88l197 -511h-62l-179 464l-179 -464h-62z" />
    <glyph glyph-name="underscore" unicode="_" 
d="M50 -122v58h500v-58h-500z" />
    <glyph glyph-name="grave" unicode="`" 
d="M319 592l-90 152v3h65l75 -155h-50z" />
    <glyph glyph-name="a" unicode="a" 
d="M243 -10c-52.667 0 -92.666 12.499 -119.999 37.499s-41 60.167 -41 105.5c0 39.333 10.667 71 32 95s57 41.333 107 52s117.333 16 202 16v64c0 42 -10 71.667 -30 89s-54.333 26 -103 26c-44.667 0 -79 -9 -103 -27s-36 -43.667 -36 -77v-16h-49
c-1.33301 16 -2.16602 26.333 -2.49902 31s-0.5 6.33398 -0.5 5.00098s0.166992 -3.5 0.5 -6.5s0.5 -4.16699 0.5 -3.5c0 42 17.333 75.833 52 101.5s80.667 38.5 138 38.5c62.667 0 109 -12.333 139 -37s45 -62.667 45 -114v-301c0 -12.667 3.16699 -21.334 9.5 -26.001
s14.5 -7 24.5 -7c18 0 34.667 5.33301 50 16v-43c-8 -6 -17 -10.667 -27 -14s-20.333 -5 -31 -5c-16 0 -29.5 2.5 -40.5 7.5s-19.333 14.333 -25 28s-8.83398 33.834 -9.50098 60.501c-12.667 -25.333 -29.334 -45 -50.001 -59s-42.5 -23.667 -65.5 -29s-45.167 -8 -66.5 -8
zM253.001 35.999c39.333 0 71.5 8.5 96.5 25.5s43.5 39.833 55.5 68.5s18 60.667 18 96v24c-74.667 0 -133 -3.5 -175 -10.5s-71.667 -19 -89 -36s-26 -40.833 -26 -71.5c0 -32 9.5 -56 28.5 -72s49.5 -24 91.5 -24z" />
    <glyph glyph-name="b" unicode="b" 
d="M324 -10c-37.333 0 -70.5 7.83105 -99.5 23.498s-51.833 39.834 -68.5 72.501l-6 -86h-40v720h51v-290c15.333 30.667 37.5 53.5 66.5 68.5s61.167 22.5 96.5 22.5c43.333 0 80.166 -10.667 110.499 -32s53.333 -50.666 69 -87.999s23.5 -80 23.5 -128v-15
c0 -56.667 -8.66699 -105 -26 -145s-41.166 -70.5 -71.499 -91.5s-65.5 -31.5 -105.5 -31.5zM319 35.998c46.667 0 84.5 17.168 113.5 51.501s43.5 91.166 43.5 170.499v11c0 68.667 -14.5 120.167 -43.5 154.5s-66.833 51.5 -113.5 51.5s-84.834 -17.167 -114.501 -51.5
s-44.5 -85.833 -44.5 -154.5v-12c0 -78.667 14.833 -135.167 44.5 -169.5s67.834 -51.5 114.501 -51.5z" />
    <glyph glyph-name="c" unicode="c" 
d="M296 -10c-30.667 0 -58.9971 5.66797 -84.9971 17.001s-48.5 28.166 -67.5 50.499s-33.667 49.5 -44 81.5s-15.5 68.333 -15.5 109v15c0 41.333 5.16699 77.833 15.5 109.5s24.833 58.667 43.5 81s41 39.166 67 50.499s54.667 17 86 17h2c37.333 0 71 -8 101 -24
s53.833 -39.333 71.5 -70s26.5 -68.334 26.5 -113.001h-50c0 36.667 -6.83301 66.834 -20.5 90.501s-31.834 41.334 -54.501 53.001s-47.667 17.5 -75 17.5c-46 0 -84.5 -17 -115.5 -51s-46.5 -85.667 -46.5 -155v-27c0 -69.333 15.667 -121 47 -155s70 -51 116 -51
c27.333 0 52.166 5.66699 74.499 17s40.333 29 54 53s20.5 54.333 20.5 91h50c0 -44 -8.83301 -81.5 -26.5 -112.5s-41.334 -54.5 -71.001 -70.5s-63.167 -24 -100.5 -24h-3z" />
    <glyph glyph-name="d" unicode="d" 
d="M277 -10c-36.667 0 -70.501 8.83398 -101.501 26.501s-55.833 45.5 -74.5 83.5s-28 88 -28 150v11c0 55.333 8.83301 102.333 26.5 141s41.834 68.167 72.501 88.5s65.334 30.5 104.001 30.5c36.667 0 69.167 -7.5 97.5 -22.5s50.166 -36.5 65.499 -64.5v286h51v-720h-40
l-9 86c-14.667 -32.667 -36.667 -56.834 -66 -72.501s-62 -23.5 -98 -23.5zM280.999 36.001c46.667 0 84.834 17.335 114.501 52.002s44.5 88.667 44.5 162v12c0 73.333 -14.833 127.166 -44.5 161.499s-67.834 51.5 -114.501 51.5s-84.5 -17.333 -113.5 -52
s-43.5 -88.334 -43.5 -161.001v-11c0 -74 14.5 -128.333 43.5 -163s66.833 -52 113.5 -52z" />
    <glyph glyph-name="e" unicode="e" 
d="M297 -10c-48.667 0 -89.0039 11.165 -121.004 33.498s-55.833 53 -71.5 92s-23.5 83.167 -23.5 132.5v15c0 50.667 8.83301 95.334 26.5 134.001s42.834 69 75.501 91s71.334 33 116.001 33c42.667 0 79.334 -9.5 110.001 -28.5s54.5 -44.167 71.5 -75.5
s25.5 -65.666 25.5 -102.999v-64h-374v-8c0 -66.667 15.667 -117.667 47 -153s70.666 -53 117.999 -53c50.667 0 89.834 12.333 117.501 37s41.5 63.334 41.5 116.001h50c0 -40.667 -8.83301 -75.834 -26.5 -105.501s-42.167 -52.667 -73.5 -69
s-67.666 -24.5 -108.999 -24.5zM132.996 295.998l323.001 0.000976562v18c0 30 -6.5 57.167 -19.5 81.5s-31.167 43.666 -54.5 57.999s-51 21.5 -83 21.5c-36.667 0 -67.334 -9.16699 -92.001 -27.5s-43.167 -41 -55.5 -68s-18.5 -54.167 -18.5 -81.5v-2z" />
    <glyph glyph-name="f" unicode="f" 
d="M248 0v465.001h-161v46h161v57c0 38 8.33301 68.833 25 92.5s38.5 40.834 65.5 51.501s55.833 16 86.5 16c21.333 0 42.5 -2.16699 63.5 -6.5s38.833 -10.833 53.5 -19.5v-46c-15.333 6.66699 -31.833 12.667 -49.5 18s-38.167 8 -61.5 8
c-22 0 -43.167 -3.33301 -63.5 -10s-36.833 -18.334 -49.5 -35.001s-19 -40.334 -19 -71.001v-55h225v-46h-225v-465h-51zM86 0.000976562v46h446v-46h-446z" />
    <glyph glyph-name="g" unicode="g" 
d="M195 -188c-38.667 0 -69.3379 11.668 -92.0049 35.001s-34 52.333 -34 87c0 25.333 6.83301 47.833 20.5 67.5s31.5 34.167 53.5 43.5c-14.667 9.33301 -26 21.5 -34 36.5s-12 31.167 -12 48.5c0 22.667 7 43.334 21 62.001s34.667 31.334 62 38.001
c-23.333 13.333 -40.666 31.166 -51.999 53.499s-17 47.833 -17 76.5c0 50.667 17.333 90.167 52 118.5s82.334 42.5 143.001 42.5c45.333 0 82.333 -7.33301 111 -22c25.333 6.66699 45.833 19 61.5 37s25.167 40.333 28.5 67h48c0 -30.667 -9.66699 -58.334 -29 -83.001
s-42.666 -39 -69.999 -43l-1 -4c14.667 -12.667 26 -28.834 34 -48.501s12 -41.167 12 -64.5c0 -50 -17.167 -89.167 -51.5 -117.5s-82.166 -42.5 -143.499 -42.5h-82c-22 0 -40 -6.16699 -54 -18.5s-21 -28.5 -21 -48.5s6.83301 -36 20.5 -48s31.834 -18 54.501 -18h193
c42 0 75.5 -10.833 100.5 -32.5s37.5 -50.5 37.5 -86.5c0 -38.667 -12.667 -71 -38 -97s-60.333 -39 -105 -39h-217zM207.996 -141.999l207 0.000976562c29.333 0 51.5 7.66699 66.5 23s22.5 34.666 22.5 57.999c0 22 -7 40.667 -21 56s-36.667 23 -68 23h-207
c-28.667 0 -50.667 -7.83301 -66 -23.5s-23 -34.5 -23 -56.5s7.66699 -40.833 23 -56.5s37.333 -23.5 66 -23.5zM305.996 245.002c45.333 0 80.666 10 105.999 30s38 48.333 38 85s-12.667 65 -38 85s-60.666 30 -105.999 30s-80.666 -10 -105.999 -30s-38 -48.333 -38 -85
s12.667 -65 38 -85s60.666 -30 105.999 -30z" />
    <glyph glyph-name="h" unicode="h" 
d="M102 0l0.00195312 720h51v-281c17.333 27.333 41.333 47.833 72 61.5s60.667 20.5 90 20.5c35.333 0 67.166 -6.83301 95.499 -20.5s51 -34.5 68 -62.5s25.5 -64.333 25.5 -109v-329h-51v314c0 55.333 -12.667 96 -38 122s-60.333 39 -105 39c-30 0 -56.833 -7 -80.5 -21
s-42.334 -33.167 -56.001 -57.5s-20.5 -51.833 -20.5 -82.5v-314h-51z" />
    <glyph glyph-name="i" unicode="i" 
d="M299 0v465h-195v46h246v-511h-51zM104 0v46h436v-46h-436zM286 620v73h65v-73h-65z" />
    <glyph glyph-name="j" unicode="j" 
d="M208 -186c-18.667 0 -37.334 2.50098 -56.001 7.50098s-34.667 11.5 -48 19.5v45c15.333 -8 31.833 -14.333 49.5 -19s33.834 -7 48.501 -7c16 0 31.5 2.16699 46.5 6.5s27.167 13.5 36.5 27.5s14 35 14 63v508h-195v46h246v-556c0 -48.667 -13.333 -84.334 -40 -107.001
s-60.667 -34 -102 -34zM286 620.001v73h65v-73h-65z" />
    <glyph glyph-name="k" unicode="k" 
d="M93 0v720h51v-534l290 325h63l-215 -241l232 -270h-66l-200 232l-104 -105v-127h-51z" />
    <glyph glyph-name="l" unicode="l" 
d="M279 0v675h-195v46h246v-721h-51zM84 0v46h436v-46h-436z" />
    <glyph glyph-name="m" unicode="m" 
d="M64 0l0.00195312 511h37l8 -61c8 23.333 21 41 39 53s37.667 18 59 18s41.166 -6 59.499 -18s32.166 -31.333 41.499 -58c10 23.333 23.667 41.833 41 55.5s40.333 20.5 69 20.5c36 0 64.5 -11.5 85.5 -34.5s31.5 -58.167 31.5 -105.5v-381h-51v377
c0 66.667 -24.667 100 -74 100c-24.667 0 -45 -9.5 -61 -28.5s-24 -42.833 -24 -71.5v-377h-51v377c0 66.667 -25.667 100 -77 100c-24 0 -43.667 -9.5 -59 -28.5s-23 -42.833 -23 -71.5v-377h-51z" />
    <glyph glyph-name="n" unicode="n" 
d="M102 0l0.000976562 511.001h40l9 -86c15.333 33.333 38 57.666 68 72.999s62 23 96 23c56 0 101.5 -16.333 136.5 -49s52.5 -83 52.5 -151v-321h-51v297c0 62.667 -12.5 108 -37.5 136s-60.167 42 -105.5 42c-32 0 -59.833 -8.16699 -83.5 -24.5
s-41.834 -38.5 -54.501 -66.5s-19 -60.333 -19 -97v-287h-51z" />
    <glyph glyph-name="o" unicode="o" 
d="M300 -10c-46 0 -84.999 11.167 -116.999 33.5s-56.5 53 -73.5 92s-25.5 83.167 -25.5 132.5v15c0 50.667 8.5 95.334 25.5 134.001s41.667 69 74 91s71.166 33 116.499 33c46 0 85.167 -11.167 117.5 -33.5s56.833 -52.833 73.5 -91.5s25 -83 25 -133v-15
c0 -50.667 -8.5 -95.334 -25.5 -134.001s-41.5 -69 -73.5 -91s-71 -33 -117 -33zM300.001 36c48.667 0 88.334 17.667 119.001 53s46 86.333 46 153v27c0 66.667 -15.333 117.667 -46 153s-70.334 53 -119.001 53s-88.334 -17.667 -119.001 -53s-46 -86.333 -46 -153v-27
c0 -66.667 15.333 -117.667 46 -153s70.334 -53 119.001 -53z" />
    <glyph glyph-name="p" unicode="p" 
d="M110 -181v691.998h40l9 -86c15.333 32.667 37.5 56.834 66.5 72.501s61.833 23.5 98.5 23.5c37.333 0 71.333 -9 102 -27s55.167 -46.167 73.5 -84.5s27.5 -87.833 27.5 -148.5v-14c0 -54.667 -9.16699 -101.167 -27.5 -139.5s-42.833 -67.5 -73.5 -87.5
s-64.667 -30 -102 -30c-36 0 -68 7.33301 -96 22s-50.333 34.334 -67 59.001v-252h-51zM319 35.998c46.667 0 84.499 17 113.499 51s43.5 87.333 43.5 160v14c0 53.333 -7.16699 95.5 -21.5 126.5s-33.333 53.333 -57 67s-49.834 20.5 -78.501 20.5
c-26.667 0 -52.167 -6.33301 -76.5 -19s-44.166 -34.5 -59.499 -65.5s-23 -74.167 -23 -129.5v-14c0 -72 14.833 -125.167 44.5 -159.5s67.834 -51.5 114.501 -51.5z" />
    <glyph glyph-name="q" unicode="q" 
d="M439 -180l0.000976562 261.001c-15.333 -30 -37.333 -52.667 -66 -68s-61 -23 -97 -23c-38.667 0 -73.334 9.5 -104.001 28.5s-54.834 47.167 -72.501 84.5s-26.5 83 -26.5 137v11c0 61.333 9.16699 112 27.5 152s42.833 69.667 73.5 89s64.667 29 102 29
c38 0 71.333 -7.83301 100 -23.5s51.334 -39.834 68.001 -72.501l6 86h40v-691h-51zM281.001 36.001c29.333 0 56 7.16699 80 21.5s43.167 36.666 57.5 66.999s21.5 69.5 21.5 117.5v12c0 56.667 -7.33301 101 -22 133s-34 54.667 -58 68s-50.333 20 -79 20s-55 -7 -79 -21
s-43 -37.167 -57 -69.5s-21 -76.166 -21 -131.499v-11c0 -47.333 7 -86.333 21 -117s33 -53.167 57 -67.5s50.333 -21.5 79 -21.5z" />
    <glyph glyph-name="r" unicode="r" 
d="M193 0l-0.00195312 464.998h-149v46h189l5 -84c12 31.333 31.333 54.833 58 70.5s55.667 23.5 87 23.5c52.667 0 93.167 -16.167 121.5 -48.5s42.5 -72.5 42.5 -120.5v-10.5c0 -3 -0.666992 -7.5 -2 -13.5h-47v16c0 22.667 -4.16699 43.834 -12.5 63.501
s-21.666 35.834 -39.999 48.501s-42.5 19 -72.5 19c-29.333 0 -53.666 -8.5 -72.999 -25.5s-33.5 -38.5 -42.5 -64.5s-13.5 -53 -13.5 -81v-304h-51zM36.998 -0.00195312v46h466v-46h-466z" />
    <glyph glyph-name="s" unicode="s" 
d="M297 -10c-40 0 -75.1689 6.00391 -105.502 18.0039s-54.166 28.833 -71.499 50.5s-26 46.167 -26 73.5v9.5c0 5 0.333008 10.167 1 15.5h49v-14c0 -33.333 14.667 -59.5 44 -78.5s70 -28.5 122 -28.5c45.333 0 80.833 9 106.5 27s38.5 42.333 38.5 73
c0 19.333 -4.83301 35.333 -14.5 48s-26.167 23.5 -49.5 32.5s-55 17.167 -95 24.5c-46.667 9.33301 -83.667 19.833 -111 31.5s-46.833 26.334 -58.5 44.001s-17.5 39.167 -17.5 64.5c0 29.333 7.83301 54.5 23.5 75.5s38.334 37 68.001 48s65.167 16.5 106.5 16.5
c36.667 0 69 -5.83301 97 -17.5s50 -27.834 66 -48.501s24 -44.667 24 -72v-5c0 -2 -0.333008 -5 -1 -9h-50c0 30.667 -7 53.5 -21 68.5s-32 25 -54 30s-45.333 7.5 -70 7.5c-92 0 -138 -30.667 -138 -92c0 -16 4.33301 -29.167 13 -39.5s24.167 -19.5 46.5 -27.5
s53.5 -16.667 93.5 -26c49.333 -10.667 88 -22.334 116 -35.001s47.833 -28.334 59.5 -47.001s17.5 -42.667 17.5 -72c0 -30.667 -7.83301 -56.834 -23.5 -78.501s-39 -38.334 -70 -50.001s-69.5 -17.5 -115.5 -17.5z" />
    <glyph glyph-name="t" unicode="t" 
d="M393 -10c-52.667 0 -95.5 12.167 -128.5 36.5s-49.5 62.5 -49.5 114.5v324h-161v46h161l18 163h33v-163h247v-46h-247v-322c0 -27.333 5.5 -48.833 16.5 -64.5s26.5 -26.667 46.5 -33s43.333 -9.5 70 -9.5c23.333 0 44.333 3.16699 63 9.5s35.667 12.833 51 19.5v-46
c-14.667 -8.66699 -33 -15.667 -55 -21s-43.667 -8 -65 -8z" />
    <glyph glyph-name="u" unicode="u" 
d="M275 -10c-55.333 0 -100.001 16.001 -134.001 48.001s-51 80 -51 144v329h51v-314c0 -54 12.333 -94.333 37 -121s59.667 -40 105 -40c30.667 0 57.5 7.83301 80.5 23.5s41.167 36.5 54.5 62.5s20 54.333 20 85v304h51v-442c0 -10.667 2.83301 -18.834 8.5 -24.501
s13.834 -8.5 24.501 -8.5c7.33301 0 15.333 1 24 3s17.667 6.33301 27 13v-43c-8.66699 -6.66699 -18 -11.5 -28 -14.5s-20.667 -4.5 -32 -4.5c-20 0 -35.167 3.83301 -45.5 11.5s-17.333 18.667 -21 33s-5.83398 31.5 -6.50098 51.5c-10 -22.667 -23.667 -41 -41 -55
s-36.666 -24.333 -57.999 -31s-43.333 -10 -66 -10z" />
    <glyph glyph-name="v" unicode="v" 
d="M277 0l-216 511h55l185 -442h2l186 442h50l-217 -511h-45z" />
    <glyph glyph-name="w" unicode="w" 
d="M138 0l-138 511h50l113 -418h4l107 418h68l98 -418h4l110 418h46l-134 -511h-54l-104 446h-4l-115 -446h-51z" />
    <glyph glyph-name="x" unicode="x" 
d="M81 0l190 262l-182 249h64l148 -208h1l150 208h58l-181 -249l190 -262h-63l-157 221h-1l-159 -221h-58z" />
    <glyph glyph-name="y" unicode="y" 
d="M169 -186c-10.667 0 -20.999 1.16699 -30.999 3.5s-20.667 5.83301 -32 10.5v46c7.33301 -2.66699 16 -5.66699 26 -9s19.333 -5 28 -5c17.333 0 31.333 4 42 12s21.334 22.667 32.001 44s24 52 40 92l-203 503h55l174 -435h4l175 435h50l-202 -498l-40 -99
c-12.667 -30 -27.834 -54.167 -45.501 -72.5s-41.834 -27.5 -72.501 -27.5z" />
    <glyph glyph-name="z" unicode="z" 
d="M120 0v24l277 441h-260v46h335v-24l-278 -441h286v-46h-360z" />
    <glyph glyph-name="braceleft" unicode="{" 
d="M409 -159c-19.333 0 -39.166 3.5 -59.499 10.5s-37.5 18.667 -51.5 35s-21 38.5 -21 66.5v214c0 20.667 -8.33301 35.5 -25 44.5s-34 13.167 -52 12.5v79c18 -0.666992 35.333 3.5 52 12.5s25 23.833 25 44.5v214c0 28.667 7 51 21 67s31.167 27.5 51.5 34.5
s40.166 10.5 59.499 10.5v-38c-9.33301 0 -20.166 -1.66699 -32.499 -5s-23 -9.33301 -32 -18s-13.833 -20.667 -14.5 -36l-7 -218c-0.666992 -32.667 -6.33398 -58 -17.001 -76s-32.667 -27 -66 -27v-9c33.333 0 55.333 -9 66 -27s16.334 -43.333 17.001 -76l7 -218
c0.666992 -15.333 5.5 -27.333 14.5 -36s19.667 -14.667 32 -18s23.166 -5 32.499 -5v-38z" />
    <glyph glyph-name="bar" unicode="|" 
d="M274 -200v920h52v-920h-52z" />
    <glyph glyph-name="braceright" unicode="}" 
d="M191 686c19.333 0 39.166 -3.5 59.499 -10.5s37.5 -18.5 51.5 -34.5s21 -38.333 21 -67v-214c0 -20.667 8.33301 -35.5 25 -44.5s34 -13.167 52 -12.5v-79c-18 0.666992 -35.333 -3.5 -52 -12.5s-25 -23.833 -25 -44.5v-214c0 -28 -7 -50.167 -21 -66.5
s-31.167 -28 -51.5 -35s-40.166 -10.5 -59.499 -10.5v38c9.33301 0 20.166 1.66699 32.499 5s23.166 9.33301 32.499 18s14 20.667 14 36l7 218c1.33301 32.667 7.16602 58 17.499 76s32.166 27 65.499 27v9c-33.333 0 -55.166 9 -65.499 27s-16.166 43.333 -17.499 76
l-7 218c0 15.333 -4.66699 27.333 -14 36s-20.166 14.667 -32.499 18s-23.166 5 -32.499 5v38z" />
    <glyph glyph-name="asciitilde" unicode="~" 
d="M18 224v60c10 11.333 23.333 23 40 35s35.667 22.167 57 30.5s43.333 12.5 66 12.5c21.333 0 41.666 -3.33301 60.999 -10s38.333 -14.334 57 -23.001s37.834 -16.334 57.501 -23.001s40.5 -10 62.5 -10c23.333 0 45.5 4.16699 66.5 12.5s40 18.5 57 30.5
s30.167 23.667 39.5 35v-60c-9.33301 -11.333 -22.5 -23 -39.5 -35s-36 -22.167 -57 -30.5s-43.167 -12.5 -66.5 -12.5c-21.333 0 -41.666 3.33301 -60.999 10s-38.333 14.334 -57 23.001s-37.834 16.334 -57.501 23.001s-40.5 10 -62.5 10
c-22.667 0 -44.667 -4.16699 -66 -12.5s-40.333 -18.5 -57 -30.5s-30 -23.667 -40 -35z" />
    <glyph glyph-name="uni00A0" unicode="&#xa0;" 
 />
    <glyph glyph-name="exclamdown" unicode="&#xa1;" 
d="M320 344l11 -519h-64l12 519h41zM350 511v-95h-100v95h100z" />
    <glyph glyph-name="cent" unicode="&#xa2;" 
d="M284 -6l9.00195 84.998c-39.333 2.66699 -74 14.167 -104 34.5s-53.333 49.333 -70 87s-25 82.834 -25 135.501v15c0 53.333 8.33301 98.666 25 135.999s40 66.5 70 87.5s64.667 32.5 104 34.5l-9 84h50l-10 -85c34.667 -2 65.834 -11.333 93.501 -28s49.5 -40 65.5 -70
s24 -66 24 -108h-50c0 36.667 -6.83301 66.834 -20.5 90.501s-31.834 41.334 -54.501 53.001s-47.667 17.5 -75 17.5c-46 0 -84.5 -17 -115.5 -51s-46.5 -85.667 -46.5 -155v-27c0 -69.333 15.667 -121 47 -155s70 -51 116 -51c27.333 0 52.166 5.66699 74.499 17
s40.333 29 54 53s20.5 54.333 20.5 91h50c0 -42 -8 -78 -24 -108s-37.833 -53.333 -65.5 -70s-58.834 -26 -93.501 -28l10 -85h-50z" />
    <glyph glyph-name="sterling" unicode="&#xa3;" 
d="M58 0l0.00195312 48h101v266h-119v48h119v162c0 38.667 8.66699 71 26 97s40.666 45.667 69.999 59s61.666 20 96.999 20c36 0 68.167 -6.66699 96.5 -20s50.833 -33 67.5 -59s25 -58.333 25 -97v-19h-50v13c0 47.333 -13.5 81.5 -40.5 102.5s-59.833 31.5 -98.5 31.5
s-71.5 -10.5 -98.5 -31.5s-40.5 -55.167 -40.5 -102.5v-156h228v-48h-228l-9 -266h320v-48h-466z" />
    <glyph glyph-name="currency" unicode="&#xa4;" 
d="M92 86l-42 42l55 54c-18.667 21.333 -32.167 45.333 -40.5 72s-12.5 54 -12.5 82s4.16699 55.5 12.5 82.5s21.833 50.833 40.5 71.5l-55 54l42 42l56 -56c21.333 18 45 31.5 71 40.5s53 13.5 81 13.5s55.167 -4.5 81.5 -13.5s49.833 -22.5 70.5 -40.5l56 56l42 -42
l-55 -54c18.667 -20.667 32.167 -44.5 40.5 -71.5s12.5 -54.5 12.5 -82.5s-4.16699 -55.333 -12.5 -82s-21.833 -50.667 -40.5 -72l55 -54l-42 -42l-56 56c-20.667 -18 -44.167 -31.5 -70.5 -40.5s-53.5 -13.5 -81.5 -13.5s-55 4.5 -81 13.5s-49.667 22.5 -71 40.5zM300 136
c36 0 69.167 9 99.5 27s54.5 42.167 72.5 72.5s27 63.833 27 100.5s-9 70 -27 100s-42.167 54 -72.5 72s-63.5 27 -99.5 27s-69.167 -9 -99.5 -27s-54.666 -42 -72.999 -72s-27.5 -63.333 -27.5 -100s9.16699 -70.167 27.5 -100.5s42.666 -54.5 72.999 -72.5
s63.5 -27 99.5 -27z" />
    <glyph glyph-name="yen" unicode="&#xa5;" 
d="M273 0v248h-220v47h203l-52 89h-151v49h122l-148 253h63l211 -365h3l214 365h55l-149 -253h123v-49h-151l-52 -89h203v-47h-220v-248h-54z" />
    <glyph glyph-name="brokenbar" unicode="&#xa6;" 
d="M274 360v360h52v-360h-52zM274 -200v360h52v-360h-52z" />
    <glyph glyph-name="section" unicode="&#xa7;" 
d="M294 -185c-33.333 0 -61.8311 4.33203 -85.498 12.999s-42.834 19.834 -57.501 33.501s-25.5 28.667 -32.5 45s-10.5 31.833 -10.5 46.5v6.5c0 2.33301 0.333008 4.83301 1 7.5h50v-13c0 -6 1.33301 -14 4 -24s8.5 -20.333 17.5 -31s23.333 -19.667 43 -27
s46.5 -11 80.5 -11c33.333 0 59.333 3.83301 78 11.5s32.167 17.334 40.5 29.001s13.666 23.167 15.999 34.5s3.5 20.333 3.5 27c0 24.667 -8.33301 45.5 -25 62.5s-38.167 32.333 -64.5 46s-54.166 26.667 -83.499 39s-57.166 25.5 -83.499 39.5s-47.833 30.5 -64.5 49.5
s-25 41.833 -25 68.5c0 33.333 8.16699 60.833 24.5 82.5s42.166 41.834 77.499 60.501c-25.333 15.333 -46.666 33.666 -63.999 54.999s-26 48 -26 80c0 20.667 3.83301 40 11.5 58s19.667 33.833 36 47.5s36.833 24.5 61.5 32.5s54 12 88 12h3
c33.333 0 61.666 -4.33301 84.999 -13s42.333 -19.834 57 -33.501s25.5 -28.5 32.5 -44.5s10.5 -31.667 10.5 -47v-7.5c0 -3 -0.333008 -5.16699 -1 -6.5h-50v13c0 6 -1.33301 14 -4 24s-8.5 20.333 -17.5 31s-23.333 19.667 -43 27s-46.5 11 -80.5 11
c-32.667 0 -58.5 -3.83301 -77.5 -11.5s-32.667 -17.334 -41 -29.001s-13.666 -23 -15.999 -34s-3.5 -20.167 -3.5 -27.5c0 -24.667 8.33301 -45.5 25 -62.5s38.167 -32.333 64.5 -46s54.166 -26.667 83.499 -39s57.166 -25.5 83.499 -39.5s47.833 -30.5 64.5 -49.5
s25 -41.833 25 -68.5c0 -34 -8.33301 -61.667 -25 -83s-42.667 -41.333 -78 -60c26 -15.333 47.667 -33.666 65 -54.999s26 -48 26 -80c0 -20.667 -3.83301 -40 -11.5 -58s-19.667 -33.833 -36 -47.5s-36.833 -24.5 -61.5 -32.5s-54 -12 -88 -12h-2zM368.002 117.999
c11.333 5.33301 23.665 12.666 36.998 21.999s24.833 21.333 34.5 36s14.5 33 14.5 55c0 21.333 -6.83301 39.333 -20.5 54s-31.5 27.834 -53.5 39.501s-46 22.834 -72 33.501s-51.333 22 -76 34c-11.333 -5.33301 -23.666 -12.5 -36.999 -21.5
s-24.666 -20.833 -33.999 -35.5s-14 -33 -14 -55c0 -21.333 6.66699 -39.5 20 -54.5s31 -28.333 53 -40s46 -22.834 72 -33.501s51.333 -22 76 -34z" />
    <glyph glyph-name="dieresis" unicode="&#xa8;" 
d="M163 621v74h65v-74h-65zM370 621v74h65v-74h-65z" />
    <glyph glyph-name="copyright" unicode="&#xa9;" 
d="M304 129c-30 0 -57.334 5.50098 -82.001 16.501s-44.334 28.667 -59.001 53s-22 56.166 -22 95.499v99c0 39.333 7.33301 71 22 95s34.334 41.667 59.001 53s52 17 82 17c29.333 0 56 -5.66699 80 -17s43.167 -29 57.5 -53s21.5 -55.333 21.5 -94h-36
c0 42.667 -11.167 74.667 -33.5 96s-52.166 32 -89.499 32c-34 0 -63 -9.83301 -87 -29.5s-36 -50.167 -36 -91.5v-114c0 -42.667 12 -73.667 36 -93s53 -29 87 -29c36 0 65.667 10.5 89 31.5s35 52.833 35 95.5h35c0 -38 -7.16699 -69 -21.5 -93s-33.5 -41.667 -57.5 -53
s-50.667 -17 -80 -17zM299.999 -9.99902c-58.667 0 -110 14.833 -154 44.5s-78.333 71 -103 124s-37 114.833 -37 185.5s12.333 132.334 37 185.001s59 93.667 103 123s95.333 44 154 44s110 -14.667 154 -44s78.333 -70.333 103 -123s37 -114.334 37 -185.001
s-12.333 -132.5 -37 -185.5s-59 -94.333 -103 -124s-95.333 -44.5 -154 -44.5zM299.999 14.001c54 0 101 13.667 141 41s71.167 65.833 93.5 115.5s33.5 107.5 33.5 173.5s-11.167 123.5 -33.5 172.5s-53.5 87.167 -93.5 114.5s-87 41 -141 41
c-53.333 0 -100.166 -13.667 -140.499 -41s-71.666 -65.5 -93.999 -114.5s-33.5 -106.5 -33.5 -172.5s11.167 -123.833 33.5 -173.5s53.666 -88.167 93.999 -115.5s87.166 -41 140.499 -41z" />
    <glyph glyph-name="ordfeminine" unicode="&#xaa;" 
d="M255 373c-16.667 0 -32.667 2.5 -48 7.5s-27.833 14 -37.5 27s-14.5 31.5 -14.5 55.5c0 30.667 8.83301 53 26.5 67s42.167 23.167 73.5 27.5s66.666 6.5 105.999 6.5v33c0 23.333 -5.83301 39.666 -17.5 48.999s-30.5 14 -56.5 14
c-22.667 0 -41.834 -4.33301 -57.501 -13s-23.5 -23.334 -23.5 -44.001v-9h-38c-0.666992 2 -1.16699 4.83301 -1.5 8.5s-0.5 5.83398 -0.5 6.50098c0 28.667 11.667 50.5 35 65.5s52 22.5 86 22.5h5c37.333 0 64.833 -7.83301 82.5 -23.5s26.5 -39.167 26.5 -70.5v-178
c0 -5.33301 1.16699 -9.16602 3.5 -11.499s4.83301 -3.5 7.5 -3.5c4 0 9.16699 1.33301 15.5 4s12.833 6 19.5 10v-37c-6 -4.66699 -12.667 -8.16699 -20 -10.5s-15 -3.5 -23 -3.5c-14.667 0 -25.167 4.33301 -31.5 13s-10.166 20.334 -11.499 35.001
c-12.667 -16.667 -27.667 -28.834 -45 -36.501s-37.666 -11.5 -60.999 -11.5zM261 410c24.667 0 47.499 8.16699 68.499 24.5s31.5 42.166 31.5 77.499v15c-33.333 0 -62.5 -1.16699 -87.5 -3.5s-44.333 -8.16602 -58 -17.499s-20.5 -24 -20.5 -44
c0 -18 5.33301 -31.167 16 -39.5s27.334 -12.5 50.001 -12.5z" />
    <glyph glyph-name="guillemotleft" unicode="&#xab;" 
d="M426 163l-124 174l124 174h41l-97 -174l97 -174h-41zM243 163l-123 174l123 174h41l-97 -174l97 -174h-41z" />
    <glyph glyph-name="logicalnot" unicode="&#xac;" 
d="M492 184v192h-448v59h506v-251h-58z" />
    <glyph glyph-name="uni00AD" unicode="&#xad;" 
d="M174 237v62h253v-62h-253z" />
    <glyph glyph-name="registered" unicode="&#xae;" 
d="M300 -10c-58.667 0 -110 14.833 -154 44.5s-78.333 71 -103 124s-37 114.833 -37 185.5s12.333 132.334 37 185.001s59 93.667 103 123s95.333 44 154 44s110 -14.667 154 -44s78.333 -70.333 103 -123s37 -114.334 37 -185.001s-12.333 -132.5 -37 -185.5
s-59 -94.333 -103 -124s-95.333 -44.5 -154 -44.5zM300 14c54 0 101 13.667 141 41s71.167 65.833 93.5 115.5s33.5 107.5 33.5 173.5s-11.167 123.5 -33.5 172.5s-53.5 87.167 -93.5 114.5s-87 41 -141 41c-53.333 0 -100.166 -13.667 -140.499 -41
s-71.666 -65.5 -93.999 -114.5s-33.5 -106.5 -33.5 -172.5s11.167 -123.833 33.5 -173.5s53.666 -88.167 93.999 -115.5s87.166 -41 140.499 -41zM453 134c-10.667 0 -22.001 4.00195 -34.001 12.002s-18 24.333 -18 49c0 45.333 -5 78.833 -15 100.5s-31 32.5 -63 32.5
h-118v-193h-41v412h169c34.667 0 62.5 -10 83.5 -30s31.5 -46.667 31.5 -80c0 -18 -6 -36.5 -18 -55.5s-28 -31.167 -48 -36.5c6.66699 -2.66699 14.667 -7.83398 24 -15.501s17.5 -19.5 24.5 -35.5s10.5 -37.667 10.5 -65c0 -22 1.33301 -39 4 -51s11.667 -21 27 -27v-14
c-2.66699 -0.666992 -5.66699 -1.33398 -9 -2.00098s-6.66602 -1 -9.99902 -1zM204.999 363.002h128c22 0 39.833 6.83301 53.5 20.5s20.5 31.5 20.5 53.5s-6.83301 39.833 -20.5 53.5s-31.5 20.5 -53.5 20.5h-128v-148z" />
    <glyph glyph-name="macron" unicode="&#xaf;" 
d="M151 633v44h298v-44h-298z" />
    <glyph glyph-name="degree" unicode="&#xb0;" 
d="M300 396c-45.333 0 -82 13.833 -110 41.5s-42 63.834 -42 108.501c0 45.333 14 81.666 42 108.999s64.667 41 110 41s82 -13.667 110 -41s42 -63.666 42 -108.999c0 -44.667 -14 -80.834 -42 -108.501s-64.667 -41.5 -110 -41.5zM300 440
c31.333 0 56.666 9.66699 75.999 29s29 45 29 77s-9.66699 57.667 -29 77s-44.666 29 -75.999 29s-56.666 -9.66699 -75.999 -29s-29 -45 -29 -77s9.66699 -57.667 29 -77s44.666 -29 75.999 -29z" />
    <glyph glyph-name="plusminus" unicode="&#xb1;" 
d="M270 120v166h-226v58h226v167h60v-167h226v-58h-226v-166h-60zM50 0v58h500v-58h-500z" />
    <glyph glyph-name="uni00B2" unicode="&#xb2;" 
d="M169 422l0.000976562 18.998c0 22.667 5.33301 41.334 16 56.001s25 28 43 40l107 71c11.333 7.33301 21.666 17.333 30.999 30s14 28.334 14 47.001c0 24 -7 43.667 -21 59s-34 23 -60 23c-24.667 0 -45 -8 -61 -24s-24 -36 -24 -60v-9
c0 -3.33301 0.333008 -6.66602 1 -9.99902h-41c-0.666992 2.66699 -1 5.66699 -1 9v6c0 38 12.333 68.5 37 91.5s54.334 34.5 89.001 34.5c38 0 67.833 -11.333 89.5 -34s32.5 -50.667 32.5 -84c0 -29.333 -7 -52.833 -21 -70.5s-29.333 -32.167 -46 -43.5l-112 -75
c-10.667 -6.66699 -17.834 -13.334 -21.501 -20.001s-5.5 -12.667 -5.5 -18h208v-38h-254z" />
    <glyph glyph-name="uni00B3" unicode="&#xb3;" 
d="M296 413c-36.667 0 -67.166 9.83496 -91.499 29.502s-36.5 45.834 -36.5 78.501v15h40v-16c0 -22 8.16699 -39.333 24.5 -52s37.5 -19 63.5 -19c25.333 0 46.333 6.16699 63 18.5s25 29.833 25 52.5c0 25.333 -8.66699 43.833 -26 55.5s-38 17.5 -62 17.5h-47v37h44
c22.667 0 42.167 5.33301 58.5 16s24.5 27.334 24.5 50.001c0 23.333 -7.83301 40.5 -23.5 51.5s-34.5 16.5 -56.5 16.5c-22.667 0 -41.667 -6 -57 -18s-23 -28.667 -23 -50v-13h-40v13c0 33.333 11.667 59.166 35 77.499s51.666 27.5 84.999 27.5
s61.833 -8.83301 85.5 -26.5s35.5 -43.834 35.5 -78.501c0 -22.667 -6 -40.834 -18 -54.501s-23.333 -22.834 -34 -27.501c17.333 -7.33301 31.5 -18.833 42.5 -34.5s16.5 -35.167 16.5 -58.5c0 -34 -12.667 -60.5 -38 -79.5s-55.333 -28.5 -90 -28.5z" />
    <glyph glyph-name="acute" unicode="&#xb4;" 
d="M230 592l75 155h65v-3l-90 -152h-50z" />
    <glyph glyph-name="uni00B5" unicode="&#xb5;" 
d="M90 -161v672.001h51v-314c0 -54 12.333 -94.333 37 -121s59.667 -40 105 -40c30.667 0 57.5 7.83301 80.5 23.5s41.167 36.5 54.5 62.5s20 54.333 20 85v304h51v-442c0 -10.667 2.83301 -18.834 8.5 -24.501s13.834 -8.5 24.501 -8.5c7.33301 0 15.333 1 24 3
s17.667 6.33301 27 13v-43c-8.66699 -6.66699 -18 -11.5 -28 -14.5s-21 -4.5 -33 -4.5c-20 0 -35 3.83301 -45 11.5s-16.833 18.667 -20.5 33s-5.83398 31.5 -6.50098 51.5c-15.333 -34 -38.333 -58.5 -69 -73.5s-62.667 -22.5 -96 -22.5c-24.667 0 -50.167 5 -76.5 15
s-47.5 25.333 -63.5 46c2 -6 3.5 -15.333 4.5 -28s1.5 -26.667 1.5 -42v-142h-51z" />
    <glyph glyph-name="paragraph" unicode="&#xb6;" 
d="M237 -174l-0.00195312 423.001c-35.333 5.33301 -67.166 18.166 -95.499 38.499s-50.666 46 -66.999 77s-24.5 64.833 -24.5 101.5c0 45.333 9.83301 84.333 29.5 117s46.167 58 79.5 76s70 27 110 27h210v-49h-66v-811h-52v811h-72v-811h-52z" />
    <glyph glyph-name="periodcentered" unicode="&#xb7;" 
d="M250 330v95h100v-95h-100z" />
    <glyph glyph-name="cedilla" unicode="&#xb8;" 
d="M280 -207c-12.667 0 -25.835 1.00098 -39.502 3.00098s-26.5 5.33301 -38.5 10v46c4.66699 -2 10.167 -4 16.5 -6s14 -3.66699 23 -5s18.833 -2 29.5 -2c18.667 0 36 3.66699 52 11s24 21.666 24 42.999c0 15.333 -6.33301 26.833 -19 34.5s-25.667 11.5 -39 11.5h-22v34
h25c18 0 35.167 -2.66699 51.5 -8s29.5 -14.333 39.5 -27s15 -30.667 15 -54c0 -24 -6.66699 -42.667 -20 -56s-29.166 -22.5 -47.499 -27.5s-35.166 -7.5 -50.499 -7.5z" />
    <glyph glyph-name="uni00B9" unicode="&#xb9;" 
d="M177 422l-0.000976562 37.999h102v285h-102v29c21.333 1.33301 40.333 3.33301 57 6s38.334 8.33398 65.001 17.001h22v-337h77v-38h-221z" />
    <glyph glyph-name="ordmasculine" unicode="&#xba;" 
d="M299 377c-38 0 -69.333 13.5 -94 40.5s-37 65.5 -37 115.5v9c0 50 12.333 88.5 37 115.5s56 40.5 94 40.5c39.333 0 71.333 -13.5 96 -40.5s37 -65.5 37 -115.5v-9c0 -50 -12.333 -88.5 -37 -115.5s-56.667 -40.5 -96 -40.5zM299 413c26 0 47.833 9.5 65.5 28.5
s26.5 48.5 26.5 88.5v15c0 39.333 -8.83301 68.5 -26.5 87.5s-39.5 28.5 -65.5 28.5c-25.333 0 -46.833 -9.5 -64.5 -28.5s-26.5 -48.167 -26.5 -87.5v-15c0 -40 8.83301 -69.5 26.5 -88.5s39.167 -28.5 64.5 -28.5z" />
    <glyph glyph-name="guillemotright" unicode="&#xbb;" 
d="M174 511l124 -174l-124 -174h-41l97 174l-97 174h41zM357 511l123 -174l-123 -174h-41l97 174l-97 174h41z" />
    <glyph glyph-name="onequarter" unicode="&#xbc;" 
d="M0 312l-0.000976562 37.999h102v285h-102v29c21.333 1.33301 40.333 3.33301 57 6s38.334 8.33398 65.001 17.001h22v-337h77v-38h-221zM-0.000976562 -0.000976562l226 280h46l-212 -280h-60zM328.999 405.999l214 280h57l-226 -280h-45zM515.999 -0.000976562
l0.00195312 97.999h-181v34c5.33301 6 13.166 17.833 23.499 35.5s21.833 38.5 34.5 62.5s25 48.667 37 74s22 49 30 71h43c-7.33301 -21.333 -16 -43.5 -26 -66.5s-20.5 -45.667 -31.5 -68s-21.833 -42.666 -32.5 -60.999s-20.334 -33.166 -29.001 -44.499h132v130
c2.66699 4.66699 5.16699 9.5 7.5 14.5l7 15.5c2.33301 5.33301 4.5 10.666 6.5 15.999h20v-176h43v-37h-43v-98h-41z" />
    <glyph glyph-name="onehalf" unicode="&#xbd;" 
d="M0 312l-0.000976562 37.999h102v285h-102v29c21.333 1.33301 40.333 3.33301 57 6s38.334 8.33398 65.001 17.001h22v-337h77v-38h-221zM-7.00098 -0.000976562l226 280h46l-212 -280h-60zM321.999 405.999l214 280h57l-226 -280h-45zM345.999 -0.000976562
l0.000976562 18.998c0 22.667 5.33301 41.334 16 56.001s25 28 43 40l107 71c11.333 7.33301 21.666 17.333 30.999 30s14 28.334 14 47.001c0 24 -7 43.667 -21 59s-34 23 -60 23c-24.667 0 -45 -8 -61 -24s-24 -36 -24 -60v-9c0 -3.33301 0.333008 -6.66602 1 -9.99902
h-41c-0.666992 2.66699 -1 5.66699 -1 9v6c0 38 12.333 68.5 37 91.5s54.334 34.5 89.001 34.5c38 0 67.833 -11.333 89.5 -34s32.5 -50.667 32.5 -84c0 -29.333 -7 -52.833 -21 -70.5s-29.333 -32.167 -46 -43.5l-112 -75
c-10.667 -6.66699 -17.834 -13.334 -21.501 -20.001s-5.5 -12.667 -5.5 -18h208v-38h-254z" />
    <glyph glyph-name="threequarters" unicode="&#xbe;" 
d="M128 308c-36.667 0 -67.166 9.83496 -91.499 29.502s-36.5 45.834 -36.5 78.501v15h40v-16c0 -22 8.16699 -39.333 24.5 -52s37.5 -19 63.5 -19c25.333 0 46.333 6.16699 63 18.5s25 29.833 25 52.5c0 25.333 -8.66699 43.833 -26 55.5s-38 17.5 -62 17.5h-47v37h44
c22.667 0 42.167 5.33301 58.5 16s24.5 27.334 24.5 50.001c0 23.333 -7.83301 40.5 -23.5 51.5s-34.5 16.5 -56.5 16.5c-22.667 0 -41.667 -6 -57 -18s-23 -28.667 -23 -50v-13h-40v13c0 33.333 11.667 59.166 35 77.499s51.666 27.5 84.999 27.5
s61.833 -8.83301 85.5 -26.5s35.5 -43.834 35.5 -78.501c0 -22.667 -6 -40.834 -18 -54.501s-23.333 -22.834 -34 -27.501c17.333 -7.33301 31.5 -18.833 42.5 -34.5s16.5 -35.167 16.5 -58.5c0 -34 -12.667 -60.5 -38 -79.5s-55.333 -28.5 -90 -28.5z
M0.000976562 0.00195312l226 280h46l-212 -280h-60zM329.001 406.002l214 280h57l-226 -280h-45zM516.001 0.00195312l0.00195312 97.999h-181v34c5.33301 6 13.166 17.833 23.499 35.5s21.833 38.5 34.5 62.5s25 48.667 37 74s22 49 30 71h43
c-7.33301 -21.333 -16 -43.5 -26 -66.5s-20.5 -45.667 -31.5 -68s-21.833 -42.666 -32.5 -60.999s-20.334 -33.166 -29.001 -44.499h132v130c2.66699 4.66699 5.16699 9.5 7.5 14.5l7 15.5c2.33301 5.33301 4.5 10.666 6.5 15.999h20v-176h43v-37h-43v-98h-41z" />
    <glyph glyph-name="questiondown" unicode="&#xbf;" 
d="M313 344l-0.000976562 -77.0029c0 -24.667 -5.33301 -45.167 -16 -61.5s-23.834 -31 -39.501 -44l-47 -40.5c-15.667 -14 -28.834 -30.667 -39.501 -50s-16 -43.666 -16 -72.999c0 -10 1.66699 -22.667 5 -38s9.66602 -30.333 18.999 -45s23.166 -27 41.499 -37
s42.5 -15 72.5 -15c34.667 0 62.167 6.16699 82.5 18.5s35.5 27.5 45.5 45.5s16.5 35.333 19.5 52s4.5 29.334 4.5 38.001c0 3.33301 -0.333008 8 -1 14s-1.33398 11 -2.00098 15h54c0.666992 -2 1.33398 -5.66699 2.00098 -11s1 -12.666 1 -21.999
c0 -6 -1.16699 -16.667 -3.5 -32s-7.16602 -32.5 -14.499 -51.5s-18.333 -37.167 -33 -54.5s-34.5 -31.833 -59.5 -43.5s-56.5 -17.5 -94.5 -17.5s-69 5.66699 -93 17s-42.833 25.5 -56.5 42.5s-23.667 34.333 -30 52s-10.166 33 -11.499 46s-2 21.167 -2 24.5
c0 35.333 5.33301 64.333 16 87s23.834 41.5 39.501 56.5s31.334 28.833 47.001 41.5s28.834 26.5 39.501 41.5s16 34.167 16 57.5v64h54zM335.999 510.997v-95h-100v95h100z" />
    <glyph glyph-name="Agrave" unicode="&#xc0;" 
d="M20 0l252 686h56l252 -686h-58l-222 612h-4l-220 -612h-56zM117 170v49h364v-49h-364zM278 756l-119 132v3h67l105 -135h-53z" />
    <glyph glyph-name="Aacute" unicode="&#xc1;" 
d="M20 0l252 686h56l252 -686h-58l-222 612h-4l-220 -612h-56zM117 170v49h364v-49h-364zM264 756l105 135h67v-3l-119 -132h-53z" />
    <glyph glyph-name="Acircumflex" unicode="&#xc2;" 
d="M20 0l252 686h56l252 -686h-58l-222 612h-4l-220 -612h-56zM117 170v49h364v-49h-364zM146 761l122 122h62l122 -122h-66l-98 99h22l-98 -99h-66z" />
    <glyph glyph-name="Atilde" unicode="&#xc3;" 
d="M20 0l252 686h56l252 -686h-58l-222 612h-4l-220 -612h-56zM117 170v49h364v-49h-364zM139 780c1.33301 13.333 5.16895 26.666 11.502 39.999s16 24.5 29 33.5s29.5 13.5 49.5 13.5c19.333 0 37.5 -3.66699 54.5 -11s33.167 -14.666 48.5 -21.999s29.333 -11 42 -11
c14 0 25 4 33 12s13.333 18.333 16 31h38c-0.666992 -13.333 -4.33398 -26.666 -11.001 -39.999s-16.334 -24.5 -29.001 -33.5s-28.667 -13.5 -48 -13.5c-18.667 0 -36.5 3.66699 -53.5 11s-33.167 14.666 -48.5 21.999s-30 11 -44 11c-14.667 0 -26 -3.83301 -34 -11.5
s-13.333 -18.167 -16 -31.5h-38z" />
    <glyph glyph-name="Adieresis" unicode="&#xc4;" 
d="M20 0l252 686h56l252 -686h-58l-222 612h-4l-220 -612h-56zM117 170v49h364v-49h-364zM165 784v74h65v-74h-65zM372 784v74h65v-74h-65z" />
    <glyph glyph-name="Aring" unicode="&#xc5;" 
d="M20 0l252 686h56l252 -686h-58l-222 612h-4l-220 -612h-56zM117 170v49h364v-49h-364zM300 743c-30.667 0 -55.834 9.5 -75.501 28.5s-29.5 42.833 -29.5 71.5c0 29.333 9.83301 53.5 29.5 72.5s44.834 28.5 75.501 28.5s55.834 -9.5 75.501 -28.5
s29.5 -43.167 29.5 -72.5c0 -28.667 -9.83301 -52.5 -29.5 -71.5s-44.834 -28.5 -75.501 -28.5zM300 781c18.667 0 33.834 5.83301 45.501 17.5s17.5 26.5 17.5 44.5c0 18.667 -5.83301 33.834 -17.5 45.501s-26.834 17.5 -45.501 17.5s-33.834 -5.83301 -45.501 -17.5
s-17.5 -26.834 -17.5 -45.501c0 -18 5.83301 -32.833 17.5 -44.5s26.834 -17.5 45.501 -17.5z" />
    <glyph glyph-name="AE" unicode="&#xc6;" 
d="M0 0l274 686h301l-12 -48h-199v-264h160v-48h-160v-278h209l11 -48h-274v638h-4l-250 -638h-56zM103 170v49h234v-49h-234z" />
    <glyph glyph-name="Ccedilla" unicode="&#xc7;" 
d="M300 -10c-34 0 -65.8301 4.66699 -95.4971 14s-55.834 25.666 -78.501 48.999s-40.334 55.833 -53.001 97.5s-19 94.834 -19 159.501v66c0 64.667 6.5 117.834 19.5 159.501s31 74.167 54 97.5s49.167 39.666 78.5 48.999s60 14 92 14h3
c54 0 99.167 -9.83301 135.5 -29.5s63.5 -48.834 81.5 -87.501s27 -87 27 -145h-53c0 50.667 -6.66699 91.667 -20 123s-34 54.333 -62 69s-64.667 22 -110 22c-26.667 0 -51.5 -3.66699 -74.5 -11s-43.333 -20.5 -61 -39.5s-31.5 -45.5 -41.5 -79.5s-15 -77.333 -15 -130
v-90c0 -52.667 5 -96 15 -130s23.833 -60.5 41.5 -79.5s38 -32.167 61 -39.5s47.833 -11 74.5 -11c67.333 0 116.166 16.833 146.499 50.5s45.5 87.834 45.5 162.501h53c0 -57.333 -9 -105.5 -27 -144.5s-45 -68.167 -81 -87.5s-80.667 -29 -134 -29h-3zM280.003 -207
c-12.667 0 -25.835 1.00098 -39.502 3.00098s-26.5 5.33301 -38.5 10v46c4.66699 -2 10.167 -4 16.5 -6s14 -3.66699 23 -5s18.833 -2 29.5 -2c18.667 0 36 3.66699 52 11s24 21.666 24 42.999c0 15.333 -6.33301 26.833 -19 34.5s-25.667 11.5 -39 11.5h-22v34h25
c18 0 35.167 -2.66699 51.5 -8s29.5 -14.333 39.5 -27s15 -30.667 15 -54c0 -24 -6.66699 -42.667 -20 -56s-29.166 -22.5 -47.499 -27.5s-35.166 -7.5 -50.499 -7.5z" />
    <glyph glyph-name="Egrave" unicode="&#xc8;" 
d="M100 0v686h424l-10 -48h-360v-264h319v-48h-319v-278h369l11 -48h-434zM288 756l-119 132v3h67l105 -135h-53z" />
    <glyph glyph-name="Eacute" unicode="&#xc9;" 
d="M100 0v686h424l-10 -48h-360v-264h319v-48h-319v-278h369l11 -48h-434zM274 756l105 135h67v-3l-119 -132h-53z" />
    <glyph glyph-name="Ecircumflex" unicode="&#xca;" 
d="M100 0v686h424l-10 -48h-360v-264h319v-48h-319v-278h369l11 -48h-434zM156 761l122 122h62l122 -122h-66l-98 99h22l-98 -99h-66z" />
    <glyph glyph-name="Edieresis" unicode="&#xcb;" 
d="M100 0v686h424l-10 -48h-360v-264h319v-48h-319v-278h369l11 -48h-434zM175 784v74h65v-74h-65zM382 784v74h65v-74h-65z" />
    <glyph glyph-name="Igrave" unicode="&#xcc;" 
d="M134 0v49h139v588h-139v49h332v-49h-139v-588h139v-49h-332zM278 756l-119 132v3h67l105 -135h-53z" />
    <glyph glyph-name="Iacute" unicode="&#xcd;" 
d="M134 0v49h139v588h-139v49h332v-49h-139v-588h139v-49h-332zM264 756l105 135h67v-3l-119 -132h-53z" />
    <glyph glyph-name="Icircumflex" unicode="&#xce;" 
d="M134 0v49h139v588h-139v49h332v-49h-139v-588h139v-49h-332zM146 761l122 122h62l122 -122h-66l-98 99h22l-98 -99h-66z" />
    <glyph glyph-name="Idieresis" unicode="&#xcf;" 
d="M134 0v49h139v588h-139v49h332v-49h-139v-588h139v-49h-332zM165 784v74h65v-74h-65zM372 784v74h65v-74h-65z" />
    <glyph glyph-name="Eth" unicode="&#xd0;" 
d="M90 0v685.999h220c36.667 0 71.167 -4.83301 103.5 -14.5s60.666 -26.167 84.999 -49.5s43.333 -55 57 -95s20.5 -90.333 20.5 -151v-65c0 -60 -6.83301 -110.167 -20.5 -150.5s-32.667 -72.166 -57 -95.499s-52.666 -40 -84.999 -50s-66.833 -15 -103.5 -15h-220z
M144 47.999h166c39.333 0 75 7.16699 107 21.5s57.5 39.833 76.5 76.5s28.5 88.667 28.5 156v83c0 65.333 -9.5 116.333 -28.5 153s-44.5 62.5 -76.5 77.5s-67.667 22.5 -107 22.5h-166v-590zM0 319.999v45h350v-45h-350z" />
    <glyph glyph-name="Ntilde" unicode="&#xd1;" 
d="M90 0v686h60l261 -498l44 -88h3v586h52v-686h-60l-272 514l-33 72h-3v-586h-52zM139 780c1.33301 13.333 5.16895 26.666 11.502 39.999s16 24.5 29 33.5s29.5 13.5 49.5 13.5c19.333 0 37.5 -3.66699 54.5 -11s33.167 -14.666 48.5 -21.999s29.333 -11 42 -11
c14 0 25 4 33 12s13.333 18.333 16 31h38c-0.666992 -13.333 -4.33398 -26.666 -11.001 -39.999s-16.334 -24.5 -29.001 -33.5s-28.667 -13.5 -48 -13.5c-18.667 0 -36.5 3.66699 -53.5 11s-33.167 14.666 -48.5 21.999s-30 11 -44 11c-14.667 0 -26 -3.83301 -34 -11.5
s-13.333 -18.167 -16 -31.5h-38z" />
    <glyph glyph-name="Ograve" unicode="&#xd2;" 
d="M300 -10c-34 0 -65.833 4.66797 -95.5 14.001s-55.834 25.666 -78.501 48.999s-40.334 55.833 -53.001 97.5s-19 94.834 -19 159.501v66c0 64.667 6.5 117.834 19.5 159.501s31 74.167 54 97.5s49.167 39.666 78.5 48.999s60 14 92 14h3c34 0 65.833 -4.66699 95.5 -14
s55.667 -25.833 78 -49.5s39.833 -56.334 52.5 -98.001s19 -94.5 19 -158.5v-66c0 -64 -6.33301 -116.833 -19 -158.5s-30.167 -74.167 -52.5 -97.5s-48.166 -39.833 -77.499 -49.5s-60.666 -14.5 -93.999 -14.5h-3zM300 38.001c26.667 0 51.5 3.66699 74.5 11
s43.333 20.5 61 39.5s31.5 45.5 41.5 79.5s15 77.333 15 130v90c0 52.667 -5 96 -15 130s-23.833 60.5 -41.5 79.5s-38 32.167 -61 39.5s-47.833 11 -74.5 11s-51.5 -3.66699 -74.5 -11s-43.333 -20.5 -61 -39.5s-31.5 -45.5 -41.5 -79.5s-15 -77.333 -15 -130v-90
c0 -52.667 5 -96 15 -130s23.833 -60.5 41.5 -79.5s38 -32.167 61 -39.5s47.833 -11 74.5 -11zM278 756.001l-119 132v3h67l105 -135h-53z" />
    <glyph glyph-name="Oacute" unicode="&#xd3;" 
d="M300 -10c-34 0 -65.833 4.66797 -95.5 14.001s-55.834 25.666 -78.501 48.999s-40.334 55.833 -53.001 97.5s-19 94.834 -19 159.501v66c0 64.667 6.5 117.834 19.5 159.501s31 74.167 54 97.5s49.167 39.666 78.5 48.999s60 14 92 14h3c34 0 65.833 -4.66699 95.5 -14
s55.667 -25.833 78 -49.5s39.833 -56.334 52.5 -98.001s19 -94.5 19 -158.5v-66c0 -64 -6.33301 -116.833 -19 -158.5s-30.167 -74.167 -52.5 -97.5s-48.166 -39.833 -77.499 -49.5s-60.666 -14.5 -93.999 -14.5h-3zM300 38.001c26.667 0 51.5 3.66699 74.5 11
s43.333 20.5 61 39.5s31.5 45.5 41.5 79.5s15 77.333 15 130v90c0 52.667 -5 96 -15 130s-23.833 60.5 -41.5 79.5s-38 32.167 -61 39.5s-47.833 11 -74.5 11s-51.5 -3.66699 -74.5 -11s-43.333 -20.5 -61 -39.5s-31.5 -45.5 -41.5 -79.5s-15 -77.333 -15 -130v-90
c0 -52.667 5 -96 15 -130s23.833 -60.5 41.5 -79.5s38 -32.167 61 -39.5s47.833 -11 74.5 -11zM264 756.001l105 135h67v-3l-119 -132h-53z" />
    <glyph glyph-name="Ocircumflex" unicode="&#xd4;" 
d="M300 -10c-34 0 -65.833 4.66797 -95.5 14.001s-55.834 25.666 -78.501 48.999s-40.334 55.833 -53.001 97.5s-19 94.834 -19 159.501v66c0 64.667 6.5 117.834 19.5 159.501s31 74.167 54 97.5s49.167 39.666 78.5 48.999s60 14 92 14h3c34 0 65.833 -4.66699 95.5 -14
s55.667 -25.833 78 -49.5s39.833 -56.334 52.5 -98.001s19 -94.5 19 -158.5v-66c0 -64 -6.33301 -116.833 -19 -158.5s-30.167 -74.167 -52.5 -97.5s-48.166 -39.833 -77.499 -49.5s-60.666 -14.5 -93.999 -14.5h-3zM300 38.001c26.667 0 51.5 3.66699 74.5 11
s43.333 20.5 61 39.5s31.5 45.5 41.5 79.5s15 77.333 15 130v90c0 52.667 -5 96 -15 130s-23.833 60.5 -41.5 79.5s-38 32.167 -61 39.5s-47.833 11 -74.5 11s-51.5 -3.66699 -74.5 -11s-43.333 -20.5 -61 -39.5s-31.5 -45.5 -41.5 -79.5s-15 -77.333 -15 -130v-90
c0 -52.667 5 -96 15 -130s23.833 -60.5 41.5 -79.5s38 -32.167 61 -39.5s47.833 -11 74.5 -11zM146 761.001l122 122h62l122 -122h-66l-98 99h22l-98 -99h-66z" />
    <glyph glyph-name="Otilde" unicode="&#xd5;" 
d="M300 -10c-34 0 -65.833 4.66797 -95.5 14.001s-55.834 25.666 -78.501 48.999s-40.334 55.833 -53.001 97.5s-19 94.834 -19 159.501v66c0 64.667 6.5 117.834 19.5 159.501s31 74.167 54 97.5s49.167 39.666 78.5 48.999s60 14 92 14h3c34 0 65.833 -4.66699 95.5 -14
s55.667 -25.833 78 -49.5s39.833 -56.334 52.5 -98.001s19 -94.5 19 -158.5v-66c0 -64 -6.33301 -116.833 -19 -158.5s-30.167 -74.167 -52.5 -97.5s-48.166 -39.833 -77.499 -49.5s-60.666 -14.5 -93.999 -14.5h-3zM300 38.001c26.667 0 51.5 3.66699 74.5 11
s43.333 20.5 61 39.5s31.5 45.5 41.5 79.5s15 77.333 15 130v90c0 52.667 -5 96 -15 130s-23.833 60.5 -41.5 79.5s-38 32.167 -61 39.5s-47.833 11 -74.5 11s-51.5 -3.66699 -74.5 -11s-43.333 -20.5 -61 -39.5s-31.5 -45.5 -41.5 -79.5s-15 -77.333 -15 -130v-90
c0 -52.667 5 -96 15 -130s23.833 -60.5 41.5 -79.5s38 -32.167 61 -39.5s47.833 -11 74.5 -11zM139 780.001c1.33301 13.333 5.16895 26.666 11.502 39.999s16 24.5 29 33.5s29.5 13.5 49.5 13.5c19.333 0 37.5 -3.66699 54.5 -11s33.167 -14.666 48.5 -21.999
s29.333 -11 42 -11c14 0 25 4 33 12s13.333 18.333 16 31h38c-0.666992 -13.333 -4.33398 -26.666 -11.001 -39.999s-16.334 -24.5 -29.001 -33.5s-28.667 -13.5 -48 -13.5c-18.667 0 -36.5 3.66699 -53.5 11s-33.167 14.666 -48.5 21.999s-30 11 -44 11
c-14.667 0 -26 -3.83301 -34 -11.5s-13.333 -18.167 -16 -31.5h-38z" />
    <glyph glyph-name="Odieresis" unicode="&#xd6;" 
d="M300 -10c-34 0 -65.833 4.66797 -95.5 14.001s-55.834 25.666 -78.501 48.999s-40.334 55.833 -53.001 97.5s-19 94.834 -19 159.501v66c0 64.667 6.5 117.834 19.5 159.501s31 74.167 54 97.5s49.167 39.666 78.5 48.999s60 14 92 14h3c34 0 65.833 -4.66699 95.5 -14
s55.667 -25.833 78 -49.5s39.833 -56.334 52.5 -98.001s19 -94.5 19 -158.5v-66c0 -64 -6.33301 -116.833 -19 -158.5s-30.167 -74.167 -52.5 -97.5s-48.166 -39.833 -77.499 -49.5s-60.666 -14.5 -93.999 -14.5h-3zM300 38.001c26.667 0 51.5 3.66699 74.5 11
s43.333 20.5 61 39.5s31.5 45.5 41.5 79.5s15 77.333 15 130v90c0 52.667 -5 96 -15 130s-23.833 60.5 -41.5 79.5s-38 32.167 -61 39.5s-47.833 11 -74.5 11s-51.5 -3.66699 -74.5 -11s-43.333 -20.5 -61 -39.5s-31.5 -45.5 -41.5 -79.5s-15 -77.333 -15 -130v-90
c0 -52.667 5 -96 15 -130s23.833 -60.5 41.5 -79.5s38 -32.167 61 -39.5s47.833 -11 74.5 -11zM165 784.001v74h65v-74h-65zM372 784.001v74h65v-74h-65z" />
    <glyph glyph-name="multiply" unicode="&#xd7;" 
d="M140 54l-41 41l160 160l-160 161l41 41l160 -161l161 161l41 -41l-161 -161l160 -160l-41 -41l-160 160z" />
    <glyph glyph-name="Oslash" unicode="&#xd8;" 
d="M300 -10c-34 0 -65.833 4.66797 -95.5 14.001s-55.834 25.666 -78.501 48.999s-40.334 55.833 -53.001 97.5s-19 94.834 -19 159.501v66c0 64.667 6.5 117.834 19.5 159.501s31 74.167 54 97.5s49.167 39.666 78.5 48.999s60 14 92 14h3c34 0 65.833 -4.66699 95.5 -14
s55.667 -25.833 78 -49.5s39.833 -56.334 52.5 -98.001s19 -94.5 19 -158.5v-66c0 -64 -6.33301 -116.833 -19 -158.5s-30.167 -74.167 -52.5 -97.5s-48.166 -39.833 -77.499 -49.5s-60.666 -14.5 -93.999 -14.5h-3zM300 38.001c26.667 0 51.5 3.66699 74.5 11
s43.333 20.5 61 39.5s31.5 45.5 41.5 79.5s15 77.333 15 130v90c0 52.667 -5 96 -15 130s-23.833 60.5 -41.5 79.5s-38 32.167 -61 39.5s-47.833 11 -74.5 11s-51.5 -3.66699 -74.5 -11s-43.333 -20.5 -61 -39.5s-31.5 -45.5 -41.5 -79.5s-15 -77.333 -15 -130v-90
c0 -52.667 5 -96 15 -130s23.833 -60.5 41.5 -79.5s38 -32.167 61 -39.5s47.833 -11 74.5 -11zM33 -66.999l490 819h44l-489 -819h-45z" />
    <glyph glyph-name="Ugrave" unicode="&#xd9;" 
d="M297 -10c-68 0 -121 20.167 -159 60.5s-57 96.833 -57 169.5v466h54v-466c0 -56.667 14.5 -101.167 43.5 -133.5s69.5 -48.5 121.5 -48.5s92.5 16.167 121.5 48.5s43.5 76.833 43.5 133.5v466h54v-466c0 -72.667 -19 -129.167 -57 -169.5s-91 -60.5 -159 -60.5h-6z
M278 756l-119 132v3h67l105 -135h-53z" />
    <glyph glyph-name="Uacute" unicode="&#xda;" 
d="M297 -10c-68 0 -121 20.167 -159 60.5s-57 96.833 -57 169.5v466h54v-466c0 -56.667 14.5 -101.167 43.5 -133.5s69.5 -48.5 121.5 -48.5s92.5 16.167 121.5 48.5s43.5 76.833 43.5 133.5v466h54v-466c0 -72.667 -19 -129.167 -57 -169.5s-91 -60.5 -159 -60.5h-6z
M264 756l105 135h67v-3l-119 -132h-53z" />
    <glyph glyph-name="Ucircumflex" unicode="&#xdb;" 
d="M297 -10c-68 0 -121 20.167 -159 60.5s-57 96.833 -57 169.5v466h54v-466c0 -56.667 14.5 -101.167 43.5 -133.5s69.5 -48.5 121.5 -48.5s92.5 16.167 121.5 48.5s43.5 76.833 43.5 133.5v466h54v-466c0 -72.667 -19 -129.167 -57 -169.5s-91 -60.5 -159 -60.5h-6z
M146 761l122 122h62l122 -122h-66l-98 99h22l-98 -99h-66z" />
    <glyph glyph-name="Udieresis" unicode="&#xdc;" 
d="M297 -10c-68 0 -121 20.167 -159 60.5s-57 96.833 -57 169.5v466h54v-466c0 -56.667 14.5 -101.167 43.5 -133.5s69.5 -48.5 121.5 -48.5s92.5 16.167 121.5 48.5s43.5 76.833 43.5 133.5v466h54v-466c0 -72.667 -19 -129.167 -57 -169.5s-91 -60.5 -159 -60.5h-6z
M165 784v74h65v-74h-65zM372 784v74h65v-74h-65z" />
    <glyph glyph-name="Yacute" unicode="&#xdd;" 
d="M273 0v266l-246 420h63l211 -365h3l214 365h55l-246 -420v-266h-54zM264 756l105 135h67v-3l-119 -132h-53z" />
    <glyph glyph-name="Thorn" unicode="&#xde;" 
d="M95 0v686h54v-135h227c34.667 0 66 -8.5 94 -25.5s50.5 -39.5 67.5 -67.5s25.5 -59.333 25.5 -94c0 -34 -8.5 -65.167 -25.5 -93.5s-39.5 -51 -67.5 -68s-59.333 -25.5 -94 -25.5h-227v-177h-54zM149 224h220c26 0 49.667 6.33301 71 19s38.5 29.5 51.5 50.5
s19.5 44.5 19.5 70.5s-6.5 49.5 -19.5 70.5s-30.167 37.667 -51.5 50s-45 18.5 -71 18.5h-220v-279z" />
    <glyph glyph-name="germandbls" unicode="&#xdf;" 
d="M102 -66l-0.00195312 531h-102v46h102c0 68 18.333 121.167 55 159.5s87.667 57.5 153 57.5c39.333 0 73.833 -8.33301 103.5 -25s53 -38.834 70 -66.501s25.5 -58.5 25.5 -92.5c0 -22.667 -4.5 -44.5 -13.5 -65.5s-21.167 -39.5 -36.5 -55.5
s-32.666 -27.667 -51.999 -35l2 -3c35.333 -13.333 64.5 -37 87.5 -71s34.5 -71 34.5 -111c0 -37.333 -9.66699 -71.5 -29 -102.5s-45.166 -55.5 -77.499 -73.5s-68.5 -27 -108.5 -27h-92v46h92c30.667 0 58.334 7 83.001 21s44.334 33 59.001 57s22 50.333 22 79
c0 29.333 -7.33301 55.833 -22 79.5s-34.334 42.667 -59.001 57s-52.334 21.5 -83.001 21.5h-92v46h81c28 0 53.667 6.16699 77 18.5s41.833 28.833 55.5 49.5s20.5 43.667 20.5 69s-6.16699 48.5 -18.5 69.5s-29.5 37.667 -51.5 50s-48 18.5 -78 18.5
c-49.333 0 -87.833 -13.667 -115.5 -41s-41.5 -69.666 -41.5 -126.999v-580h-51z" />
    <glyph glyph-name="agrave" unicode="&#xe0;" 
d="M243 -10c-52.667 0 -92.666 12.499 -119.999 37.499s-41 60.167 -41 105.5c0 39.333 10.667 71 32 95s57 41.333 107 52s117.333 16 202 16v64c0 42 -10 71.667 -30 89s-54.333 26 -103 26c-44.667 0 -79 -9 -103 -27s-36 -43.667 -36 -77v-16h-49
c-1.33301 16 -2.16602 26.333 -2.49902 31s-0.5 6.33398 -0.5 5.00098s0.166992 -3.5 0.5 -6.5s0.5 -4.16699 0.5 -3.5c0 42 17.333 75.833 52 101.5s80.667 38.5 138 38.5c62.667 0 109 -12.333 139 -37s45 -62.667 45 -114v-301c0 -12.667 3.16699 -21.334 9.5 -26.001
s14.5 -7 24.5 -7c18 0 34.667 5.33301 50 16v-43c-8 -6 -17 -10.667 -27 -14s-20.333 -5 -31 -5c-16 0 -29.5 2.5 -40.5 7.5s-19.333 14.333 -25 28s-8.83398 33.834 -9.50098 60.501c-12.667 -25.333 -29.334 -45 -50.001 -59s-42.5 -23.667 -65.5 -29s-45.167 -8 -66.5 -8
zM253.001 35.999c39.333 0 71.5 8.5 96.5 25.5s43.5 39.833 55.5 68.5s18 60.667 18 96v24c-74.667 0 -133 -3.5 -175 -10.5s-71.667 -19 -89 -36s-26 -40.833 -26 -71.5c0 -32 9.5 -56 28.5 -72s49.5 -24 91.5 -24zM280.001 591.999l-90 152v3h65l75 -155h-50z" />
    <glyph glyph-name="aacute" unicode="&#xe1;" 
d="M243 -10c-52.667 0 -92.666 12.499 -119.999 37.499s-41 60.167 -41 105.5c0 39.333 10.667 71 32 95s57 41.333 107 52s117.333 16 202 16v64c0 42 -10 71.667 -30 89s-54.333 26 -103 26c-44.667 0 -79 -9 -103 -27s-36 -43.667 -36 -77v-16h-49
c-1.33301 16 -2.16602 26.333 -2.49902 31s-0.5 6.33398 -0.5 5.00098s0.166992 -3.5 0.5 -6.5s0.5 -4.16699 0.5 -3.5c0 42 17.333 75.833 52 101.5s80.667 38.5 138 38.5c62.667 0 109 -12.333 139 -37s45 -62.667 45 -114v-301c0 -12.667 3.16699 -21.334 9.5 -26.001
s14.5 -7 24.5 -7c18 0 34.667 5.33301 50 16v-43c-8 -6 -17 -10.667 -27 -14s-20.333 -5 -31 -5c-16 0 -29.5 2.5 -40.5 7.5s-19.333 14.333 -25 28s-8.83398 33.834 -9.50098 60.501c-12.667 -25.333 -29.334 -45 -50.001 -59s-42.5 -23.667 -65.5 -29s-45.167 -8 -66.5 -8
zM253.001 35.999c39.333 0 71.5 8.5 96.5 25.5s43.5 39.833 55.5 68.5s18 60.667 18 96v24c-74.667 0 -133 -3.5 -175 -10.5s-71.667 -19 -89 -36s-26 -40.833 -26 -71.5c0 -32 9.5 -56 28.5 -72s49.5 -24 91.5 -24zM251.001 591.999l75 155h65v-3l-90 -152h-50z" />
    <glyph glyph-name="acircumflex" unicode="&#xe2;" 
d="M243 -10c-52.667 0 -92.666 12.499 -119.999 37.499s-41 60.167 -41 105.5c0 39.333 10.667 71 32 95s57 41.333 107 52s117.333 16 202 16v64c0 42 -10 71.667 -30 89s-54.333 26 -103 26c-44.667 0 -79 -9 -103 -27s-36 -43.667 -36 -77v-16h-49
c-1.33301 16 -2.16602 26.333 -2.49902 31s-0.5 6.33398 -0.5 5.00098s0.166992 -3.5 0.5 -6.5s0.5 -4.16699 0.5 -3.5c0 42 17.333 75.833 52 101.5s80.667 38.5 138 38.5c62.667 0 109 -12.333 139 -37s45 -62.667 45 -114v-301c0 -12.667 3.16699 -21.334 9.5 -26.001
s14.5 -7 24.5 -7c18 0 34.667 5.33301 50 16v-43c-8 -6 -17 -10.667 -27 -14s-20.333 -5 -31 -5c-16 0 -29.5 2.5 -40.5 7.5s-19.333 14.333 -25 28s-8.83398 33.834 -9.50098 60.501c-12.667 -25.333 -29.334 -45 -50.001 -59s-42.5 -23.667 -65.5 -29s-45.167 -8 -66.5 -8
zM253.001 35.999c39.333 0 71.5 8.5 96.5 25.5s43.5 39.833 55.5 68.5s18 60.667 18 96v24c-74.667 0 -133 -3.5 -175 -10.5s-71.667 -19 -89 -36s-26 -40.833 -26 -71.5c0 -32 9.5 -56 28.5 -72s49.5 -24 91.5 -24zM138.001 592.999l124 155h58l124 -155h-59l-109 136h30
l-109 -136h-59z" />
    <glyph glyph-name="atilde" unicode="&#xe3;" 
d="M243 -10c-52.667 0 -92.666 12.499 -119.999 37.499s-41 60.167 -41 105.5c0 39.333 10.667 71 32 95s57 41.333 107 52s117.333 16 202 16v64c0 42 -10 71.667 -30 89s-54.333 26 -103 26c-44.667 0 -79 -9 -103 -27s-36 -43.667 -36 -77v-16h-49
c-1.33301 16 -2.16602 26.333 -2.49902 31s-0.5 6.33398 -0.5 5.00098s0.166992 -3.5 0.5 -6.5s0.5 -4.16699 0.5 -3.5c0 42 17.333 75.833 52 101.5s80.667 38.5 138 38.5c62.667 0 109 -12.333 139 -37s45 -62.667 45 -114v-301c0 -12.667 3.16699 -21.334 9.5 -26.001
s14.5 -7 24.5 -7c18 0 34.667 5.33301 50 16v-43c-8 -6 -17 -10.667 -27 -14s-20.333 -5 -31 -5c-16 0 -29.5 2.5 -40.5 7.5s-19.333 14.333 -25 28s-8.83398 33.834 -9.50098 60.501c-12.667 -25.333 -29.334 -45 -50.001 -59s-42.5 -23.667 -65.5 -29s-45.167 -8 -66.5 -8
zM253.001 35.999c39.333 0 71.5 8.5 96.5 25.5s43.5 39.833 55.5 68.5s18 60.667 18 96v24c-74.667 0 -133 -3.5 -175 -10.5s-71.667 -19 -89 -36s-26 -40.833 -26 -71.5c0 -32 9.5 -56 28.5 -72s49.5 -24 91.5 -24zM127.001 615.999
c1.33301 14.667 5.16895 29.667 11.502 45s16 28.166 29 38.499s29.5 15.5 49.5 15.5c19.333 0 37.5 -4.66699 54.5 -14s33.167 -18.666 48.5 -27.999s29.333 -14 42 -14c14 0 25 5 33 15s13.333 23.333 16 40h38c-0.666992 -15.333 -4.33398 -30.666 -11.001 -45.999
s-16.334 -28 -29.001 -38s-28.667 -15 -48 -15c-18.667 0 -36.5 4.66699 -53.5 14s-33.167 18.666 -48.5 27.999s-30 14 -44 14c-14.667 0 -26 -5 -34 -15s-13.333 -23.333 -16 -40h-38z" />
    <glyph glyph-name="adieresis" unicode="&#xe4;" 
d="M243 -10c-52.667 0 -92.666 12.499 -119.999 37.499s-41 60.167 -41 105.5c0 39.333 10.667 71 32 95s57 41.333 107 52s117.333 16 202 16v64c0 42 -10 71.667 -30 89s-54.333 26 -103 26c-44.667 0 -79 -9 -103 -27s-36 -43.667 -36 -77v-16h-49
c-1.33301 16 -2.16602 26.333 -2.49902 31s-0.5 6.33398 -0.5 5.00098s0.166992 -3.5 0.5 -6.5s0.5 -4.16699 0.5 -3.5c0 42 17.333 75.833 52 101.5s80.667 38.5 138 38.5c62.667 0 109 -12.333 139 -37s45 -62.667 45 -114v-301c0 -12.667 3.16699 -21.334 9.5 -26.001
s14.5 -7 24.5 -7c18 0 34.667 5.33301 50 16v-43c-8 -6 -17 -10.667 -27 -14s-20.333 -5 -31 -5c-16 0 -29.5 2.5 -40.5 7.5s-19.333 14.333 -25 28s-8.83398 33.834 -9.50098 60.501c-12.667 -25.333 -29.334 -45 -50.001 -59s-42.5 -23.667 -65.5 -29s-45.167 -8 -66.5 -8
zM253.001 35.999c39.333 0 71.5 8.5 96.5 25.5s43.5 39.833 55.5 68.5s18 60.667 18 96v24c-74.667 0 -133 -3.5 -175 -10.5s-71.667 -19 -89 -36s-26 -40.833 -26 -71.5c0 -32 9.5 -56 28.5 -72s49.5 -24 91.5 -24zM154.001 620.999v74h65v-74h-65zM361.001 620.999v74h65
v-74h-65z" />
    <glyph glyph-name="aring" unicode="&#xe5;" 
d="M243 -10c-52.667 0 -92.666 12.499 -119.999 37.499s-41 60.167 -41 105.5c0 39.333 10.667 71 32 95s57 41.333 107 52s117.333 16 202 16v64c0 42 -10 71.667 -30 89s-54.333 26 -103 26c-44.667 0 -79 -9 -103 -27s-36 -43.667 -36 -77v-16h-49
c-1.33301 16 -2.16602 26.333 -2.49902 31s-0.5 6.33398 -0.5 5.00098s0.166992 -3.5 0.5 -6.5s0.5 -4.16699 0.5 -3.5c0 42 17.333 75.833 52 101.5s80.667 38.5 138 38.5c62.667 0 109 -12.333 139 -37s45 -62.667 45 -114v-301c0 -12.667 3.16699 -21.334 9.5 -26.001
s14.5 -7 24.5 -7c18 0 34.667 5.33301 50 16v-43c-8 -6 -17 -10.667 -27 -14s-20.333 -5 -31 -5c-16 0 -29.5 2.5 -40.5 7.5s-19.333 14.333 -25 28s-8.83398 33.834 -9.50098 60.501c-12.667 -25.333 -29.334 -45 -50.001 -59s-42.5 -23.667 -65.5 -29s-45.167 -8 -66.5 -8
zM253.001 35.999c39.333 0 71.5 8.5 96.5 25.5s43.5 39.833 55.5 68.5s18 60.667 18 96v24c-74.667 0 -133 -3.5 -175 -10.5s-71.667 -19 -89 -36s-26 -40.833 -26 -71.5c0 -32 9.5 -56 28.5 -72s49.5 -24 91.5 -24zM291.001 584.999c-30.667 0 -55.834 9.5 -75.501 28.5
s-29.5 42.833 -29.5 71.5c0 29.333 9.83301 53.5 29.5 72.5s44.834 28.5 75.501 28.5s55.834 -9.5 75.501 -28.5s29.5 -43.167 29.5 -72.5c0 -28.667 -9.83301 -52.5 -29.5 -71.5s-44.834 -28.5 -75.501 -28.5zM291.001 622.999c18.667 0 33.834 5.83301 45.501 17.5
s17.5 26.5 17.5 44.5c0 18.667 -5.83301 33.834 -17.5 45.501s-26.834 17.5 -45.501 17.5s-33.834 -5.83301 -45.501 -17.5s-17.5 -26.5 -17.5 -44.5c0 -18.667 5.83301 -33.834 17.5 -45.501s26.834 -17.5 45.501 -17.5z" />
    <glyph glyph-name="ae" unicode="&#xe6;" 
d="M144 -10c-18 0 -36.502 3.83203 -55.502 11.499s-35.167 21.167 -48.5 40.5s-20 46.333 -20 81c0 31.333 5.5 58 16.5 80s27.167 39.833 48.5 53.5s48.166 23.667 80.499 30s69.833 9.5 112.5 9.5v34c0 96.667 -34.333 145 -103 145c-24 0 -44.333 -8 -61 -24
s-25 -42.667 -25 -80v-16h-49c-0.666992 4 -1.16699 8.16699 -1.5 12.5s-0.5 8.83301 -0.5 13.5c0 30 6.16699 55.5 18.5 76.5s28.833 36.833 49.5 47.5s43.667 16 69 16h4c34.667 0 63 -9 85 -27s36.333 -39.333 43 -64c10.667 28.667 26.834 51 48.501 67s46.5 24 74.5 24
h4c30.667 0 56.834 -9 78.501 -27s38.334 -43.667 50.001 -77s17.5 -73.666 17.5 -120.999v-46h-251c0 -70.667 8.66699 -124 26 -160s43 -54 77 -54c32.667 0 57.167 12.833 73.5 38.5s24.5 63.834 24.5 114.501h50c0 -44 -5.33301 -80.833 -16 -110.5
s-26.667 -51.834 -48 -66.501s-48 -22 -80 -22h-5c-30.667 0 -58.167 9.33301 -82.5 28s-41.5 46.334 -51.5 83.001c-13.333 -36.667 -33.333 -64.334 -60 -83.001s-57.667 -28 -93 -28zM147.998 35.999c26 0 48.832 7.83301 68.499 23.5s34.834 37 45.501 64
s16 57.833 16 92.5v34c-46 0 -84.333 -3.5 -115 -10.5s-53.667 -19.667 -69 -38s-23 -44.833 -23 -79.5c0 -29.333 7.33301 -51 22 -65s33 -21 55 -21zM329.997 295.999h199.999c0 56.667 -8.66699 100.667 -26 132s-41.666 47 -72.999 47c-30.667 0 -54.5 -15 -71.5 -45
s-26.833 -74.667 -29.5 -134z" />
    <glyph glyph-name="ccedilla" unicode="&#xe7;" 
d="M296 -10c-30.667 0 -58.9971 5.66797 -84.9971 17.001s-48.5 28.166 -67.5 50.499s-33.667 49.5 -44 81.5s-15.5 68.333 -15.5 109v15c0 41.333 5.16699 77.833 15.5 109.5s24.833 58.667 43.5 81s41 39.166 67 50.499s54.667 17 86 17h2c37.333 0 71 -8 101 -24
s53.833 -39.333 71.5 -70s26.5 -68.334 26.5 -113.001h-50c0 36.667 -6.83301 66.834 -20.5 90.501s-31.834 41.334 -54.501 53.001s-47.667 17.5 -75 17.5c-46 0 -84.5 -17 -115.5 -51s-46.5 -85.667 -46.5 -155v-27c0 -69.333 15.667 -121 47 -155s70 -51 116 -51
c27.333 0 52.166 5.66699 74.499 17s40.333 29 54 53s20.5 54.333 20.5 91h50c0 -44 -8.83301 -81.5 -26.5 -112.5s-41.334 -54.5 -71.001 -70.5s-63.167 -24 -100.5 -24h-3zM280.003 -206.999c-12.667 0 -25.835 1.00098 -39.502 3.00098s-26.5 5.33301 -38.5 10v46
c4.66699 -2 10.167 -4 16.5 -6s14 -3.66699 23 -5s18.833 -2 29.5 -2c18.667 0 36 3.66699 52 11s24 21.666 24 42.999c0 15.333 -6.33301 26.833 -19 34.5s-25.667 11.5 -39 11.5h-22v34h25c18 0 35.167 -2.66699 51.5 -8s29.5 -14.333 39.5 -27s15 -30.667 15 -54
c0 -24 -6.66699 -42.667 -20 -56s-29.166 -22.5 -47.499 -27.5s-35.166 -7.5 -50.499 -7.5z" />
    <glyph glyph-name="egrave" unicode="&#xe8;" 
d="M297 -10c-48.667 0 -89.0039 11.165 -121.004 33.498s-55.833 53 -71.5 92s-23.5 83.167 -23.5 132.5v15c0 50.667 8.83301 95.334 26.5 134.001s42.834 69 75.501 91s71.334 33 116.001 33c42.667 0 79.334 -9.5 110.001 -28.5s54.5 -44.167 71.5 -75.5
s25.5 -65.666 25.5 -102.999v-64h-374v-8c0 -66.667 15.667 -117.667 47 -153s70.666 -53 117.999 -53c50.667 0 89.834 12.333 117.501 37s41.5 63.334 41.5 116.001h50c0 -40.667 -8.83301 -75.834 -26.5 -105.501s-42.167 -52.667 -73.5 -69
s-67.666 -24.5 -108.999 -24.5zM132.996 295.998l323.001 0.000976562v18c0 30 -6.5 57.167 -19.5 81.5s-31.167 43.666 -54.5 57.999s-51 21.5 -83 21.5c-36.667 0 -67.334 -9.16699 -92.001 -27.5s-43.167 -41 -55.5 -68s-18.5 -54.167 -18.5 -81.5v-2zM294.997 591.999
l-90 152v3h65l75 -155h-50z" />
    <glyph glyph-name="eacute" unicode="&#xe9;" 
d="M297 -10c-48.667 0 -89.0039 11.165 -121.004 33.498s-55.833 53 -71.5 92s-23.5 83.167 -23.5 132.5v15c0 50.667 8.83301 95.334 26.5 134.001s42.834 69 75.501 91s71.334 33 116.001 33c42.667 0 79.334 -9.5 110.001 -28.5s54.5 -44.167 71.5 -75.5
s25.5 -65.666 25.5 -102.999v-64h-374v-8c0 -66.667 15.667 -117.667 47 -153s70.666 -53 117.999 -53c50.667 0 89.834 12.333 117.501 37s41.5 63.334 41.5 116.001h50c0 -40.667 -8.83301 -75.834 -26.5 -105.501s-42.167 -52.667 -73.5 -69
s-67.666 -24.5 -108.999 -24.5zM132.996 295.998l323.001 0.000976562v18c0 30 -6.5 57.167 -19.5 81.5s-31.167 43.666 -54.5 57.999s-51 21.5 -83 21.5c-36.667 0 -67.334 -9.16699 -92.001 -27.5s-43.167 -41 -55.5 -68s-18.5 -54.167 -18.5 -81.5v-2zM265.997 591.999
l75 155h65v-3l-90 -152h-50z" />
    <glyph glyph-name="ecircumflex" unicode="&#xea;" 
d="M297 -10c-48.667 0 -89.0039 11.165 -121.004 33.498s-55.833 53 -71.5 92s-23.5 83.167 -23.5 132.5v15c0 50.667 8.83301 95.334 26.5 134.001s42.834 69 75.501 91s71.334 33 116.001 33c42.667 0 79.334 -9.5 110.001 -28.5s54.5 -44.167 71.5 -75.5
s25.5 -65.666 25.5 -102.999v-64h-374v-8c0 -66.667 15.667 -117.667 47 -153s70.666 -53 117.999 -53c50.667 0 89.834 12.333 117.501 37s41.5 63.334 41.5 116.001h50c0 -40.667 -8.83301 -75.834 -26.5 -105.501s-42.167 -52.667 -73.5 -69
s-67.666 -24.5 -108.999 -24.5zM132.996 295.998l323.001 0.000976562v18c0 30 -6.5 57.167 -19.5 81.5s-31.167 43.666 -54.5 57.999s-51 21.5 -83 21.5c-36.667 0 -67.334 -9.16699 -92.001 -27.5s-43.167 -41 -55.5 -68s-18.5 -54.167 -18.5 -81.5v-2zM152.997 592.999
l124 155h58l124 -155h-59l-109 136h30l-109 -136h-59z" />
    <glyph glyph-name="edieresis" unicode="&#xeb;" 
d="M297 -10c-48.667 0 -89.0039 11.165 -121.004 33.498s-55.833 53 -71.5 92s-23.5 83.167 -23.5 132.5v15c0 50.667 8.83301 95.334 26.5 134.001s42.834 69 75.501 91s71.334 33 116.001 33c42.667 0 79.334 -9.5 110.001 -28.5s54.5 -44.167 71.5 -75.5
s25.5 -65.666 25.5 -102.999v-64h-374v-8c0 -66.667 15.667 -117.667 47 -153s70.666 -53 117.999 -53c50.667 0 89.834 12.333 117.501 37s41.5 63.334 41.5 116.001h50c0 -40.667 -8.83301 -75.834 -26.5 -105.501s-42.167 -52.667 -73.5 -69
s-67.666 -24.5 -108.999 -24.5zM132.996 295.998l323.001 0.000976562v18c0 30 -6.5 57.167 -19.5 81.5s-31.167 43.666 -54.5 57.999s-51 21.5 -83 21.5c-36.667 0 -67.334 -9.16699 -92.001 -27.5s-43.167 -41 -55.5 -68s-18.5 -54.167 -18.5 -81.5v-2zM168.997 620.999
v74h65v-74h-65zM375.997 620.999v74h65v-74h-65z" />
    <glyph glyph-name="igrave" unicode="&#xec;" 
d="M299 0v465h-195v46h246v-511h-51zM104 0v46h436v-46h-436zM309 592l-90 152v3h65l75 -155h-50z" />
    <glyph glyph-name="iacute" unicode="&#xed;" 
d="M299 0v465h-195v46h246v-511h-51zM104 0v46h436v-46h-436zM280 592l75 155h65v-3l-90 -152h-50z" />
    <glyph glyph-name="icircumflex" unicode="&#xee;" 
d="M299 0v465h-195v46h246v-511h-51zM104 0v46h436v-46h-436zM167 593l124 155h58l124 -155h-59l-109 136h30l-109 -136h-59z" />
    <glyph glyph-name="idieresis" unicode="&#xef;" 
d="M299 0v465h-195v46h246v-511h-51zM104 0v46h436v-46h-436zM183 621v74h65v-74h-65zM390 621v74h65v-74h-65z" />
    <glyph glyph-name="eth" unicode="&#xf0;" 
d="M298 -10c-41.333 0 -78.166 9.99707 -110.499 29.9971s-57.666 49.333 -75.999 88s-27.5 85.334 -27.5 140.001v15c0 52 9 97.333 27 136s42.833 68.834 74.5 90.501s67.834 32.5 108.501 32.5c13.333 0 26.666 -1 39.999 -3s27 -5.66699 41 -11
c-16.667 20.667 -34.834 40.334 -54.501 59.001l-58.5 53l-102 -50l-26 23l101 49c-17.333 13.333 -34 25.5 -50 36.5l-42 28.5l37 17l47 -30l48 -33l104 50l23 -23l-99 -48c38.667 -30 74.167 -64.167 106.5 -102.5s58.166 -80.333 77.499 -126s29 -95.167 29 -148.5v-15
c0 -54 -9.16699 -100.333 -27.5 -139s-43.5 -68.167 -75.5 -88.5s-68.667 -30.5 -110 -30.5h-5zM300 35.9971c30.667 0 58.5 7.5 83.5 22.5s44.833 37.833 59.5 68.5s22 69 22 115v27c0 46.667 -7.33301 85.167 -22 115.5s-34.5 53 -59.5 68s-52.833 22.5 -83.5 22.5
s-58.5 -7.5 -83.5 -22.5s-44.833 -37.667 -59.5 -68s-22 -68.833 -22 -115.5v-27c0 -46 7.33301 -84.333 22 -115s34.5 -53.5 59.5 -68.5s52.833 -22.5 83.5 -22.5z" />
    <glyph glyph-name="ntilde" unicode="&#xf1;" 
d="M102 0l0.000976562 511.001h40l9 -86c15.333 33.333 38 57.666 68 72.999s62 23 96 23c56 0 101.5 -16.333 136.5 -49s52.5 -83 52.5 -151v-321h-51v297c0 62.667 -12.5 108 -37.5 136s-60.167 42 -105.5 42c-32 0 -59.833 -8.16699 -83.5 -24.5
s-41.834 -38.5 -54.501 -66.5s-19 -60.333 -19 -97v-287h-51zM145.001 616.001c1.33301 14.667 5.16895 29.667 11.502 45s16 28.166 29 38.499s29.5 15.5 49.5 15.5c19.333 0 37.5 -4.66699 54.5 -14s33.167 -18.666 48.5 -27.999s29.333 -14 42 -14c14 0 25 5 33 15
s13.333 23.333 16 40h38c-0.666992 -15.333 -4.33398 -30.666 -11.001 -45.999s-16.334 -28 -29.001 -38s-28.667 -15 -48 -15c-18.667 0 -36.5 4.66699 -53.5 14s-33.167 18.666 -48.5 27.999s-30 14 -44 14c-14.667 0 -26 -5 -34 -15s-13.333 -23.333 -16 -40h-38z" />
    <glyph glyph-name="ograve" unicode="&#xf2;" 
d="M300 -10c-46 0 -84.999 11.167 -116.999 33.5s-56.5 53 -73.5 92s-25.5 83.167 -25.5 132.5v15c0 50.667 8.5 95.334 25.5 134.001s41.667 69 74 91s71.166 33 116.499 33c46 0 85.167 -11.167 117.5 -33.5s56.833 -52.833 73.5 -91.5s25 -83 25 -133v-15
c0 -50.667 -8.5 -95.334 -25.5 -134.001s-41.5 -69 -73.5 -91s-71 -33 -117 -33zM300.001 36c48.667 0 88.334 17.667 119.001 53s46 86.333 46 153v27c0 66.667 -15.333 117.667 -46 153s-70.334 53 -119.001 53s-88.334 -17.667 -119.001 -53s-46 -86.333 -46 -153v-27
c0 -66.667 15.333 -117.667 46 -153s70.334 -53 119.001 -53zM289.001 592l-90 152v3h65l75 -155h-50z" />
    <glyph glyph-name="oacute" unicode="&#xf3;" 
d="M300 -10c-46 0 -84.999 11.167 -116.999 33.5s-56.5 53 -73.5 92s-25.5 83.167 -25.5 132.5v15c0 50.667 8.5 95.334 25.5 134.001s41.667 69 74 91s71.166 33 116.499 33c46 0 85.167 -11.167 117.5 -33.5s56.833 -52.833 73.5 -91.5s25 -83 25 -133v-15
c0 -50.667 -8.5 -95.334 -25.5 -134.001s-41.5 -69 -73.5 -91s-71 -33 -117 -33zM300.001 36c48.667 0 88.334 17.667 119.001 53s46 86.333 46 153v27c0 66.667 -15.333 117.667 -46 153s-70.334 53 -119.001 53s-88.334 -17.667 -119.001 -53s-46 -86.333 -46 -153v-27
c0 -66.667 15.333 -117.667 46 -153s70.334 -53 119.001 -53zM260.001 592l75 155h65v-3l-90 -152h-50z" />
    <glyph glyph-name="ocircumflex" unicode="&#xf4;" 
d="M300 -10c-46 0 -84.999 11.167 -116.999 33.5s-56.5 53 -73.5 92s-25.5 83.167 -25.5 132.5v15c0 50.667 8.5 95.334 25.5 134.001s41.667 69 74 91s71.166 33 116.499 33c46 0 85.167 -11.167 117.5 -33.5s56.833 -52.833 73.5 -91.5s25 -83 25 -133v-15
c0 -50.667 -8.5 -95.334 -25.5 -134.001s-41.5 -69 -73.5 -91s-71 -33 -117 -33zM300.001 36c48.667 0 88.334 17.667 119.001 53s46 86.333 46 153v27c0 66.667 -15.333 117.667 -46 153s-70.334 53 -119.001 53s-88.334 -17.667 -119.001 -53s-46 -86.333 -46 -153v-27
c0 -66.667 15.333 -117.667 46 -153s70.334 -53 119.001 -53zM147.001 593l124 155h58l124 -155h-59l-109 136h30l-109 -136h-59z" />
    <glyph glyph-name="otilde" unicode="&#xf5;" 
d="M300 -10c-46 0 -84.999 11.167 -116.999 33.5s-56.5 53 -73.5 92s-25.5 83.167 -25.5 132.5v15c0 50.667 8.5 95.334 25.5 134.001s41.667 69 74 91s71.166 33 116.499 33c46 0 85.167 -11.167 117.5 -33.5s56.833 -52.833 73.5 -91.5s25 -83 25 -133v-15
c0 -50.667 -8.5 -95.334 -25.5 -134.001s-41.5 -69 -73.5 -91s-71 -33 -117 -33zM300.001 36c48.667 0 88.334 17.667 119.001 53s46 86.333 46 153v27c0 66.667 -15.333 117.667 -46 153s-70.334 53 -119.001 53s-88.334 -17.667 -119.001 -53s-46 -86.333 -46 -153v-27
c0 -66.667 15.333 -117.667 46 -153s70.334 -53 119.001 -53zM136.001 616c1.33301 14.667 5.16895 29.667 11.502 45s16 28.166 29 38.499s29.5 15.5 49.5 15.5c19.333 0 37.5 -4.66699 54.5 -14s33.167 -18.666 48.5 -27.999s29.333 -14 42 -14c14 0 25 5 33 15
s13.333 23.333 16 40h38c-0.666992 -15.333 -4.33398 -30.666 -11.001 -45.999s-16.334 -28 -29.001 -38s-28.667 -15 -48 -15c-18.667 0 -36.5 4.66699 -53.5 14s-33.167 18.666 -48.5 27.999s-30 14 -44 14c-14.667 0 -26 -5 -34 -15s-13.333 -23.333 -16 -40h-38z" />
    <glyph glyph-name="odieresis" unicode="&#xf6;" 
d="M300 -10c-46 0 -84.999 11.167 -116.999 33.5s-56.5 53 -73.5 92s-25.5 83.167 -25.5 132.5v15c0 50.667 8.5 95.334 25.5 134.001s41.667 69 74 91s71.166 33 116.499 33c46 0 85.167 -11.167 117.5 -33.5s56.833 -52.833 73.5 -91.5s25 -83 25 -133v-15
c0 -50.667 -8.5 -95.334 -25.5 -134.001s-41.5 -69 -73.5 -91s-71 -33 -117 -33zM300.001 36c48.667 0 88.334 17.667 119.001 53s46 86.333 46 153v27c0 66.667 -15.333 117.667 -46 153s-70.334 53 -119.001 53s-88.334 -17.667 -119.001 -53s-46 -86.333 -46 -153v-27
c0 -66.667 15.333 -117.667 46 -153s70.334 -53 119.001 -53zM163.001 621v74h65v-74h-65zM370.001 621v74h65v-74h-65z" />
    <glyph glyph-name="divide" unicode="&#xf7;" 
d="M44 226v58h512v-58h-512zM267 71v69h65v-69h-65zM267 370v69h65v-69h-65z" />
    <glyph glyph-name="oslash" unicode="&#xf8;" 
d="M300 -10c-46 0 -84.999 11.167 -116.999 33.5s-56.5 53 -73.5 92s-25.5 83.167 -25.5 132.5v15c0 50.667 8.5 95.334 25.5 134.001s41.667 69 74 91s71.166 33 116.499 33c46 0 85.167 -11.167 117.5 -33.5s56.833 -52.833 73.5 -91.5s25 -83 25 -133v-15
c0 -50.667 -8.5 -95.334 -25.5 -134.001s-41.5 -69 -73.5 -91s-71 -33 -117 -33zM300.001 36c48.667 0 88.334 17.667 119.001 53s46 86.333 46 153v27c0 66.667 -15.333 117.667 -46 153s-70.334 53 -119.001 53s-88.334 -17.667 -119.001 -53s-46 -86.333 -46 -153v-27
c0 -66.667 15.333 -117.667 46 -153s70.334 -53 119.001 -53zM84.001 -56l387 624h45l-387 -624h-45z" />
    <glyph glyph-name="ugrave" unicode="&#xf9;" 
d="M275 -10c-55.333 0 -100.001 16.001 -134.001 48.001s-51 80 -51 144v329h51v-314c0 -54 12.333 -94.333 37 -121s59.667 -40 105 -40c30.667 0 57.5 7.83301 80.5 23.5s41.167 36.5 54.5 62.5s20 54.333 20 85v304h51v-442c0 -10.667 2.83301 -18.834 8.5 -24.501
s13.834 -8.5 24.501 -8.5c7.33301 0 15.333 1 24 3s17.667 6.33301 27 13v-43c-8.66699 -6.66699 -18 -11.5 -28 -14.5s-20.667 -4.5 -32 -4.5c-20 0 -35.167 3.83301 -45.5 11.5s-17.333 18.667 -21 33s-5.83398 31.5 -6.50098 51.5c-10 -22.667 -23.667 -41 -41 -55
s-36.666 -24.333 -57.999 -31s-43.333 -10 -66 -10zM278.999 592.001l-90 152v3h65l75 -155h-50z" />
    <glyph glyph-name="uacute" unicode="&#xfa;" 
d="M275 -10c-55.333 0 -100.001 16.001 -134.001 48.001s-51 80 -51 144v329h51v-314c0 -54 12.333 -94.333 37 -121s59.667 -40 105 -40c30.667 0 57.5 7.83301 80.5 23.5s41.167 36.5 54.5 62.5s20 54.333 20 85v304h51v-442c0 -10.667 2.83301 -18.834 8.5 -24.501
s13.834 -8.5 24.501 -8.5c7.33301 0 15.333 1 24 3s17.667 6.33301 27 13v-43c-8.66699 -6.66699 -18 -11.5 -28 -14.5s-20.667 -4.5 -32 -4.5c-20 0 -35.167 3.83301 -45.5 11.5s-17.333 18.667 -21 33s-5.83398 31.5 -6.50098 51.5c-10 -22.667 -23.667 -41 -41 -55
s-36.666 -24.333 -57.999 -31s-43.333 -10 -66 -10zM249.999 592.001l75 155h65v-3l-90 -152h-50z" />
    <glyph glyph-name="ucircumflex" unicode="&#xfb;" 
d="M275 -10c-55.333 0 -100.001 16.001 -134.001 48.001s-51 80 -51 144v329h51v-314c0 -54 12.333 -94.333 37 -121s59.667 -40 105 -40c30.667 0 57.5 7.83301 80.5 23.5s41.167 36.5 54.5 62.5s20 54.333 20 85v304h51v-442c0 -10.667 2.83301 -18.834 8.5 -24.501
s13.834 -8.5 24.501 -8.5c7.33301 0 15.333 1 24 3s17.667 6.33301 27 13v-43c-8.66699 -6.66699 -18 -11.5 -28 -14.5s-20.667 -4.5 -32 -4.5c-20 0 -35.167 3.83301 -45.5 11.5s-17.333 18.667 -21 33s-5.83398 31.5 -6.50098 51.5c-10 -22.667 -23.667 -41 -41 -55
s-36.666 -24.333 -57.999 -31s-43.333 -10 -66 -10zM136.999 593.001l124 155h58l124 -155h-59l-109 136h30l-109 -136h-59z" />
    <glyph glyph-name="udieresis" unicode="&#xfc;" 
d="M275 -10c-55.333 0 -100.001 16.001 -134.001 48.001s-51 80 -51 144v329h51v-314c0 -54 12.333 -94.333 37 -121s59.667 -40 105 -40c30.667 0 57.5 7.83301 80.5 23.5s41.167 36.5 54.5 62.5s20 54.333 20 85v304h51v-442c0 -10.667 2.83301 -18.834 8.5 -24.501
s13.834 -8.5 24.501 -8.5c7.33301 0 15.333 1 24 3s17.667 6.33301 27 13v-43c-8.66699 -6.66699 -18 -11.5 -28 -14.5s-20.667 -4.5 -32 -4.5c-20 0 -35.167 3.83301 -45.5 11.5s-17.333 18.667 -21 33s-5.83398 31.5 -6.50098 51.5c-10 -22.667 -23.667 -41 -41 -55
s-36.666 -24.333 -57.999 -31s-43.333 -10 -66 -10zM152.999 621.001v74h65v-74h-65zM359.999 621.001v74h65v-74h-65z" />
    <glyph glyph-name="yacute" unicode="&#xfd;" 
d="M169 -186c-10.667 0 -20.999 1.16699 -30.999 3.5s-20.667 5.83301 -32 10.5v46c7.33301 -2.66699 16 -5.66699 26 -9s19.333 -5 28 -5c17.333 0 31.333 4 42 12s21.334 22.667 32.001 44s24 52 40 92l-203 503h55l174 -435h4l175 435h50l-202 -498l-40 -99
c-12.667 -30 -27.834 -54.167 -45.501 -72.5s-41.834 -27.5 -72.501 -27.5zM270.001 592l75 155h65v-3l-90 -152h-50z" />
    <glyph glyph-name="thorn" unicode="&#xfe;" 
d="M110 -181v900.999h51v-277c19.333 26.667 42.5 46.334 69.5 59.001s58.167 19 93.5 19c37.333 0 71.333 -9.33301 102 -28s55.167 -47.834 73.5 -87.501s27.5 -91.167 27.5 -154.5v-11c0 -54 -9.16699 -99.667 -27.5 -137s-42.833 -65.5 -73.5 -84.5
s-64.667 -28.5 -102 -28.5c-36 0 -68 7.33301 -96 22s-50.333 34.334 -67 59.001v-252h-51zM319 35.999c29.333 0 55.834 7.16699 79.501 21.5s42.5 36.833 56.5 67.5s21 69.667 21 117v11c0 55.333 -7 99.166 -21 131.499s-32.833 55.5 -56.5 69.5s-50.167 21 -79.5 21
c-28.667 0 -55 -6.66699 -79 -20s-43.333 -36 -58 -68s-22 -76.333 -22 -133v-12c0 -48 7.16699 -87.167 21.5 -117.5s33.666 -52.666 57.999 -66.999s50.833 -21.5 79.5 -21.5z" />
    <glyph glyph-name="ydieresis" unicode="&#xff;" 
d="M169 -186c-10.667 0 -20.999 1.16699 -30.999 3.5s-20.667 5.83301 -32 10.5v46c7.33301 -2.66699 16 -5.66699 26 -9s19.333 -5 28 -5c17.333 0 31.333 4 42 12s21.334 22.667 32.001 44s24 52 40 92l-203 503h55l174 -435h4l175 435h50l-202 -498l-40 -99
c-12.667 -30 -27.834 -54.167 -45.501 -72.5s-41.834 -27.5 -72.501 -27.5zM173.001 621v74h65v-74h-65zM380.001 621v74h65v-74h-65z" />
    <glyph glyph-name="Amacron" unicode="&#x100;" 
d="M20 0l252 686h56l252 -686h-58l-222 612h-4l-220 -612h-56zM117 170v49h364v-49h-364zM150 792v44h298v-44h-298z" />
    <glyph glyph-name="amacron" unicode="&#x101;" 
d="M243 -10c-52.667 0 -92.666 12.499 -119.999 37.499s-41 60.167 -41 105.5c0 39.333 10.667 71 32 95s57 41.333 107 52s117.333 16 202 16v64c0 42 -10 71.667 -30 89s-54.333 26 -103 26c-44.667 0 -79 -9 -103 -27s-36 -43.667 -36 -77v-16h-49
c-1.33301 16 -2.16602 26.333 -2.49902 31s-0.5 6.33398 -0.5 5.00098s0.166992 -3.5 0.5 -6.5s0.5 -4.16699 0.5 -3.5c0 42 17.333 75.833 52 101.5s80.667 38.5 138 38.5c62.667 0 109 -12.333 139 -37s45 -62.667 45 -114v-301c0 -12.667 3.16699 -21.334 9.5 -26.001
s14.5 -7 24.5 -7c18 0 34.667 5.33301 50 16v-43c-8 -6 -17 -10.667 -27 -14s-20.333 -5 -31 -5c-16 0 -29.5 2.5 -40.5 7.5s-19.333 14.333 -25 28s-8.83398 33.834 -9.50098 60.501c-12.667 -25.333 -29.334 -45 -50.001 -59s-42.5 -23.667 -65.5 -29s-45.167 -8 -66.5 -8
zM253.001 35.999c39.333 0 71.5 8.5 96.5 25.5s43.5 39.833 55.5 68.5s18 60.667 18 96v24c-74.667 0 -133 -3.5 -175 -10.5s-71.667 -19 -89 -36s-26 -40.833 -26 -71.5c0 -32 9.5 -56 28.5 -72s49.5 -24 91.5 -24zM142.001 632.999v44h298v-44h-298z" />
    <glyph glyph-name="Abreve" unicode="&#x102;" 
d="M20 0l252 686h56l252 -686h-58l-222 612h-4l-220 -612h-56zM117 170v49h364v-49h-364zM296 761c-49.333 0 -87.6689 11.667 -115.002 35s-42.333 50 -45 80h48c7.33301 -27.333 21.666 -46 42.999 -56s44.333 -15 69 -15s47.834 5 69.501 15s35.834 28.667 42.501 56h48
c-2.66699 -30 -17.667 -56.667 -45 -80s-65.666 -35 -114.999 -35z" />
    <glyph glyph-name="abreve" unicode="&#x103;" 
d="M243 -10c-52.667 0 -92.666 12.499 -119.999 37.499s-41 60.167 -41 105.5c0 39.333 10.667 71 32 95s57 41.333 107 52s117.333 16 202 16v64c0 42 -10 71.667 -30 89s-54.333 26 -103 26c-44.667 0 -79 -9 -103 -27s-36 -43.667 -36 -77v-16h-49
c-1.33301 16 -2.16602 26.333 -2.49902 31s-0.5 6.33398 -0.5 5.00098s0.166992 -3.5 0.5 -6.5s0.5 -4.16699 0.5 -3.5c0 42 17.333 75.833 52 101.5s80.667 38.5 138 38.5c62.667 0 109 -12.333 139 -37s45 -62.667 45 -114v-301c0 -12.667 3.16699 -21.334 9.5 -26.001
s14.5 -7 24.5 -7c18 0 34.667 5.33301 50 16v-43c-8 -6 -17 -10.667 -27 -14s-20.333 -5 -31 -5c-16 0 -29.5 2.5 -40.5 7.5s-19.333 14.333 -25 28s-8.83398 33.834 -9.50098 60.501c-12.667 -25.333 -29.334 -45 -50.001 -59s-42.5 -23.667 -65.5 -29s-45.167 -8 -66.5 -8
zM253.001 35.999c39.333 0 71.5 8.5 96.5 25.5s43.5 39.833 55.5 68.5s18 60.667 18 96v24c-74.667 0 -133 -3.5 -175 -10.5s-71.667 -19 -89 -36s-26 -40.833 -26 -71.5c0 -32 9.5 -56 28.5 -72s49.5 -24 91.5 -24zM290.001 601.999c-32.667 0 -60.668 6.33301 -84.001 19
s-41.333 29.334 -54 50.001s-20 42.667 -22 66h48c7.33301 -34.667 21.666 -58.5 42.999 -71.5s44.333 -19.5 69 -19.5s47.834 6.5 69.501 19.5s35.834 36.833 42.501 71.5h48c-1.33301 -23.333 -8.5 -45.333 -21.5 -66s-31 -37.334 -54 -50.001s-51.167 -19 -84.5 -19z" />
    <glyph glyph-name="Aogonek" unicode="&#x104;" 
d="M20 0l252 686h56l252 -686h-58l-222 612h-4l-220 -612h-56zM117 170v49h364v-49h-364zM565 -143c-14 0 -27.834 2.00293 -41.501 6.00293s-25 11 -34 21s-13.5 23.333 -13.5 40c0 17.333 5 32.666 15 45.999s20.333 23.333 31 30h50
c-16 -8.66699 -28 -18.834 -36 -30.501s-12 -22.834 -12 -33.501c0 -10 3.83301 -18.5 11.5 -25.5s18.834 -10.5 33.501 -10.5c12 0 23.5 1.5 34.5 4.5s21.833 6.16699 32.5 9.5l13 -33c-12.667 -8 -26.167 -14 -40.5 -18s-28.833 -6 -43.5 -6z" />
    <glyph glyph-name="aogonek" unicode="&#x105;" 
d="M243 -10c-52.667 0 -92.666 12.499 -119.999 37.499s-41 60.167 -41 105.5c0 39.333 10.667 71 32 95s57 41.333 107 52s117.333 16 202 16v64c0 42 -10 71.667 -30 89s-54.333 26 -103 26c-44.667 0 -79 -9 -103 -27s-36 -43.667 -36 -77v-16h-49
c-1.33301 16 -2.16602 26.333 -2.49902 31s-0.5 6.33398 -0.5 5.00098s0.166992 -3.5 0.5 -6.5s0.5 -4.16699 0.5 -3.5c0 42 17.333 75.833 52 101.5s80.667 38.5 138 38.5c62.667 0 109 -12.333 139 -37s45 -62.667 45 -114v-301c0 -12.667 3.16699 -21.334 9.5 -26.001
s14.5 -7 24.5 -7c18 0 34.667 5.33301 50 16v-43c-8 -6 -17 -10.667 -27 -14s-20.333 -5 -31 -5c-16 0 -29.5 2.5 -40.5 7.5s-19.333 14.333 -25 28s-8.83398 33.834 -9.50098 60.501c-12.667 -25.333 -29.334 -45 -50.001 -59s-42.5 -23.667 -65.5 -29s-45.167 -8 -66.5 -8
zM253.001 35.999c39.333 0 71.5 8.5 96.5 25.5s43.5 39.833 55.5 68.5s18 60.667 18 96v24c-74.667 0 -133 -3.5 -175 -10.5s-71.667 -19 -89 -36s-26 -40.833 -26 -71.5c0 -32 9.5 -56 28.5 -72s49.5 -24 91.5 -24zM534.001 -143.001
c-14 0 -27.834 2.00293 -41.501 6.00293s-25 11 -34 21s-13.5 23.333 -13.5 40c0 17.333 5 32.666 15 45.999s20.333 23.333 31 30h50c-16 -8.66699 -28 -18.834 -36 -30.501s-12 -22.834 -12 -33.501c0 -10 3.83301 -18.5 11.5 -25.5s18.834 -10.5 33.501 -10.5
c12 0 23.5 1.5 34.5 4.5s21.833 6.16699 32.5 9.5l13 -33c-12.667 -8 -26.167 -14 -40.5 -18s-28.833 -6 -43.5 -6z" />
    <glyph glyph-name="Cacute" unicode="&#x106;" 
d="M300 -10c-34 0 -65.8301 4.66699 -95.4971 14s-55.834 25.666 -78.501 48.999s-40.334 55.833 -53.001 97.5s-19 94.834 -19 159.501v66c0 64.667 6.5 117.834 19.5 159.501s31 74.167 54 97.5s49.167 39.666 78.5 48.999s60 14 92 14h3
c54 0 99.167 -9.83301 135.5 -29.5s63.5 -48.834 81.5 -87.501s27 -87 27 -145h-53c0 50.667 -6.66699 91.667 -20 123s-34 54.333 -62 69s-64.667 22 -110 22c-26.667 0 -51.5 -3.66699 -74.5 -11s-43.333 -20.5 -61 -39.5s-31.5 -45.5 -41.5 -79.5s-15 -77.333 -15 -130
v-90c0 -52.667 5 -96 15 -130s23.833 -60.5 41.5 -79.5s38 -32.167 61 -39.5s47.833 -11 74.5 -11c67.333 0 116.166 16.833 146.499 50.5s45.5 87.834 45.5 162.501h53c0 -57.333 -9 -105.5 -27 -144.5s-45 -68.167 -81 -87.5s-80.667 -29 -134 -29h-3zM264.003 756
l105 135h67v-3l-119 -132h-53z" />
    <glyph glyph-name="cacute" unicode="&#x107;" 
d="M296 -10c-30.667 0 -58.9971 5.66797 -84.9971 17.001s-48.5 28.166 -67.5 50.499s-33.667 49.5 -44 81.5s-15.5 68.333 -15.5 109v15c0 41.333 5.16699 77.833 15.5 109.5s24.833 58.667 43.5 81s41 39.166 67 50.499s54.667 17 86 17h2c37.333 0 71 -8 101 -24
s53.833 -39.333 71.5 -70s26.5 -68.334 26.5 -113.001h-50c0 36.667 -6.83301 66.834 -20.5 90.501s-31.834 41.334 -54.501 53.001s-47.667 17.5 -75 17.5c-46 0 -84.5 -17 -115.5 -51s-46.5 -85.667 -46.5 -155v-27c0 -69.333 15.667 -121 47 -155s70 -51 116 -51
c27.333 0 52.166 5.66699 74.499 17s40.333 29 54 53s20.5 54.333 20.5 91h50c0 -44 -8.83301 -81.5 -26.5 -112.5s-41.334 -54.5 -71.001 -70.5s-63.167 -24 -100.5 -24h-3zM260.003 592.001l75 155h65v-3l-90 -152h-50z" />
    <glyph glyph-name="Ccircumflex" unicode="&#x108;" 
d="M300 -10c-34 0 -65.8301 4.66699 -95.4971 14s-55.834 25.666 -78.501 48.999s-40.334 55.833 -53.001 97.5s-19 94.834 -19 159.501v66c0 64.667 6.5 117.834 19.5 159.501s31 74.167 54 97.5s49.167 39.666 78.5 48.999s60 14 92 14h3
c54 0 99.167 -9.83301 135.5 -29.5s63.5 -48.834 81.5 -87.501s27 -87 27 -145h-53c0 50.667 -6.66699 91.667 -20 123s-34 54.333 -62 69s-64.667 22 -110 22c-26.667 0 -51.5 -3.66699 -74.5 -11s-43.333 -20.5 -61 -39.5s-31.5 -45.5 -41.5 -79.5s-15 -77.333 -15 -130
v-90c0 -52.667 5 -96 15 -130s23.833 -60.5 41.5 -79.5s38 -32.167 61 -39.5s47.833 -11 74.5 -11c67.333 0 116.166 16.833 146.499 50.5s45.5 87.834 45.5 162.501h53c0 -57.333 -9 -105.5 -27 -144.5s-45 -68.167 -81 -87.5s-80.667 -29 -134 -29h-3zM146.003 761
l122 122h62l122 -122h-66l-98 99h22l-98 -99h-66z" />
    <glyph glyph-name="ccircumflex" unicode="&#x109;" 
d="M296 -10c-30.667 0 -58.9971 5.66797 -84.9971 17.001s-48.5 28.166 -67.5 50.499s-33.667 49.5 -44 81.5s-15.5 68.333 -15.5 109v15c0 41.333 5.16699 77.833 15.5 109.5s24.833 58.667 43.5 81s41 39.166 67 50.499s54.667 17 86 17h2c37.333 0 71 -8 101 -24
s53.833 -39.333 71.5 -70s26.5 -68.334 26.5 -113.001h-50c0 36.667 -6.83301 66.834 -20.5 90.501s-31.834 41.334 -54.501 53.001s-47.667 17.5 -75 17.5c-46 0 -84.5 -17 -115.5 -51s-46.5 -85.667 -46.5 -155v-27c0 -69.333 15.667 -121 47 -155s70 -51 116 -51
c27.333 0 52.166 5.66699 74.499 17s40.333 29 54 53s20.5 54.333 20.5 91h50c0 -44 -8.83301 -81.5 -26.5 -112.5s-41.334 -54.5 -71.001 -70.5s-63.167 -24 -100.5 -24h-3zM147.003 593.001l124 155h58l124 -155h-59l-109 136h30l-109 -136h-59z" />
    <glyph glyph-name="Cdotaccent" unicode="&#x10a;" 
d="M300 -10c-34 0 -65.8301 4.66699 -95.4971 14s-55.834 25.666 -78.501 48.999s-40.334 55.833 -53.001 97.5s-19 94.834 -19 159.501v66c0 64.667 6.5 117.834 19.5 159.501s31 74.167 54 97.5s49.167 39.666 78.5 48.999s60 14 92 14h3
c54 0 99.167 -9.83301 135.5 -29.5s63.5 -48.834 81.5 -87.501s27 -87 27 -145h-53c0 50.667 -6.66699 91.667 -20 123s-34 54.333 -62 69s-64.667 22 -110 22c-26.667 0 -51.5 -3.66699 -74.5 -11s-43.333 -20.5 -61 -39.5s-31.5 -45.5 -41.5 -79.5s-15 -77.333 -15 -130
v-90c0 -52.667 5 -96 15 -130s23.833 -60.5 41.5 -79.5s38 -32.167 61 -39.5s47.833 -11 74.5 -11c67.333 0 116.166 16.833 146.499 50.5s45.5 87.834 45.5 162.501h53c0 -57.333 -9 -105.5 -27 -144.5s-45 -68.167 -81 -87.5s-80.667 -29 -134 -29h-3zM265.003 784v69h66
v-69h-66z" />
    <glyph glyph-name="cdotaccent" unicode="&#x10b;" 
d="M296 -10c-30.667 0 -58.9971 5.66797 -84.9971 17.001s-48.5 28.166 -67.5 50.499s-33.667 49.5 -44 81.5s-15.5 68.333 -15.5 109v15c0 41.333 5.16699 77.833 15.5 109.5s24.833 58.667 43.5 81s41 39.166 67 50.499s54.667 17 86 17h2c37.333 0 71 -8 101 -24
s53.833 -39.333 71.5 -70s26.5 -68.334 26.5 -113.001h-50c0 36.667 -6.83301 66.834 -20.5 90.501s-31.834 41.334 -54.501 53.001s-47.667 17.5 -75 17.5c-46 0 -84.5 -17 -115.5 -51s-46.5 -85.667 -46.5 -155v-27c0 -69.333 15.667 -121 47 -155s70 -51 116 -51
c27.333 0 52.166 5.66699 74.499 17s40.333 29 54 53s20.5 54.333 20.5 91h50c0 -44 -8.83301 -81.5 -26.5 -112.5s-41.334 -54.5 -71.001 -70.5s-63.167 -24 -100.5 -24h-3zM266.003 620.001v73h65v-73h-65z" />
    <glyph glyph-name="Ccaron" unicode="&#x10c;" 
d="M300 -10c-34 0 -65.8301 4.66699 -95.4971 14s-55.834 25.666 -78.501 48.999s-40.334 55.833 -53.001 97.5s-19 94.834 -19 159.501v66c0 64.667 6.5 117.834 19.5 159.501s31 74.167 54 97.5s49.167 39.666 78.5 48.999s60 14 92 14h3
c54 0 99.167 -9.83301 135.5 -29.5s63.5 -48.834 81.5 -87.501s27 -87 27 -145h-53c0 50.667 -6.66699 91.667 -20 123s-34 54.333 -62 69s-64.667 22 -110 22c-26.667 0 -51.5 -3.66699 -74.5 -11s-43.333 -20.5 -61 -39.5s-31.5 -45.5 -41.5 -79.5s-15 -77.333 -15 -130
v-90c0 -52.667 5 -96 15 -130s23.833 -60.5 41.5 -79.5s38 -32.167 61 -39.5s47.833 -11 74.5 -11c67.333 0 116.166 16.833 146.499 50.5s45.5 87.834 45.5 162.501h53c0 -57.333 -9 -105.5 -27 -144.5s-45 -68.167 -81 -87.5s-80.667 -29 -134 -29h-3zM265.003 761
l-132 115h70l110 -92h-26l110 92h70l-132 -115h-70z" />
    <glyph glyph-name="ccaron" unicode="&#x10d;" 
d="M296 -10c-30.667 0 -58.9971 5.66797 -84.9971 17.001s-48.5 28.166 -67.5 50.499s-33.667 49.5 -44 81.5s-15.5 68.333 -15.5 109v15c0 41.333 5.16699 77.833 15.5 109.5s24.833 58.667 43.5 81s41 39.166 67 50.499s54.667 17 86 17h2c37.333 0 71 -8 101 -24
s53.833 -39.333 71.5 -70s26.5 -68.334 26.5 -113.001h-50c0 36.667 -6.83301 66.834 -20.5 90.501s-31.834 41.334 -54.501 53.001s-47.667 17.5 -75 17.5c-46 0 -84.5 -17 -115.5 -51s-46.5 -85.667 -46.5 -155v-27c0 -69.333 15.667 -121 47 -155s70 -51 116 -51
c27.333 0 52.166 5.66699 74.499 17s40.333 29 54 53s20.5 54.333 20.5 91h50c0 -44 -8.83301 -81.5 -26.5 -112.5s-41.334 -54.5 -71.001 -70.5s-63.167 -24 -100.5 -24h-3zM453.003 748.001l-124 -155h-58l-124 155h59l109 -136h-30l109 136h59z" />
    <glyph glyph-name="Dcaron" unicode="&#x10e;" 
d="M90 0v685.999h220c36.667 0 71.167 -4.83301 103.5 -14.5s60.666 -26.167 84.999 -49.5s43.333 -55 57 -95s20.5 -90.333 20.5 -151v-65c0 -60 -6.83301 -110.167 -20.5 -150.5s-32.667 -72.166 -57 -95.499s-52.666 -40 -84.999 -50s-66.833 -15 -103.5 -15h-220z
M144 47.999h166c39.333 0 75 7.16699 107 21.5s57.5 39.833 76.5 76.5s28.5 88.667 28.5 156v83c0 65.333 -9.5 116.333 -28.5 153s-44.5 62.5 -76.5 77.5s-67.667 22.5 -107 22.5h-166v-590zM265 760.999l-132 115h70l110 -92h-26l110 92h70l-132 -115h-70z" />
    <glyph glyph-name="dcaron" unicode="&#x10f;" 
d="M277 -10c-36.667 0 -70.501 8.83398 -101.501 26.501s-55.833 45.5 -74.5 83.5s-28 88 -28 150v11c0 55.333 8.83301 102.333 26.5 141s41.834 68.167 72.501 88.5s65.334 30.5 104.001 30.5c36.667 0 69.167 -7.5 97.5 -22.5s50.166 -36.5 65.499 -64.5v286h51v-720h-40
l-9 86c-14.667 -32.667 -36.667 -56.834 -66 -72.501s-62 -23.5 -98 -23.5zM280.999 36.001c46.667 0 84.834 17.335 114.501 52.002s44.5 88.667 44.5 162v12c0 73.333 -14.833 127.166 -44.5 161.499s-67.834 51.5 -114.501 51.5s-84.5 -17.333 -113.5 -52
s-43.5 -88.334 -43.5 -161.001v-11c0 -74 14.5 -128.333 43.5 -163s66.833 -52 113.5 -52zM550.999 514.003l-0.000976562 4.00098c10.667 13.333 19.334 27.666 26.001 42.999s9.66699 31.333 9 48h-30v82h69v-72c0 -16.667 -2.83301 -34.167 -8.5 -52.5
s-15.167 -35.833 -28.5 -52.5h-37z" />
    <glyph glyph-name="Dcroat" unicode="&#x110;" 
d="M90 0v685.999h220c36.667 0 71.167 -4.83301 103.5 -14.5s60.666 -26.167 84.999 -49.5s43.333 -55 57 -95s20.5 -90.333 20.5 -151v-65c0 -60 -6.83301 -110.167 -20.5 -150.5s-32.667 -72.166 -57 -95.499s-52.666 -40 -84.999 -50s-66.833 -15 -103.5 -15h-220z
M144 47.999h166c39.333 0 75 7.16699 107 21.5s57.5 39.833 76.5 76.5s28.5 88.667 28.5 156v83c0 65.333 -9.5 116.333 -28.5 153s-44.5 62.5 -76.5 77.5s-67.667 22.5 -107 22.5h-166v-590zM0 319.999v45h350v-45h-350z" />
    <glyph glyph-name="dcroat" unicode="&#x111;" 
d="M277 -10c-36.667 0 -70.501 8.83398 -101.501 26.501s-55.833 45.5 -74.5 83.5s-28 88 -28 150v11c0 55.333 8.83301 102.333 26.5 141s41.834 68.167 72.501 88.5s65.334 30.5 104.001 30.5c36.667 0 69.167 -7.5 97.5 -22.5s50.166 -36.5 65.499 -64.5v286h51v-720h-40
l-9 86c-14.667 -32.667 -36.667 -56.834 -66 -72.501s-62 -23.5 -98 -23.5zM280.999 36.001c46.667 0 84.834 17.335 114.501 52.002s44.5 88.667 44.5 162v12c0 73.333 -14.833 127.166 -44.5 161.499s-67.834 51.5 -114.501 51.5s-84.5 -17.333 -113.5 -52
s-43.5 -88.334 -43.5 -161.001v-11c0 -74 14.5 -128.333 43.5 -163s66.833 -52 113.5 -52zM248.999 582.003v45h350v-45h-350z" />
    <glyph glyph-name="Emacron" unicode="&#x112;" 
d="M100 0v686h424l-10 -48h-360v-264h319v-48h-319v-278h369l11 -48h-434zM160 792v44h298v-44h-298z" />
    <glyph glyph-name="emacron" unicode="&#x113;" 
d="M297 -10c-48.667 0 -89.0039 11.165 -121.004 33.498s-55.833 53 -71.5 92s-23.5 83.167 -23.5 132.5v15c0 50.667 8.83301 95.334 26.5 134.001s42.834 69 75.501 91s71.334 33 116.001 33c42.667 0 79.334 -9.5 110.001 -28.5s54.5 -44.167 71.5 -75.5
s25.5 -65.666 25.5 -102.999v-64h-374v-8c0 -66.667 15.667 -117.667 47 -153s70.666 -53 117.999 -53c50.667 0 89.834 12.333 117.501 37s41.5 63.334 41.5 116.001h50c0 -40.667 -8.83301 -75.834 -26.5 -105.501s-42.167 -52.667 -73.5 -69
s-67.666 -24.5 -108.999 -24.5zM132.996 295.998l323.001 0.000976562v18c0 30 -6.5 57.167 -19.5 81.5s-31.167 43.666 -54.5 57.999s-51 21.5 -83 21.5c-36.667 0 -67.334 -9.16699 -92.001 -27.5s-43.167 -41 -55.5 -68s-18.5 -54.167 -18.5 -81.5v-2zM156.997 632.999
v44h298v-44h-298z" />
    <glyph glyph-name="Ebreve" unicode="&#x114;" 
d="M100 0v686h424l-10 -48h-360v-264h319v-48h-319v-278h369l11 -48h-434zM306 761c-49.333 0 -87.6689 11.667 -115.002 35s-42.333 50 -45 80h48c7.33301 -27.333 21.666 -46 42.999 -56s44.333 -15 69 -15s47.834 5 69.501 15s35.834 28.667 42.501 56h48
c-2.66699 -30 -17.667 -56.667 -45 -80s-65.666 -35 -114.999 -35z" />
    <glyph glyph-name="ebreve" unicode="&#x115;" 
d="M297 -10c-48.667 0 -89.0039 11.165 -121.004 33.498s-55.833 53 -71.5 92s-23.5 83.167 -23.5 132.5v15c0 50.667 8.83301 95.334 26.5 134.001s42.834 69 75.501 91s71.334 33 116.001 33c42.667 0 79.334 -9.5 110.001 -28.5s54.5 -44.167 71.5 -75.5
s25.5 -65.666 25.5 -102.999v-64h-374v-8c0 -66.667 15.667 -117.667 47 -153s70.666 -53 117.999 -53c50.667 0 89.834 12.333 117.501 37s41.5 63.334 41.5 116.001h50c0 -40.667 -8.83301 -75.834 -26.5 -105.501s-42.167 -52.667 -73.5 -69
s-67.666 -24.5 -108.999 -24.5zM132.996 295.998l323.001 0.000976562v18c0 30 -6.5 57.167 -19.5 81.5s-31.167 43.666 -54.5 57.999s-51 21.5 -83 21.5c-36.667 0 -67.334 -9.16699 -92.001 -27.5s-43.167 -41 -55.5 -68s-18.5 -54.167 -18.5 -81.5v-2zM304.997 601.999
c-32.667 0 -60.668 6.33301 -84.001 19s-41.333 29.334 -54 50.001s-20 42.667 -22 66h48c7.33301 -34.667 21.666 -58.5 42.999 -71.5s44.333 -19.5 69 -19.5s47.834 6.5 69.501 19.5s35.834 36.833 42.501 71.5h48c-1.33301 -23.333 -8.5 -45.333 -21.5 -66
s-31 -37.334 -54 -50.001s-51.167 -19 -84.5 -19z" />
    <glyph glyph-name="Edotaccent" unicode="&#x116;" 
d="M100 0v686h424l-10 -48h-360v-264h319v-48h-319v-278h369l11 -48h-434zM275 784v69h66v-69h-66z" />
    <glyph glyph-name="edotaccent" unicode="&#x117;" 
d="M297 -10c-48.667 0 -89.0039 11.165 -121.004 33.498s-55.833 53 -71.5 92s-23.5 83.167 -23.5 132.5v15c0 50.667 8.83301 95.334 26.5 134.001s42.834 69 75.501 91s71.334 33 116.001 33c42.667 0 79.334 -9.5 110.001 -28.5s54.5 -44.167 71.5 -75.5
s25.5 -65.666 25.5 -102.999v-64h-374v-8c0 -66.667 15.667 -117.667 47 -153s70.666 -53 117.999 -53c50.667 0 89.834 12.333 117.501 37s41.5 63.334 41.5 116.001h50c0 -40.667 -8.83301 -75.834 -26.5 -105.501s-42.167 -52.667 -73.5 -69
s-67.666 -24.5 -108.999 -24.5zM132.996 295.998l323.001 0.000976562v18c0 30 -6.5 57.167 -19.5 81.5s-31.167 43.666 -54.5 57.999s-51 21.5 -83 21.5c-36.667 0 -67.334 -9.16699 -92.001 -27.5s-43.167 -41 -55.5 -68s-18.5 -54.167 -18.5 -81.5v-2zM271.997 619.999
v73h65v-73h-65z" />
    <glyph glyph-name="Eogonek" unicode="&#x118;" 
d="M100 0v686h424l-10 -48h-360v-264h319v-48h-319v-278h369l11 -48h-434zM484 -143c-14 0 -27.834 2.00293 -41.501 6.00293s-25 11 -34 21s-13.5 23.333 -13.5 40c0 17.333 5 32.666 15 45.999s20.333 23.333 31 30h50c-16 -8.66699 -28 -18.834 -36 -30.501
s-12 -22.834 -12 -33.501c0 -10 3.83301 -18.5 11.5 -25.5s18.834 -10.5 33.501 -10.5c12 0 23.5 1.5 34.5 4.5s21.833 6.16699 32.5 9.5l13 -33c-12.667 -8 -26.167 -14 -40.5 -18s-28.833 -6 -43.5 -6z" />
    <glyph glyph-name="eogonek" unicode="&#x119;" 
d="M297 -10c-48.667 0 -89.0039 11.165 -121.004 33.498s-55.833 53 -71.5 92s-23.5 83.167 -23.5 132.5v15c0 50.667 8.83301 95.334 26.5 134.001s42.834 69 75.501 91s71.334 33 116.001 33c42.667 0 79.334 -9.5 110.001 -28.5s54.5 -44.167 71.5 -75.5
s25.5 -65.666 25.5 -102.999v-64h-374v-8c0 -66.667 15.667 -117.667 47 -153s70.666 -53 117.999 -53c50.667 0 89.834 12.333 117.501 37s41.5 63.334 41.5 116.001h50c0 -40.667 -8.83301 -75.834 -26.5 -105.501s-42.167 -52.667 -73.5 -69
s-67.666 -24.5 -108.999 -24.5zM132.996 295.998l323.001 0.000976562v18c0 30 -6.5 57.167 -19.5 81.5s-31.167 43.666 -54.5 57.999s-51 21.5 -83 21.5c-36.667 0 -67.334 -9.16699 -92.001 -27.5s-43.167 -41 -55.5 -68s-18.5 -54.167 -18.5 -81.5v-2zM356.997 -143.001
c-14 0 -27.834 2.00293 -41.501 6.00293s-25 11 -34 21s-13.5 23.333 -13.5 40c0 17.333 5 32.666 15 45.999s20.333 23.333 31 30h50c-16 -8.66699 -28 -18.834 -36 -30.501s-12 -22.834 -12 -33.501c0 -10 3.83301 -18.5 11.5 -25.5s18.834 -10.5 33.501 -10.5
c12 0 23.5 1.5 34.5 4.5s21.833 6.16699 32.5 9.5l13 -33c-12.667 -8 -26.167 -14 -40.5 -18s-28.833 -6 -43.5 -6z" />
    <glyph glyph-name="Ecaron" unicode="&#x11a;" 
d="M100 0v686h424l-10 -48h-360v-264h319v-48h-319v-278h369l11 -48h-434zM275 761l-132 115h70l110 -92h-26l110 92h70l-132 -115h-70z" />
    <glyph glyph-name="ecaron" unicode="&#x11b;" 
d="M297 -10c-48.667 0 -89.0039 11.165 -121.004 33.498s-55.833 53 -71.5 92s-23.5 83.167 -23.5 132.5v15c0 50.667 8.83301 95.334 26.5 134.001s42.834 69 75.501 91s71.334 33 116.001 33c42.667 0 79.334 -9.5 110.001 -28.5s54.5 -44.167 71.5 -75.5
s25.5 -65.666 25.5 -102.999v-64h-374v-8c0 -66.667 15.667 -117.667 47 -153s70.666 -53 117.999 -53c50.667 0 89.834 12.333 117.501 37s41.5 63.334 41.5 116.001h50c0 -40.667 -8.83301 -75.834 -26.5 -105.501s-42.167 -52.667 -73.5 -69
s-67.666 -24.5 -108.999 -24.5zM132.996 295.998l323.001 0.000976562v18c0 30 -6.5 57.167 -19.5 81.5s-31.167 43.666 -54.5 57.999s-51 21.5 -83 21.5c-36.667 0 -67.334 -9.16699 -92.001 -27.5s-43.167 -41 -55.5 -68s-18.5 -54.167 -18.5 -81.5v-2zM458.997 747.999
l-124 -155h-58l-124 155h59l109 -136h-30l109 136h59z" />
    <glyph glyph-name="Gcircumflex" unicode="&#x11c;" 
d="M300 -10c-34 0 -65.832 4.66797 -95.499 14.001s-55.834 25.666 -78.501 48.999s-40.334 55.833 -53.001 97.5s-19 94.834 -19 159.501v66c0 64.667 6.16699 117.834 18.5 159.501s29.5 74.167 51.5 97.5s47.833 39.666 77.5 48.999s61.834 14 96.501 14h5
c30.667 0 60.334 -3.83301 89.001 -11.5s54.334 -20.834 77.001 -39.501s40.667 -44 54 -76s20 -72 20 -120h-53c0 53.333 -9.16699 94.333 -27.5 123s-42 48.5 -71 59.5s-59.833 16.5 -92.5 16.5c-36.667 0 -69.334 -7 -98.001 -21s-51.334 -39.667 -68.001 -77
s-25 -91.333 -25 -162v-90c0 -52.667 5 -96 15 -130s23.833 -60.5 41.5 -79.5s38 -32.167 61 -39.5s47.833 -11 74.5 -11c34 0 65.667 6.16699 95 18.5s53 34.5 71 66.5s27 78 27 138v42h-222v47h272v-231c0 -26 0.666992 -49.667 2 -71s2.66602 -37.333 3.99902 -48h-37
l-16 92c-20.667 -36 -48.167 -62 -82.5 -78s-71.166 -24 -110.499 -24h-3zM151.001 761.001l122 122h62l122 -122h-66l-98 99h22l-98 -99h-66z" />
    <glyph glyph-name="gcircumflex" unicode="&#x11d;" 
d="M195 -188c-38.667 0 -69.3379 11.665 -92.0049 34.998s-34 52.333 -34 87c0 25.333 6.83301 47.833 20.5 67.5s31.5 34.167 53.5 43.5c-14.667 9.33301 -26 21.5 -34 36.5s-12 31.167 -12 48.5c0 22.667 7 43.334 21 62.001s34.667 31.334 62 38.001
c-23.333 13.333 -40.666 31.166 -51.999 53.499s-17 47.833 -17 76.5c0 50.667 17.333 90.167 52 118.5s82.334 42.5 143.001 42.5c22.667 0 43.167 -1.83301 61.5 -5.5s34.833 -9.16699 49.5 -16.5c25.333 6.66699 46 17.334 62 32.001s25.333 35.334 28 62.001h48
c0 -28 -8.66699 -52.5 -26 -73.5s-41.666 -35.167 -72.999 -42.5l-1 -4c14.667 -12.667 26 -28.834 34 -48.501s12 -41.167 12 -64.5c0 -50 -17.167 -89.167 -51.5 -117.5s-82.166 -42.5 -143.499 -42.5h-82c-22 0 -40 -6.16699 -54 -18.5s-21 -28.5 -21 -48.5
s6.83301 -36 20.5 -48s31.834 -18 54.501 -18h193c42 0 75.5 -10.833 100.5 -32.5s37.5 -50.5 37.5 -86.5c0 -38.667 -12.667 -71 -38 -97s-60.333 -39 -105 -39h-217zM207.996 -142.002l207 0.000976562c29.333 0 51.5 7.66699 66.5 23s22.5 34.666 22.5 57.999
c0 22 -7 40.667 -21 56s-36.667 23 -68 23h-207c-28.667 0 -50.667 -7.83301 -66 -23.5s-23 -34.5 -23 -56.5s7.66699 -40.833 23 -56.5s37.333 -23.5 66 -23.5zM305.996 244.999c45.333 0 80.666 10 105.999 30s38 48.333 38 85s-12.667 65 -38 85s-60.666 30 -105.999 30
s-80.666 -10 -105.999 -30s-38 -48.333 -38 -85s12.667 -65 38 -85s60.666 -30 105.999 -30zM157.996 597.999l122 122h62l122 -122h-66l-98 99h22l-98 -99h-66z" />
    <glyph glyph-name="Gbreve" unicode="&#x11e;" 
d="M300 -10c-34 0 -65.832 4.66797 -95.499 14.001s-55.834 25.666 -78.501 48.999s-40.334 55.833 -53.001 97.5s-19 94.834 -19 159.501v66c0 64.667 6.16699 117.834 18.5 159.501s29.5 74.167 51.5 97.5s47.833 39.666 77.5 48.999s61.834 14 96.501 14h5
c30.667 0 60.334 -3.83301 89.001 -11.5s54.334 -20.834 77.001 -39.501s40.667 -44 54 -76s20 -72 20 -120h-53c0 53.333 -9.16699 94.333 -27.5 123s-42 48.5 -71 59.5s-59.833 16.5 -92.5 16.5c-36.667 0 -69.334 -7 -98.001 -21s-51.334 -39.667 -68.001 -77
s-25 -91.333 -25 -162v-90c0 -52.667 5 -96 15 -130s23.833 -60.5 41.5 -79.5s38 -32.167 61 -39.5s47.833 -11 74.5 -11c34 0 65.667 6.16699 95 18.5s53 34.5 71 66.5s27 78 27 138v42h-222v47h272v-231c0 -26 0.666992 -49.667 2 -71s2.66602 -37.333 3.99902 -48h-37
l-16 92c-20.667 -36 -48.167 -62 -82.5 -78s-71.166 -24 -110.499 -24h-3zM301.001 761.001c-49.333 0 -87.6689 11.667 -115.002 35s-42.333 50 -45 80h48c7.33301 -27.333 21.666 -46 42.999 -56s44.333 -15 69 -15s47.834 5 69.501 15s35.834 28.667 42.501 56h48
c-2.66699 -30 -17.667 -56.667 -45 -80s-65.666 -35 -114.999 -35z" />
    <glyph glyph-name="gbreve" unicode="&#x11f;" 
d="M195 -188c-38.667 0 -69.3379 11.668 -92.0049 35.001s-34 52.333 -34 87c0 25.333 6.83301 47.833 20.5 67.5s31.5 34.167 53.5 43.5c-14.667 9.33301 -26 21.5 -34 36.5s-12 31.167 -12 48.5c0 22.667 7 43.334 21 62.001s34.667 31.334 62 38.001
c-23.333 13.333 -40.666 31.166 -51.999 53.499s-17 47.833 -17 76.5c0 50.667 17.333 90.167 52 118.5s82.334 42.5 143.001 42.5c45.333 0 82.333 -7.33301 111 -22c25.333 6.66699 45.833 19 61.5 37s25.167 40.333 28.5 67h48c0 -30.667 -9.66699 -58.334 -29 -83.001
s-42.666 -39 -69.999 -43l-1 -4c14.667 -12.667 26 -28.834 34 -48.501s12 -41.167 12 -64.5c0 -50 -17.167 -89.167 -51.5 -117.5s-82.166 -42.5 -143.499 -42.5h-82c-22 0 -40 -6.16699 -54 -18.5s-21 -28.5 -21 -48.5s6.83301 -36 20.5 -48s31.834 -18 54.501 -18h193
c42 0 75.5 -10.833 100.5 -32.5s37.5 -50.5 37.5 -86.5c0 -38.667 -12.667 -71 -38 -97s-60.333 -39 -105 -39h-217zM207.996 -141.999l207 0.000976562c29.333 0 51.5 7.66699 66.5 23s22.5 34.666 22.5 57.999c0 22 -7 40.667 -21 56s-36.667 23 -68 23h-207
c-28.667 0 -50.667 -7.83301 -66 -23.5s-23 -34.5 -23 -56.5s7.66699 -40.833 23 -56.5s37.333 -23.5 66 -23.5zM305.996 245.002c45.333 0 80.666 10 105.999 30s38 48.333 38 85s-12.667 65 -38 85s-60.666 30 -105.999 30s-80.666 -10 -105.999 -30s-38 -48.333 -38 -85
s12.667 -65 38 -85s60.666 -30 105.999 -30zM298.996 602.002c-32.667 0 -60.668 6.33301 -84.001 19s-41.333 29.334 -54 50.001s-20 42.667 -22 66h48c7.33301 -34.667 21.666 -58.5 42.999 -71.5s44.333 -19.5 69 -19.5s47.834 6.5 69.501 19.5
s35.834 36.833 42.501 71.5h48c-1.33301 -23.333 -8.5 -45.333 -21.5 -66s-31 -37.334 -54 -50.001s-51.167 -19 -84.5 -19z" />
    <glyph glyph-name="Gdotaccent" unicode="&#x120;" 
d="M300 -10c-34 0 -65.832 4.66797 -95.499 14.001s-55.834 25.666 -78.501 48.999s-40.334 55.833 -53.001 97.5s-19 94.834 -19 159.501v66c0 64.667 6.16699 117.834 18.5 159.501s29.5 74.167 51.5 97.5s47.833 39.666 77.5 48.999s61.834 14 96.501 14h5
c30.667 0 60.334 -3.83301 89.001 -11.5s54.334 -20.834 77.001 -39.501s40.667 -44 54 -76s20 -72 20 -120h-53c0 53.333 -9.16699 94.333 -27.5 123s-42 48.5 -71 59.5s-59.833 16.5 -92.5 16.5c-36.667 0 -69.334 -7 -98.001 -21s-51.334 -39.667 -68.001 -77
s-25 -91.333 -25 -162v-90c0 -52.667 5 -96 15 -130s23.833 -60.5 41.5 -79.5s38 -32.167 61 -39.5s47.833 -11 74.5 -11c34 0 65.667 6.16699 95 18.5s53 34.5 71 66.5s27 78 27 138v42h-222v47h272v-231c0 -26 0.666992 -49.667 2 -71s2.66602 -37.333 3.99902 -48h-37
l-16 92c-20.667 -36 -48.167 -62 -82.5 -78s-71.166 -24 -110.499 -24h-3zM270.001 784.001v69h66v-69h-66z" />
    <glyph glyph-name="gdotaccent" unicode="&#x121;" 
d="M195 -188c-38.667 0 -69.3379 11.668 -92.0049 35.001s-34 52.333 -34 87c0 25.333 6.83301 47.833 20.5 67.5s31.5 34.167 53.5 43.5c-14.667 9.33301 -26 21.5 -34 36.5s-12 31.167 -12 48.5c0 22.667 7 43.334 21 62.001s34.667 31.334 62 38.001
c-23.333 13.333 -40.666 31.166 -51.999 53.499s-17 47.833 -17 76.5c0 50.667 17.333 90.167 52 118.5s82.334 42.5 143.001 42.5c45.333 0 82.333 -7.33301 111 -22c25.333 6.66699 45.833 19 61.5 37s25.167 40.333 28.5 67h48c0 -30.667 -9.66699 -58.334 -29 -83.001
s-42.666 -39 -69.999 -43l-1 -4c14.667 -12.667 26 -28.834 34 -48.501s12 -41.167 12 -64.5c0 -50 -17.167 -89.167 -51.5 -117.5s-82.166 -42.5 -143.499 -42.5h-82c-22 0 -40 -6.16699 -54 -18.5s-21 -28.5 -21 -48.5s6.83301 -36 20.5 -48s31.834 -18 54.501 -18h193
c42 0 75.5 -10.833 100.5 -32.5s37.5 -50.5 37.5 -86.5c0 -38.667 -12.667 -71 -38 -97s-60.333 -39 -105 -39h-217zM207.996 -141.999l207 0.000976562c29.333 0 51.5 7.66699 66.5 23s22.5 34.666 22.5 57.999c0 22 -7 40.667 -21 56s-36.667 23 -68 23h-207
c-28.667 0 -50.667 -7.83301 -66 -23.5s-23 -34.5 -23 -56.5s7.66699 -40.833 23 -56.5s37.333 -23.5 66 -23.5zM305.996 245.002c45.333 0 80.666 10 105.999 30s38 48.333 38 85s-12.667 65 -38 85s-60.666 30 -105.999 30s-80.666 -10 -105.999 -30s-38 -48.333 -38 -85
s12.667 -65 38 -85s60.666 -30 105.999 -30zM265.996 620.002v73h65v-73h-65z" />
    <glyph glyph-name="uni0122" unicode="&#x122;" 
d="M300 -10c-34 0 -65.832 4.66797 -95.499 14.001s-55.834 25.666 -78.501 48.999s-40.334 55.833 -53.001 97.5s-19 94.834 -19 159.501v66c0 64.667 6.16699 117.834 18.5 159.501s29.5 74.167 51.5 97.5s47.833 39.666 77.5 48.999s61.834 14 96.501 14h5
c30.667 0 60.334 -3.83301 89.001 -11.5s54.334 -20.834 77.001 -39.501s40.667 -44 54 -76s20 -72 20 -120h-53c0 53.333 -9.16699 94.333 -27.5 123s-42 48.5 -71 59.5s-59.833 16.5 -92.5 16.5c-36.667 0 -69.334 -7 -98.001 -21s-51.334 -39.667 -68.001 -77
s-25 -91.333 -25 -162v-90c0 -52.667 5 -96 15 -130s23.833 -60.5 41.5 -79.5s38 -32.167 61 -39.5s47.833 -11 74.5 -11c34 0 65.667 6.16699 95 18.5s53 34.5 71 66.5s27 78 27 138v42h-222v47h272v-231c0 -26 0.666992 -49.667 2 -71s2.66602 -37.333 3.99902 -48h-37
l-16 92c-20.667 -36 -48.167 -62 -82.5 -78s-71.166 -24 -110.499 -24h-3zM265.001 -243.999v5c10 12.667 18.167 26.667 24.5 42s9.5 31.333 9.5 48h-28v81h64v-72c0 -16.667 -2.33301 -34.167 -7 -52.5s-13.667 -35.5 -27 -51.5h-36z" />
    <glyph glyph-name="uni0123" unicode="&#x123;" 
d="M195 -188c-38.667 0 -69.3379 11.668 -92.0049 35.001s-34 52.333 -34 87c0 25.333 6.83301 47.833 20.5 67.5s31.5 34.167 53.5 43.5c-14.667 9.33301 -26 21.5 -34 36.5s-12 31.167 -12 48.5c0 22.667 7 43.334 21 62.001s34.667 31.334 62 38.001
c-23.333 13.333 -40.666 31.166 -51.999 53.499s-17 47.833 -17 76.5c0 50.667 17.333 90.167 52 118.5s82.334 42.5 143.001 42.5c45.333 0 82.333 -7.33301 111 -22c25.333 6.66699 45.833 19 61.5 37s25.167 40.333 28.5 67h48c0 -30.667 -9.66699 -58.334 -29 -83.001
s-42.666 -39 -69.999 -43l-1 -4c14.667 -12.667 26 -28.834 34 -48.501s12 -41.167 12 -64.5c0 -50 -17.167 -89.167 -51.5 -117.5s-82.166 -42.5 -143.499 -42.5h-82c-22 0 -40 -6.16699 -54 -18.5s-21 -28.5 -21 -48.5s6.83301 -36 20.5 -48s31.834 -18 54.501 -18h193
c42 0 75.5 -10.833 100.5 -32.5s37.5 -50.5 37.5 -86.5c0 -38.667 -12.667 -71 -38 -97s-60.333 -39 -105 -39h-217zM207.996 -141.999l207 0.000976562c29.333 0 51.5 7.66699 66.5 23s22.5 34.666 22.5 57.999c0 22 -7 40.667 -21 56s-36.667 23 -68 23h-207
c-28.667 0 -50.667 -7.83301 -66 -23.5s-23 -34.5 -23 -56.5s7.66699 -40.833 23 -56.5s37.333 -23.5 66 -23.5zM305.996 245.002c45.333 0 80.666 10 105.999 30s38 48.333 38 85s-12.667 65 -38 85s-60.666 30 -105.999 30s-80.666 -10 -105.999 -30s-38 -48.333 -38 -85
s12.667 -65 38 -85s60.666 -30 105.999 -30zM338.996 795.002l0.00195312 -6.00195c-10.667 -12.667 -19.334 -27.167 -26.001 -43.5s-10 -33.166 -10 -50.499h30v-86h-68v76c0 17.333 2.66699 35.833 8 55.5s14.666 37.834 27.999 54.501h38z" />
    <glyph glyph-name="Hcircumflex" unicode="&#x124;" 
d="M90 0v686h54v-312h312v312h54v-686h-54v326h-312v-326h-54zM146 761l122 122h62l122 -122h-66l-98 99h22l-98 -99h-66z" />
    <glyph glyph-name="hcircumflex" unicode="&#x125;" 
d="M102 0l0.00195312 720h51v-281c17.333 27.333 41.333 47.833 72 61.5s60.667 20.5 90 20.5c35.333 0 67.166 -6.83301 95.499 -20.5s51 -34.5 68 -62.5s25.5 -64.333 25.5 -109v-329h-51v314c0 55.333 -12.667 96 -38 122s-60.333 39 -105 39c-30 0 -56.833 -7 -80.5 -21
s-42.334 -33.167 -56.001 -57.5s-20.5 -51.833 -20.5 -82.5v-314h-51zM-25.998 761l122 122h62l122 -122h-66l-98 99h22l-98 -99h-66z" />
    <glyph glyph-name="Hbar" unicode="&#x126;" 
d="M90 0v686h54v-312h312v312h54v-686h-54v326h-312v-326h-54zM10 509v42h580v-42h-580z" />
    <glyph glyph-name="hbar" unicode="&#x127;" 
d="M102 0l0.00195312 720h51v-281c17.333 27.333 41.333 47.833 72 61.5s60.667 20.5 90 20.5c35.333 0 67.166 -6.83301 95.499 -20.5s51 -34.5 68 -62.5s25.5 -64.333 25.5 -109v-329h-51v314c0 55.333 -12.667 96 -38 122s-60.333 39 -105 39c-30 0 -56.833 -7 -80.5 -21
s-42.334 -33.167 -56.001 -57.5s-20.5 -51.833 -20.5 -82.5v-314h-51zM-0.998047 582v45h350v-45h-350z" />
    <glyph glyph-name="Itilde" unicode="&#x128;" 
d="M134 0v49h139v588h-139v49h332v-49h-139v-588h139v-49h-332zM139 780c1.33301 13.333 5.16895 26.666 11.502 39.999s16 24.5 29 33.5s29.5 13.5 49.5 13.5c19.333 0 37.5 -3.66699 54.5 -11s33.167 -14.666 48.5 -21.999s29.333 -11 42 -11c14 0 25 4 33 12
s13.333 18.333 16 31h38c-0.666992 -13.333 -4.33398 -26.666 -11.001 -39.999s-16.334 -24.5 -29.001 -33.5s-28.667 -13.5 -48 -13.5c-18.667 0 -36.5 3.66699 -53.5 11s-33.167 14.666 -48.5 21.999s-30 11 -44 11c-14.667 0 -26 -3.83301 -34 -11.5
s-13.333 -18.167 -16 -31.5h-38z" />
    <glyph glyph-name="itilde" unicode="&#x129;" 
d="M299 0v465h-195v46h246v-511h-51zM104 0v46h436v-46h-436zM156 616c1.33301 14.667 5.16895 29.667 11.502 45s16 28.166 29 38.499s29.5 15.5 49.5 15.5c19.333 0 37.5 -4.66699 54.5 -14s33.167 -18.666 48.5 -27.999s29.333 -14 42 -14c14 0 25 5 33 15
s13.333 23.333 16 40h38c-0.666992 -15.333 -4.33398 -30.666 -11.001 -45.999s-16.334 -28 -29.001 -38s-28.667 -15 -48 -15c-18.667 0 -36.5 4.66699 -53.5 14s-33.167 18.666 -48.5 27.999s-30 14 -44 14c-14.667 0 -26 -5 -34 -15s-13.333 -23.333 -16 -40h-38z" />
    <glyph glyph-name="Imacron" unicode="&#x12a;" 
d="M134 0v49h139v588h-139v49h332v-49h-139v-588h139v-49h-332zM150 792v44h298v-44h-298z" />
    <glyph glyph-name="imacron" unicode="&#x12b;" 
d="M299 0v465h-195v46h246v-511h-51zM104 0v46h436v-46h-436zM171 633v44h298v-44h-298z" />
    <glyph glyph-name="Ibreve" unicode="&#x12c;" 
d="M134 0v49h139v588h-139v49h332v-49h-139v-588h139v-49h-332zM296 761c-49.333 0 -87.6689 11.667 -115.002 35s-42.333 50 -45 80h48c7.33301 -27.333 21.666 -46 42.999 -56s44.333 -15 69 -15s47.834 5 69.501 15s35.834 28.667 42.501 56h48
c-2.66699 -30 -17.667 -56.667 -45 -80s-65.666 -35 -114.999 -35z" />
    <glyph glyph-name="ibreve" unicode="&#x12d;" 
d="M299 0v465h-195v46h246v-511h-51zM104 0v46h436v-46h-436zM319 602c-32.667 0 -60.668 6.33301 -84.001 19s-41.333 29.334 -54 50.001s-20 42.667 -22 66h48c7.33301 -34.667 21.666 -58.5 42.999 -71.5s44.333 -19.5 69 -19.5s47.834 6.5 69.501 19.5
s35.834 36.833 42.501 71.5h48c-1.33301 -23.333 -8.5 -45.333 -21.5 -66s-31 -37.334 -54 -50.001s-51.167 -19 -84.5 -19z" />
    <glyph glyph-name="Iogonek" unicode="&#x12e;" 
d="M134 0v49h139v588h-139v49h332v-49h-139v-588h139v-49h-332zM388 -143c-14 0 -27.834 2.00293 -41.501 6.00293s-25 11 -34 21s-13.5 23.333 -13.5 40c0 17.333 5 32.666 15 45.999s20.333 23.333 31 30h50c-16 -8.66699 -28 -18.834 -36 -30.501
s-12 -22.834 -12 -33.501c0 -10 3.83301 -18.5 11.5 -25.5s18.834 -10.5 33.501 -10.5c12 0 23.5 1.5 34.5 4.5s21.833 6.16699 32.5 9.5l13 -33c-12.667 -8 -26.167 -14 -40.5 -18s-28.833 -6 -43.5 -6z" />
    <glyph glyph-name="iogonek" unicode="&#x12f;" 
d="M299 0v465h-195v46h246v-511h-51zM104 0v46h436v-46h-436zM286 620v73h65v-73h-65zM343 -143c-14 0 -27.834 2.00293 -41.501 6.00293s-25 11 -34 21s-13.5 23.333 -13.5 40c0 17.333 5 32.666 15 45.999s20.333 23.333 31 30h50c-16 -8.66699 -28 -18.834 -36 -30.501
s-12 -22.834 -12 -33.501c0 -10 3.83301 -18.5 11.5 -25.5s18.834 -10.5 33.501 -10.5c12 0 23.5 1.5 34.5 4.5s21.833 6.16699 32.5 9.5l13 -33c-12.667 -8 -26.167 -14 -40.5 -18s-28.833 -6 -43.5 -6z" />
    <glyph glyph-name="Idotaccent" unicode="&#x130;" 
d="M134 0v49h139v588h-139v49h332v-49h-139v-588h139v-49h-332zM265 784v69h66v-69h-66z" />
    <glyph glyph-name="dotlessi" unicode="&#x131;" 
d="M299 0v465h-195v46h246v-511h-51zM104 0v46h436v-46h-436z" />
    <glyph glyph-name="IJ" unicode="&#x132;" 
d="M90 298v388h54v-388h-54zM298 -10c-64.667 0 -115.5 16.6689 -152.5 50.002s-55.5 78.666 -55.5 135.999v42h54v-42c0 -42.667 14 -76.334 42 -101.001s66.333 -37 115 -37c48 0 85.833 12.333 113.5 37s41.5 58.334 41.5 101.001v510h54v-510
c0 -38.667 -8.33301 -71.834 -25 -99.501s-40.5 -49 -71.5 -64s-68.167 -22.5 -111.5 -22.5h-4z" />
    <glyph glyph-name="ij" unicode="&#x133;" 
d="M102 0v511h51v-511h-51zM77 625v95h100v-95h-100zM343 -186c-18.667 0 -37.334 2.50098 -56.001 7.50098s-34.667 11.5 -48 19.5v45c15.333 -8 31.833 -14.333 49.5 -19s33.834 -7 48.501 -7c16 0 31.5 2.16699 46.5 6.5s27.167 13.5 36.5 27.5s14 35 14 63v508h-140v46
h191v-556c0 -48.667 -13.333 -84.334 -40 -107.001s-60.667 -34 -102 -34zM404 625.001v95h100v-95h-100z" />
    <glyph glyph-name="Jcircumflex" unicode="&#x134;" 
d="M295 -10c-34.667 0 -66 6.66797 -94 20.001s-50.333 33.166 -67 59.499s-25 58.5 -25 96.5v19h50v-13c0 -47.333 13.5 -81.5 40.5 -102.5s59.833 -31.5 98.5 -31.5s71.5 10.667 98.5 32s40.5 55.333 40.5 102v514h54v-520c0 -38.667 -8.66699 -71 -26 -97
s-40.5 -45.667 -69.5 -59s-61.167 -20 -96.5 -20h-4zM311 761.001l122 122h62l122 -122h-66l-98 99h22l-98 -99h-66z" />
    <glyph glyph-name="jcircumflex" unicode="&#x135;" 
d="M208 -186c-18.667 0 -37.334 2.50098 -56.001 7.50098s-34.667 11.5 -48 19.5v45c15.333 -8 31.833 -14.333 49.5 -19s33.834 -7 48.501 -7c16 0 31.5 2.16699 46.5 6.5s27.167 13.5 36.5 27.5s14 35 14 63v508h-195v46h246v-556c0 -48.667 -13.333 -84.334 -40 -107.001
s-60.667 -34 -102 -34zM167 593.001l124 155h58l124 -155h-59l-109 136h30l-109 -136h-59z" />
    <glyph glyph-name="uni0136" unicode="&#x136;" 
d="M90 0v686h54v-407l363 407h64l-267 -299l275 -387h-68l-244 346l-123 -138v-208h-54zM260 -244v5c10 12.667 18.167 26.667 24.5 42s9.5 31.333 9.5 48h-28v81h64v-72c0 -16.667 -2.33301 -34.167 -7 -52.5s-13.667 -35.5 -27 -51.5h-36z" />
    <glyph glyph-name="uni0137" unicode="&#x137;" 
d="M93 0v720h51v-534l290 325h63l-215 -241l232 -270h-66l-200 232l-104 -105v-127h-51zM240 -244v5c10 12.667 18.167 26.667 24.5 42s9.5 31.333 9.5 48h-28v81h64v-72c0 -16.667 -2.33301 -34.167 -7 -52.5s-13.667 -35.5 -27 -51.5h-36z" />
    <glyph glyph-name="kgreenlandic" unicode="&#x138;" 
d="M93 0v511h51v-325l290 325h63l-215 -241l232 -270h-66l-200 232l-104 -105v-127h-51z" />
    <glyph glyph-name="Lacute" unicode="&#x139;" 
d="M120 0v686h54v-638h340l12 -48h-406zM111 756l105 135h67v-3l-119 -132h-53z" />
    <glyph glyph-name="lacute" unicode="&#x13a;" 
d="M279 0v675h-195v46h246v-721h-51zM84 0v46h436v-46h-436zM264 756l105 135h67v-3l-119 -132h-53z" />
    <glyph glyph-name="uni013B" unicode="&#x13b;" 
d="M120 0v686h54v-638h340l12 -48h-406zM285 -244v5c10 12.667 18.167 26.667 24.5 42s9.5 31.333 9.5 48h-28v81h64v-72c0 -16.667 -2.33301 -34.167 -7 -52.5s-13.667 -35.5 -27 -51.5h-36z" />
    <glyph glyph-name="uni013C" unicode="&#x13c;" 
d="M279 0v675h-195v46h246v-721h-51zM84 0v46h436v-46h-436zM260 -244v5c10 12.667 18.167 26.667 24.5 42s9.5 31.333 9.5 48h-28v81h64v-72c0 -16.667 -2.33301 -34.167 -7 -52.5s-13.667 -35.5 -27 -51.5h-36z" />
    <glyph glyph-name="Lcaron" unicode="&#x13d;" 
d="M120 0v686h54v-638h340l12 -48h-406zM422 514l-0.000976562 4.00098c10.667 13.333 19.334 27.666 26.001 42.999s9.66699 31.333 9 48h-30v82h69v-72c0 -16.667 -2.83301 -34.167 -8.5 -52.5s-15.167 -35.833 -28.5 -52.5h-37z" />
    <glyph glyph-name="lcaron" unicode="&#x13e;" 
d="M279 0v675h-195v46h246v-721h-51zM84 0v46h436v-46h-436zM391 514l-0.000976562 4.00098c10.667 13.333 19.334 27.666 26.001 42.999s9.66699 31.333 9 48h-30v82h69v-72c0 -16.667 -2.83301 -34.167 -8.5 -52.5s-15.167 -35.833 -28.5 -52.5h-37z" />
    <glyph glyph-name="Ldot" unicode="&#x13f;" 
d="M120 0v686h54v-638h340l12 -48h-406zM365 310v95h100v-95h-100z" />
    <glyph glyph-name="ldot" unicode="&#x140;" 
d="M279 0v675h-195v46h246v-721h-51zM84 0v46h436v-46h-436zM550 330v95h100v-95h-100z" />
    <glyph glyph-name="Lslash" unicode="&#x141;" 
d="M120 0v686h54v-638h340l12 -48h-406zM30 257v44l280 141v-44z" />
    <glyph glyph-name="lslash" unicode="&#x142;" 
d="M279 0v675h-195v46h246v-721h-51zM84 0v46h436v-46h-436zM119 258v45l360 180v-45z" />
    <glyph glyph-name="Nacute" unicode="&#x143;" 
d="M90 0v686h60l261 -498l44 -88h3v586h52v-686h-60l-272 514l-33 72h-3v-586h-52zM264 756l105 135h67v-3l-119 -132h-53z" />
    <glyph glyph-name="nacute" unicode="&#x144;" 
d="M102 0l0.000976562 511.001h40l9 -86c15.333 33.333 38 57.666 68 72.999s62 23 96 23c56 0 101.5 -16.333 136.5 -49s52.5 -83 52.5 -151v-321h-51v297c0 62.667 -12.5 108 -37.5 136s-60.167 42 -105.5 42c-32 0 -59.833 -8.16699 -83.5 -24.5
s-41.834 -38.5 -54.501 -66.5s-19 -60.333 -19 -97v-287h-51zM269.001 592.001l75 155h65v-3l-90 -152h-50z" />
    <glyph glyph-name="uni0145" unicode="&#x145;" 
d="M90 0v686h60l261 -498l44 -88h3v586h52v-686h-60l-272 514l-33 72h-3v-586h-52zM260 -244v5c10 12.667 18.167 26.667 24.5 42s9.5 31.333 9.5 48h-28v81h64v-72c0 -16.667 -2.33301 -34.167 -7 -52.5s-13.667 -35.5 -27 -51.5h-36z" />
    <glyph glyph-name="uni0146" unicode="&#x146;" 
d="M102 0l0.000976562 511.001h40l9 -86c15.333 33.333 38 57.666 68 72.999s62 23 96 23c56 0 101.5 -16.333 136.5 -49s52.5 -83 52.5 -151v-321h-51v297c0 62.667 -12.5 108 -37.5 136s-60.167 42 -105.5 42c-32 0 -59.833 -8.16699 -83.5 -24.5
s-41.834 -38.5 -54.501 -66.5s-19 -60.333 -19 -97v-287h-51zM269.001 -243.999v5c10 12.667 18.167 26.667 24.5 42s9.5 31.333 9.5 48h-28v81h64v-72c0 -16.667 -2.33301 -34.167 -7 -52.5s-13.667 -35.5 -27 -51.5h-36z" />
    <glyph glyph-name="Ncaron" unicode="&#x147;" 
d="M90 0v686h60l261 -498l44 -88h3v586h52v-686h-60l-272 514l-33 72h-3v-586h-52zM265 761l-132 115h70l110 -92h-26l110 92h70l-132 -115h-70z" />
    <glyph glyph-name="ncaron" unicode="&#x148;" 
d="M102 0l0.000976562 511.001h40l9 -86c15.333 33.333 38 57.666 68 72.999s62 23 96 23c56 0 101.5 -16.333 136.5 -49s52.5 -83 52.5 -151v-321h-51v297c0 62.667 -12.5 108 -37.5 136s-60.167 42 -105.5 42c-32 0 -59.833 -8.16699 -83.5 -24.5
s-41.834 -38.5 -54.501 -66.5s-19 -60.333 -19 -97v-287h-51zM462.001 748.001l-124 -155h-58l-124 155h59l109 -136h-30l109 136h59z" />
    <glyph glyph-name="napostrophe" unicode="&#x149;" 
d="M14 559v3.99805c9.33301 12 17 25 23 39s9 28.333 9 43h-26v74h61v-65c0 -15.333 -2.5 -31.166 -7.5 -47.499s-13.5 -32.166 -25.5 -47.499h-34zM102 -0.00195312l0.000976562 511.001h40l9 -86c15.333 33.333 38 57.666 68 72.999s62 23 96 23
c56 0 101.5 -16.333 136.5 -49s52.5 -83 52.5 -151v-321h-51v297c0 62.667 -12.5 108 -37.5 136s-60.167 42 -105.5 42c-32 0 -59.833 -8.16699 -83.5 -24.5s-41.834 -38.5 -54.501 -66.5s-19 -60.333 -19 -97v-287h-51z" />
    <glyph glyph-name="Eng" unicode="&#x14a;" 
d="M407 -186c-8 0 -16.1689 0.667969 -24.502 2.00098s-16.166 3.33301 -23.499 6s-14 5.66699 -20 9v45c9.33301 -4.66699 19.333 -8.5 30 -11.5s21.334 -4.5 32.001 -4.5c14 0 27.167 3.83301 39.5 11.5s18.5 26.167 18.5 55.5v55l-281 532l-33 72h-3v-586h-52v686h60
l261 -498l44 -88h3v586h52v-761c0 -38.667 -9.83301 -66.834 -29.5 -84.501s-44.167 -26.5 -73.5 -26.5z" />
    <glyph glyph-name="eng" unicode="&#x14b;" 
d="M401 -186c-8 0 -16.168 0.668945 -24.501 2.00195s-16.166 3.33301 -23.499 6s-14 5.66699 -20 9v45c9.33301 -4.66699 19.333 -8.5 30 -11.5s21.334 -4.5 32.001 -4.5c14 0 27.167 3.83301 39.5 11.5s18.5 26.167 18.5 55.5v370c0 62.667 -12.5 108 -37.5 136
s-60.167 42 -105.5 42c-32 0 -59.833 -8.16699 -83.5 -24.5s-41.834 -38.5 -54.501 -66.5s-19 -60.333 -19 -97v-287h-51v511h40l9 -86c15.333 33.333 38 57.666 68 72.999s62 23 96 23c56 0 101.5 -16.333 136.5 -49s52.5 -83 52.5 -151v-396
c0 -38.667 -9.83301 -66.834 -29.5 -84.501s-44.167 -26.5 -73.5 -26.5z" />
    <glyph glyph-name="Omacron" unicode="&#x14c;" 
d="M300 -10c-34 0 -65.833 4.66797 -95.5 14.001s-55.834 25.666 -78.501 48.999s-40.334 55.833 -53.001 97.5s-19 94.834 -19 159.501v66c0 64.667 6.5 117.834 19.5 159.501s31 74.167 54 97.5s49.167 39.666 78.5 48.999s60 14 92 14h3c34 0 65.833 -4.66699 95.5 -14
s55.667 -25.833 78 -49.5s39.833 -56.334 52.5 -98.001s19 -94.5 19 -158.5v-66c0 -64 -6.33301 -116.833 -19 -158.5s-30.167 -74.167 -52.5 -97.5s-48.166 -39.833 -77.499 -49.5s-60.666 -14.5 -93.999 -14.5h-3zM300 38.001c26.667 0 51.5 3.66699 74.5 11
s43.333 20.5 61 39.5s31.5 45.5 41.5 79.5s15 77.333 15 130v90c0 52.667 -5 96 -15 130s-23.833 60.5 -41.5 79.5s-38 32.167 -61 39.5s-47.833 11 -74.5 11s-51.5 -3.66699 -74.5 -11s-43.333 -20.5 -61 -39.5s-31.5 -45.5 -41.5 -79.5s-15 -77.333 -15 -130v-90
c0 -52.667 5 -96 15 -130s23.833 -60.5 41.5 -79.5s38 -32.167 61 -39.5s47.833 -11 74.5 -11zM150 792.001v44h298v-44h-298z" />
    <glyph glyph-name="omacron" unicode="&#x14d;" 
d="M300 -10c-46 0 -84.999 11.167 -116.999 33.5s-56.5 53 -73.5 92s-25.5 83.167 -25.5 132.5v15c0 50.667 8.5 95.334 25.5 134.001s41.667 69 74 91s71.166 33 116.499 33c46 0 85.167 -11.167 117.5 -33.5s56.833 -52.833 73.5 -91.5s25 -83 25 -133v-15
c0 -50.667 -8.5 -95.334 -25.5 -134.001s-41.5 -69 -73.5 -91s-71 -33 -117 -33zM300.001 36c48.667 0 88.334 17.667 119.001 53s46 86.333 46 153v27c0 66.667 -15.333 117.667 -46 153s-70.334 53 -119.001 53s-88.334 -17.667 -119.001 -53s-46 -86.333 -46 -153v-27
c0 -66.667 15.333 -117.667 46 -153s70.334 -53 119.001 -53zM151.001 633v44h298v-44h-298z" />
    <glyph glyph-name="Obreve" unicode="&#x14e;" 
d="M300 -10c-34 0 -65.833 4.66797 -95.5 14.001s-55.834 25.666 -78.501 48.999s-40.334 55.833 -53.001 97.5s-19 94.834 -19 159.501v66c0 64.667 6.5 117.834 19.5 159.501s31 74.167 54 97.5s49.167 39.666 78.5 48.999s60 14 92 14h3c34 0 65.833 -4.66699 95.5 -14
s55.667 -25.833 78 -49.5s39.833 -56.334 52.5 -98.001s19 -94.5 19 -158.5v-66c0 -64 -6.33301 -116.833 -19 -158.5s-30.167 -74.167 -52.5 -97.5s-48.166 -39.833 -77.499 -49.5s-60.666 -14.5 -93.999 -14.5h-3zM300 38.001c26.667 0 51.5 3.66699 74.5 11
s43.333 20.5 61 39.5s31.5 45.5 41.5 79.5s15 77.333 15 130v90c0 52.667 -5 96 -15 130s-23.833 60.5 -41.5 79.5s-38 32.167 -61 39.5s-47.833 11 -74.5 11s-51.5 -3.66699 -74.5 -11s-43.333 -20.5 -61 -39.5s-31.5 -45.5 -41.5 -79.5s-15 -77.333 -15 -130v-90
c0 -52.667 5 -96 15 -130s23.833 -60.5 41.5 -79.5s38 -32.167 61 -39.5s47.833 -11 74.5 -11zM296 761.001c-49.333 0 -87.6689 11.667 -115.002 35s-42.333 50 -45 80h48c7.33301 -27.333 21.666 -46 42.999 -56s44.333 -15 69 -15s47.834 5 69.501 15
s35.834 28.667 42.501 56h48c-2.66699 -30 -17.667 -56.667 -45 -80s-65.666 -35 -114.999 -35z" />
    <glyph glyph-name="obreve" unicode="&#x14f;" 
d="M300 -10c-46 0 -84.999 11.167 -116.999 33.5s-56.5 53 -73.5 92s-25.5 83.167 -25.5 132.5v15c0 50.667 8.5 95.334 25.5 134.001s41.667 69 74 91s71.166 33 116.499 33c46 0 85.167 -11.167 117.5 -33.5s56.833 -52.833 73.5 -91.5s25 -83 25 -133v-15
c0 -50.667 -8.5 -95.334 -25.5 -134.001s-41.5 -69 -73.5 -91s-71 -33 -117 -33zM300.001 36c48.667 0 88.334 17.667 119.001 53s46 86.333 46 153v27c0 66.667 -15.333 117.667 -46 153s-70.334 53 -119.001 53s-88.334 -17.667 -119.001 -53s-46 -86.333 -46 -153v-27
c0 -66.667 15.333 -117.667 46 -153s70.334 -53 119.001 -53zM299.001 602c-32.667 0 -60.668 6.33301 -84.001 19s-41.333 29.334 -54 50.001s-20 42.667 -22 66h48c7.33301 -34.667 21.666 -58.5 42.999 -71.5s44.333 -19.5 69 -19.5s47.834 6.5 69.501 19.5
s35.834 36.833 42.501 71.5h48c-1.33301 -23.333 -8.5 -45.333 -21.5 -66s-31 -37.334 -54 -50.001s-51.167 -19 -84.5 -19z" />
    <glyph glyph-name="Ohungarumlaut" unicode="&#x150;" 
d="M300 -10c-34 0 -65.833 4.66797 -95.5 14.001s-55.834 25.666 -78.501 48.999s-40.334 55.833 -53.001 97.5s-19 94.834 -19 159.501v66c0 64.667 6.5 117.834 19.5 159.501s31 74.167 54 97.5s49.167 39.666 78.5 48.999s60 14 92 14h3c34 0 65.833 -4.66699 95.5 -14
s55.667 -25.833 78 -49.5s39.833 -56.334 52.5 -98.001s19 -94.5 19 -158.5v-66c0 -64 -6.33301 -116.833 -19 -158.5s-30.167 -74.167 -52.5 -97.5s-48.166 -39.833 -77.499 -49.5s-60.666 -14.5 -93.999 -14.5h-3zM300 38.001c26.667 0 51.5 3.66699 74.5 11
s43.333 20.5 61 39.5s31.5 45.5 41.5 79.5s15 77.333 15 130v90c0 52.667 -5 96 -15 130s-23.833 60.5 -41.5 79.5s-38 32.167 -61 39.5s-47.833 11 -74.5 11s-51.5 -3.66699 -74.5 -11s-43.333 -20.5 -61 -39.5s-31.5 -45.5 -41.5 -79.5s-15 -77.333 -15 -130v-90
c0 -52.667 5 -96 15 -130s23.833 -60.5 41.5 -79.5s38 -32.167 61 -39.5s47.833 -11 74.5 -11zM315 751.001l106 135h64l1 -3l-110 -132h-61zM186 751.001l106 135h64l1 -3l-110 -132h-61z" />
    <glyph glyph-name="ohungarumlaut" unicode="&#x151;" 
d="M300 -10c-46 0 -84.999 11.167 -116.999 33.5s-56.5 53 -73.5 92s-25.5 83.167 -25.5 132.5v15c0 50.667 8.5 95.334 25.5 134.001s41.667 69 74 91s71.166 33 116.499 33c46 0 85.167 -11.167 117.5 -33.5s56.833 -52.833 73.5 -91.5s25 -83 25 -133v-15
c0 -50.667 -8.5 -95.334 -25.5 -134.001s-41.5 -69 -73.5 -91s-71 -33 -117 -33zM300.001 36c48.667 0 88.334 17.667 119.001 53s46 86.333 46 153v27c0 66.667 -15.333 117.667 -46 153s-70.334 53 -119.001 53s-88.334 -17.667 -119.001 -53s-46 -86.333 -46 -153v-27
c0 -66.667 15.333 -117.667 46 -153s70.334 -53 119.001 -53zM322.001 595l86 145h74l1 -3l-111 -142h-50zM197.001 595l86 145h74l1 -3l-111 -142h-50z" />
    <glyph glyph-name="OE" unicode="&#x152;" 
d="M250 0c-26.667 0 -52 3.5 -76 10.5s-44.833 20.333 -62.5 40s-31.667 48 -42 85s-15.5 85.167 -15.5 144.5v126c0 58 5.16699 105.333 15.5 142s24.333 65 42 85s38.5 33.833 62.5 41.5s49.333 11.5 76 11.5h326l-10 -48h-180v-264h159v-48h-159v-278h189l11 -48h-336z
M250 48h82v590h-82c-26 0 -49.833 -5.5 -71.5 -16.5s-38.834 -32.167 -51.501 -63.5s-19 -78 -19 -140v-150c0 -61.333 6.33301 -107.833 19 -139.5s29.834 -53 51.501 -64s45.5 -16.5 71.5 -16.5z" />
    <glyph glyph-name="oe" unicode="&#x153;" 
d="M173 -10c-50 0 -88.002 19.332 -114.002 57.999s-39 95.334 -39 170.001v75c0 75.333 12.833 132.166 38.5 170.499s63.5 57.5 113.5 57.5h4c33.333 0 61 -9.16699 83 -27.5s39.333 -45.166 52 -80.499h-7c6 22.667 15 42 27 58s26.5 28.333 43.5 37s35.5 13 55.5 13h4
c46 0 81.833 -19.833 107.5 -59.5s38.5 -94.834 38.5 -165.501v-46h-251c0 -70 8.66699 -123.167 26 -159.5s43 -54.5 77 -54.5c32.667 0 57.167 12.833 73.5 38.5s24.5 63.834 24.5 114.501h50c0 -66 -12.167 -115.667 -36.5 -149s-60.166 -50 -107.499 -50h-5
c-33.333 0 -62.5 12.5 -87.5 37.5s-40.167 61.833 -45.5 110.5l16 1c-4 -34.667 -12.667 -63 -26 -85s-29.666 -38.167 -48.999 -48.5s-40.333 -15.5 -63 -15.5h-3zM173.998 35.999c34 0 59.667 14.833 77 44.5s26 73.5 26 131.5v87c0 58 -8.66699 101.833 -26 131.5
s-43 44.5 -77 44.5s-59.667 -14.833 -77 -44.5s-26 -73.5 -26 -131.5v-87c0 -58 8.66699 -101.833 26 -131.5s43 -44.5 77 -44.5zM329.998 295.999h200c0 56.667 -8.66699 100.667 -26 132s-41.666 47 -72.999 47c-30.667 0 -54.334 -14.833 -71.001 -44.5
s-26.667 -74.5 -30 -134.5z" />
    <glyph glyph-name="Racute" unicode="&#x154;" 
d="M562 -3c-10 0 -21.168 3 -33.501 9s-22.833 18.333 -31.5 37s-13 46.667 -13 84c0 44 -5 78.667 -15 104s-22.5 44.166 -37.5 56.499s-29.5 20.166 -43.5 23.499s-25 5 -33 5h-211v-316h-54v686h279c32.667 0 62.5 -7 89.5 -21s48.833 -34 65.5 -60s25 -57.333 25 -94
c0 -41.333 -11.167 -77.666 -33.5 -108.999s-50.833 -50.666 -85.5 -57.999v-5c22 -6 41 -17.5 57 -34.5s28.167 -38.333 36.5 -64s12.5 -54.834 12.5 -87.501c0 -46.667 3.5 -79.167 10.5 -97.5s20.5 -30.166 40.5 -35.499v-19
c-0.666992 -0.666992 -3.16699 -1.5 -7.5 -2.5s-10.166 -1.5 -17.499 -1.5zM143.999 364h210c43.333 0 77.833 13.5 103.5 40.5s38.5 61.167 38.5 102.5c0 43.333 -12.5 76 -37.5 98s-57.167 33 -96.5 33h-218v-274zM275.999 756l105 135h67v-3l-119 -132h-53z" />
    <glyph glyph-name="racute" unicode="&#x155;" 
d="M193 0l-0.00195312 464.998h-149v46h189l5 -84c12 31.333 31.333 54.833 58 70.5s55.667 23.5 87 23.5c52.667 0 93.167 -16.167 121.5 -48.5s42.5 -72.5 42.5 -120.5v-10.5c0 -3 -0.666992 -7.5 -2 -13.5h-47v16c0 22.667 -4.16699 43.834 -12.5 63.501
s-21.666 35.834 -39.999 48.501s-42.5 19 -72.5 19c-29.333 0 -53.666 -8.5 -72.999 -25.5s-33.5 -38.5 -42.5 -64.5s-13.5 -53 -13.5 -81v-304h-51zM36.998 -0.00195312v46h466v-46h-466zM279.998 591.998l75 155h65v-3l-90 -152h-50z" />
    <glyph glyph-name="uni0156" unicode="&#x156;" 
d="M562 -3c-10 0 -21.168 3 -33.501 9s-22.833 18.333 -31.5 37s-13 46.667 -13 84c0 44 -5 78.667 -15 104s-22.5 44.166 -37.5 56.499s-29.5 20.166 -43.5 23.499s-25 5 -33 5h-211v-316h-54v686h279c32.667 0 62.5 -7 89.5 -21s48.833 -34 65.5 -60s25 -57.333 25 -94
c0 -41.333 -11.167 -77.666 -33.5 -108.999s-50.833 -50.666 -85.5 -57.999v-5c22 -6 41 -17.5 57 -34.5s28.167 -38.333 36.5 -64s12.5 -54.834 12.5 -87.501c0 -46.667 3.5 -79.167 10.5 -97.5s20.5 -30.166 40.5 -35.499v-19
c-0.666992 -0.666992 -3.16699 -1.5 -7.5 -2.5s-10.166 -1.5 -17.499 -1.5zM143.999 364h210c43.333 0 77.833 13.5 103.5 40.5s38.5 61.167 38.5 102.5c0 43.333 -12.5 76 -37.5 98s-57.167 33 -96.5 33h-218v-274zM274.999 -244v5c10 12.667 18.167 26.667 24.5 42
s9.5 31.333 9.5 48h-28v81h64v-72c0 -16.667 -2.33301 -34.167 -7 -52.5s-13.667 -35.5 -27 -51.5h-36z" />
    <glyph glyph-name="uni0157" unicode="&#x157;" 
d="M193 0l-0.00195312 464.998h-149v46h189l5 -84c12 31.333 31.333 54.833 58 70.5s55.667 23.5 87 23.5c52.667 0 93.167 -16.167 121.5 -48.5s42.5 -72.5 42.5 -120.5v-10.5c0 -3 -0.666992 -7.5 -2 -13.5h-47v16c0 22.667 -4.16699 43.834 -12.5 63.501
s-21.666 35.834 -39.999 48.501s-42.5 19 -72.5 19c-29.333 0 -53.666 -8.5 -72.999 -25.5s-33.5 -38.5 -42.5 -64.5s-13.5 -53 -13.5 -81v-304h-51zM36.998 -0.00195312v46h466v-46h-466zM239.998 -244.002v5c10 12.667 18.167 26.667 24.5 42s9.5 31.333 9.5 48h-28v81h64
v-72c0 -16.667 -2.33301 -34.167 -7 -52.5s-13.667 -35.5 -27 -51.5h-36z" />
    <glyph glyph-name="Rcaron" unicode="&#x158;" 
d="M562 -3c-10 0 -21.168 3 -33.501 9s-22.833 18.333 -31.5 37s-13 46.667 -13 84c0 44 -5 78.667 -15 104s-22.5 44.166 -37.5 56.499s-29.5 20.166 -43.5 23.499s-25 5 -33 5h-211v-316h-54v686h279c32.667 0 62.5 -7 89.5 -21s48.833 -34 65.5 -60s25 -57.333 25 -94
c0 -41.333 -11.167 -77.666 -33.5 -108.999s-50.833 -50.666 -85.5 -57.999v-5c22 -6 41 -17.5 57 -34.5s28.167 -38.333 36.5 -64s12.5 -54.834 12.5 -87.501c0 -46.667 3.5 -79.167 10.5 -97.5s20.5 -30.166 40.5 -35.499v-19
c-0.666992 -0.666992 -3.16699 -1.5 -7.5 -2.5s-10.166 -1.5 -17.499 -1.5zM143.999 364h210c43.333 0 77.833 13.5 103.5 40.5s38.5 61.167 38.5 102.5c0 43.333 -12.5 76 -37.5 98s-57.167 33 -96.5 33h-218v-274zM276.999 761l-132 115h70l110 -92h-26l110 92h70
l-132 -115h-70z" />
    <glyph glyph-name="rcaron" unicode="&#x159;" 
d="M193 0l-0.00195312 464.998h-149v46h189l5 -84c12 31.333 31.333 54.833 58 70.5s55.667 23.5 87 23.5c52.667 0 93.167 -16.167 121.5 -48.5s42.5 -72.5 42.5 -120.5v-10.5c0 -3 -0.666992 -7.5 -2 -13.5h-47v16c0 22.667 -4.16699 43.834 -12.5 63.501
s-21.666 35.834 -39.999 48.501s-42.5 19 -72.5 19c-29.333 0 -53.666 -8.5 -72.999 -25.5s-33.5 -38.5 -42.5 -64.5s-13.5 -53 -13.5 -81v-304h-51zM36.998 -0.00195312v46h466v-46h-466zM472.998 747.998l-124 -155h-58l-124 155h59l109 -136h-30l109 136h59z" />
    <glyph glyph-name="Sacute" unicode="&#x15a;" 
d="M303 -10c-34 0 -65.9971 3.33008 -95.9971 9.99707s-56.333 17.667 -79 33s-40.5 35.666 -53.5 60.999s-19.5 56.333 -19.5 93v9c0 3.33301 0.333008 6.33301 1 9h51c-0.666992 -4.66699 -1 -9.16699 -1 -13.5v-13.5c0 -34.667 8.66699 -62.167 26 -82.5
s40.5 -35 69.5 -44s61.5 -13.5 97.5 -13.5s68.667 4.33301 98 13s52.666 23.834 69.999 45.501s26 51.167 26 88.5c0 30 -7.66699 54.167 -23 72.5s-35.5 33 -60.5 44s-52.5 20.333 -82.5 28s-59.833 15.834 -89.5 24.501s-57 19.667 -82 33s-45.167 31.166 -60.5 53.499
s-23 51.5 -23 87.5c0 39.333 10.5 71.333 31.5 96s48.833 42.834 83.5 54.501s72 17.5 112 17.5c42 0 80.167 -6 114.5 -18s61.666 -31.167 81.999 -57.5s30.5 -61.166 30.5 -104.499v-13h-50v22c0 28 -8 51 -24 69s-37.167 31.5 -63.5 40.5s-55.833 13.5 -88.5 13.5
c-32 0 -61.333 -4 -88 -12s-47.834 -21 -63.501 -39s-23.5 -42 -23.5 -72c0 -27.333 7.66699 -49.333 23 -66s35.5 -30 60.5 -40s52.5 -18.667 82.5 -26s59.833 -15.333 89.5 -24s57 -20 82 -34s45.167 -32.667 60.5 -56s23 -53.666 23 -90.999
c0 -48.667 -11.167 -87.5 -33.5 -116.5s-51.833 -49.833 -88.5 -62.5s-77 -19 -121 -19zM264.003 755.997l105 135h67v-3l-119 -132h-53z" />
    <glyph glyph-name="sacute" unicode="&#x15b;" 
d="M297 -10c-40 0 -75.1689 6.00391 -105.502 18.0039s-54.166 28.833 -71.499 50.5s-26 46.167 -26 73.5v9.5c0 5 0.333008 10.167 1 15.5h49v-14c0 -33.333 14.667 -59.5 44 -78.5s70 -28.5 122 -28.5c45.333 0 80.833 9 106.5 27s38.5 42.333 38.5 73
c0 19.333 -4.83301 35.333 -14.5 48s-26.167 23.5 -49.5 32.5s-55 17.167 -95 24.5c-46.667 9.33301 -83.667 19.833 -111 31.5s-46.833 26.334 -58.5 44.001s-17.5 39.167 -17.5 64.5c0 29.333 7.83301 54.5 23.5 75.5s38.334 37 68.001 48s65.167 16.5 106.5 16.5
c36.667 0 69 -5.83301 97 -17.5s50 -27.834 66 -48.501s24 -44.667 24 -72v-5c0 -2 -0.333008 -5 -1 -9h-50c0 30.667 -7 53.5 -21 68.5s-32 25 -54 30s-45.333 7.5 -70 7.5c-92 0 -138 -30.667 -138 -92c0 -16 4.33301 -29.167 13 -39.5s24.167 -19.5 46.5 -27.5
s53.5 -16.667 93.5 -26c49.333 -10.667 88 -22.334 116 -35.001s47.833 -28.334 59.5 -47.001s17.5 -42.667 17.5 -72c0 -30.667 -7.83301 -56.834 -23.5 -78.501s-39 -38.334 -70 -50.001s-69.5 -17.5 -115.5 -17.5zM259.998 592.004l75 155h65v-3l-90 -152h-50z" />
    <glyph glyph-name="Scircumflex" unicode="&#x15c;" 
d="M303 -10c-34 0 -65.9971 3.33008 -95.9971 9.99707s-56.333 17.667 -79 33s-40.5 35.666 -53.5 60.999s-19.5 56.333 -19.5 93v9c0 3.33301 0.333008 6.33301 1 9h51c-0.666992 -4.66699 -1 -9.16699 -1 -13.5v-13.5c0 -34.667 8.66699 -62.167 26 -82.5
s40.5 -35 69.5 -44s61.5 -13.5 97.5 -13.5s68.667 4.33301 98 13s52.666 23.834 69.999 45.501s26 51.167 26 88.5c0 30 -7.66699 54.167 -23 72.5s-35.5 33 -60.5 44s-52.5 20.333 -82.5 28s-59.833 15.834 -89.5 24.501s-57 19.667 -82 33s-45.167 31.166 -60.5 53.499
s-23 51.5 -23 87.5c0 39.333 10.5 71.333 31.5 96s48.833 42.834 83.5 54.501s72 17.5 112 17.5c42 0 80.167 -6 114.5 -18s61.666 -31.167 81.999 -57.5s30.5 -61.166 30.5 -104.499v-13h-50v22c0 28 -8 51 -24 69s-37.167 31.5 -63.5 40.5s-55.833 13.5 -88.5 13.5
c-32 0 -61.333 -4 -88 -12s-47.834 -21 -63.501 -39s-23.5 -42 -23.5 -72c0 -27.333 7.66699 -49.333 23 -66s35.5 -30 60.5 -40s52.5 -18.667 82.5 -26s59.833 -15.333 89.5 -24s57 -20 82 -34s45.167 -32.667 60.5 -56s23 -53.666 23 -90.999
c0 -48.667 -11.167 -87.5 -33.5 -116.5s-51.833 -49.833 -88.5 -62.5s-77 -19 -121 -19zM146.003 760.997l122 122h62l122 -122h-66l-98 99h22l-98 -99h-66z" />
    <glyph glyph-name="scircumflex" unicode="&#x15d;" 
d="M297 -10c-40 0 -75.1689 6.00391 -105.502 18.0039s-54.166 28.833 -71.499 50.5s-26 46.167 -26 73.5v9.5c0 5 0.333008 10.167 1 15.5h49v-14c0 -33.333 14.667 -59.5 44 -78.5s70 -28.5 122 -28.5c45.333 0 80.833 9 106.5 27s38.5 42.333 38.5 73
c0 19.333 -4.83301 35.333 -14.5 48s-26.167 23.5 -49.5 32.5s-55 17.167 -95 24.5c-46.667 9.33301 -83.667 19.833 -111 31.5s-46.833 26.334 -58.5 44.001s-17.5 39.167 -17.5 64.5c0 29.333 7.83301 54.5 23.5 75.5s38.334 37 68.001 48s65.167 16.5 106.5 16.5
c36.667 0 69 -5.83301 97 -17.5s50 -27.834 66 -48.501s24 -44.667 24 -72v-5c0 -2 -0.333008 -5 -1 -9h-50c0 30.667 -7 53.5 -21 68.5s-32 25 -54 30s-45.333 7.5 -70 7.5c-92 0 -138 -30.667 -138 -92c0 -16 4.33301 -29.167 13 -39.5s24.167 -19.5 46.5 -27.5
s53.5 -16.667 93.5 -26c49.333 -10.667 88 -22.334 116 -35.001s47.833 -28.334 59.5 -47.001s17.5 -42.667 17.5 -72c0 -30.667 -7.83301 -56.834 -23.5 -78.501s-39 -38.334 -70 -50.001s-69.5 -17.5 -115.5 -17.5zM146.998 593.004l124 155h58l124 -155h-59l-109 136h30
l-109 -136h-59z" />
    <glyph glyph-name="Scedilla" unicode="&#x15e;" 
d="M303 -10c-34 0 -65.9971 3.33008 -95.9971 9.99707s-56.333 17.667 -79 33s-40.5 35.666 -53.5 60.999s-19.5 56.333 -19.5 93v9c0 3.33301 0.333008 6.33301 1 9h51c-0.666992 -4.66699 -1 -9.16699 -1 -13.5v-13.5c0 -34.667 8.66699 -62.167 26 -82.5
s40.5 -35 69.5 -44s61.5 -13.5 97.5 -13.5s68.667 4.33301 98 13s52.666 23.834 69.999 45.501s26 51.167 26 88.5c0 30 -7.66699 54.167 -23 72.5s-35.5 33 -60.5 44s-52.5 20.333 -82.5 28s-59.833 15.834 -89.5 24.501s-57 19.667 -82 33s-45.167 31.166 -60.5 53.499
s-23 51.5 -23 87.5c0 39.333 10.5 71.333 31.5 96s48.833 42.834 83.5 54.501s72 17.5 112 17.5c42 0 80.167 -6 114.5 -18s61.666 -31.167 81.999 -57.5s30.5 -61.166 30.5 -104.499v-13h-50v22c0 28 -8 51 -24 69s-37.167 31.5 -63.5 40.5s-55.833 13.5 -88.5 13.5
c-32 0 -61.333 -4 -88 -12s-47.834 -21 -63.501 -39s-23.5 -42 -23.5 -72c0 -27.333 7.66699 -49.333 23 -66s35.5 -30 60.5 -40s52.5 -18.667 82.5 -26s59.833 -15.333 89.5 -24s57 -20 82 -34s45.167 -32.667 60.5 -56s23 -53.666 23 -90.999
c0 -48.667 -11.167 -87.5 -33.5 -116.5s-51.833 -49.833 -88.5 -62.5s-77 -19 -121 -19zM280.003 -207.003c-12.667 0 -25.835 1.00098 -39.502 3.00098s-26.5 5.33301 -38.5 10v46c4.66699 -2 10.167 -4 16.5 -6s14 -3.66699 23 -5s18.833 -2 29.5 -2
c18.667 0 36 3.66699 52 11s24 21.666 24 42.999c0 15.333 -6.33301 26.833 -19 34.5s-25.667 11.5 -39 11.5h-22v34h25c18 0 35.167 -2.66699 51.5 -8s29.5 -14.333 39.5 -27s15 -30.667 15 -54c0 -24 -6.66699 -42.667 -20 -56s-29.166 -22.5 -47.499 -27.5
s-35.166 -7.5 -50.499 -7.5z" />
    <glyph glyph-name="scedilla" unicode="&#x15f;" 
d="M297 -10c-40 0 -75.1689 6.00391 -105.502 18.0039s-54.166 28.833 -71.499 50.5s-26 46.167 -26 73.5v9.5c0 5 0.333008 10.167 1 15.5h49v-14c0 -33.333 14.667 -59.5 44 -78.5s70 -28.5 122 -28.5c45.333 0 80.833 9 106.5 27s38.5 42.333 38.5 73
c0 19.333 -4.83301 35.333 -14.5 48s-26.167 23.5 -49.5 32.5s-55 17.167 -95 24.5c-46.667 9.33301 -83.667 19.833 -111 31.5s-46.833 26.334 -58.5 44.001s-17.5 39.167 -17.5 64.5c0 29.333 7.83301 54.5 23.5 75.5s38.334 37 68.001 48s65.167 16.5 106.5 16.5
c36.667 0 69 -5.83301 97 -17.5s50 -27.834 66 -48.501s24 -44.667 24 -72v-5c0 -2 -0.333008 -5 -1 -9h-50c0 30.667 -7 53.5 -21 68.5s-32 25 -54 30s-45.333 7.5 -70 7.5c-92 0 -138 -30.667 -138 -92c0 -16 4.33301 -29.167 13 -39.5s24.167 -19.5 46.5 -27.5
s53.5 -16.667 93.5 -26c49.333 -10.667 88 -22.334 116 -35.001s47.833 -28.334 59.5 -47.001s17.5 -42.667 17.5 -72c0 -30.667 -7.83301 -56.834 -23.5 -78.501s-39 -38.334 -70 -50.001s-69.5 -17.5 -115.5 -17.5zM279.998 -206.996
c-12.667 0 -25.835 1.00098 -39.502 3.00098s-26.5 5.33301 -38.5 10v46c4.66699 -2 10.167 -4 16.5 -6s14 -3.66699 23 -5s18.833 -2 29.5 -2c18.667 0 36 3.66699 52 11s24 21.666 24 42.999c0 15.333 -6.33301 26.833 -19 34.5s-25.667 11.5 -39 11.5h-22v34h25
c18 0 35.167 -2.66699 51.5 -8s29.5 -14.333 39.5 -27s15 -30.667 15 -54c0 -24 -6.66699 -42.667 -20 -56s-29.166 -22.5 -47.499 -27.5s-35.166 -7.5 -50.499 -7.5z" />
    <glyph glyph-name="Scaron" unicode="&#x160;" 
d="M303 -10c-34 0 -65.9971 3.33008 -95.9971 9.99707s-56.333 17.667 -79 33s-40.5 35.666 -53.5 60.999s-19.5 56.333 -19.5 93v9c0 3.33301 0.333008 6.33301 1 9h51c-0.666992 -4.66699 -1 -9.16699 -1 -13.5v-13.5c0 -34.667 8.66699 -62.167 26 -82.5
s40.5 -35 69.5 -44s61.5 -13.5 97.5 -13.5s68.667 4.33301 98 13s52.666 23.834 69.999 45.501s26 51.167 26 88.5c0 30 -7.66699 54.167 -23 72.5s-35.5 33 -60.5 44s-52.5 20.333 -82.5 28s-59.833 15.834 -89.5 24.501s-57 19.667 -82 33s-45.167 31.166 -60.5 53.499
s-23 51.5 -23 87.5c0 39.333 10.5 71.333 31.5 96s48.833 42.834 83.5 54.501s72 17.5 112 17.5c42 0 80.167 -6 114.5 -18s61.666 -31.167 81.999 -57.5s30.5 -61.166 30.5 -104.499v-13h-50v22c0 28 -8 51 -24 69s-37.167 31.5 -63.5 40.5s-55.833 13.5 -88.5 13.5
c-32 0 -61.333 -4 -88 -12s-47.834 -21 -63.501 -39s-23.5 -42 -23.5 -72c0 -27.333 7.66699 -49.333 23 -66s35.5 -30 60.5 -40s52.5 -18.667 82.5 -26s59.833 -15.333 89.5 -24s57 -20 82 -34s45.167 -32.667 60.5 -56s23 -53.666 23 -90.999
c0 -48.667 -11.167 -87.5 -33.5 -116.5s-51.833 -49.833 -88.5 -62.5s-77 -19 -121 -19zM265.003 760.997l-132 115h70l110 -92h-26l110 92h70l-132 -115h-70z" />
    <glyph glyph-name="scaron" unicode="&#x161;" 
d="M297 -10c-40 0 -75.1689 6.00391 -105.502 18.0039s-54.166 28.833 -71.499 50.5s-26 46.167 -26 73.5v9.5c0 5 0.333008 10.167 1 15.5h49v-14c0 -33.333 14.667 -59.5 44 -78.5s70 -28.5 122 -28.5c45.333 0 80.833 9 106.5 27s38.5 42.333 38.5 73
c0 19.333 -4.83301 35.333 -14.5 48s-26.167 23.5 -49.5 32.5s-55 17.167 -95 24.5c-46.667 9.33301 -83.667 19.833 -111 31.5s-46.833 26.334 -58.5 44.001s-17.5 39.167 -17.5 64.5c0 29.333 7.83301 54.5 23.5 75.5s38.334 37 68.001 48s65.167 16.5 106.5 16.5
c36.667 0 69 -5.83301 97 -17.5s50 -27.834 66 -48.501s24 -44.667 24 -72v-5c0 -2 -0.333008 -5 -1 -9h-50c0 30.667 -7 53.5 -21 68.5s-32 25 -54 30s-45.333 7.5 -70 7.5c-92 0 -138 -30.667 -138 -92c0 -16 4.33301 -29.167 13 -39.5s24.167 -19.5 46.5 -27.5
s53.5 -16.667 93.5 -26c49.333 -10.667 88 -22.334 116 -35.001s47.833 -28.334 59.5 -47.001s17.5 -42.667 17.5 -72c0 -30.667 -7.83301 -56.834 -23.5 -78.501s-39 -38.334 -70 -50.001s-69.5 -17.5 -115.5 -17.5zM452.998 748.004l-124 -155h-58l-124 155h59l109 -136
h-30l109 136h59z" />
    <glyph glyph-name="uni0162" unicode="&#x162;" 
d="M274 0v638h-232v48h516v-48h-232v-638h-52zM280 -207c-12.667 0 -25.835 1.00098 -39.502 3.00098s-26.5 5.33301 -38.5 10v46c4.66699 -2 10.167 -4 16.5 -6s14 -3.66699 23 -5s18.833 -2 29.5 -2c18.667 0 36 3.66699 52 11s24 21.666 24 42.999
c0 15.333 -6.33301 26.833 -19 34.5s-25.667 11.5 -39 11.5h-22v34h25c18 0 35.167 -2.66699 51.5 -8s29.5 -14.333 39.5 -27s15 -30.667 15 -54c0 -24 -6.66699 -42.667 -20 -56s-29.166 -22.5 -47.499 -27.5s-35.166 -7.5 -50.499 -7.5z" />
    <glyph glyph-name="uni0163" unicode="&#x163;" 
d="M393 -10c-52.667 0 -95.5 12.167 -128.5 36.5s-49.5 62.5 -49.5 114.5v324h-161v46h161l18 163h33v-163h247v-46h-247v-322c0 -27.333 5.5 -48.833 16.5 -64.5s26.5 -26.667 46.5 -33s43.333 -9.5 70 -9.5c23.333 0 44.333 3.16699 63 9.5s35.667 12.833 51 19.5v-46
c-14.667 -8.66699 -33 -15.667 -55 -21s-43.667 -8 -65 -8zM340 -207c-12.667 0 -25.835 1.00098 -39.502 3.00098s-26.5 5.33301 -38.5 10v46c4.66699 -2 10.167 -4 16.5 -6s14 -3.66699 23 -5s18.833 -2 29.5 -2c18.667 0 36 3.66699 52 11s24 21.666 24 42.999
c0 15.333 -6.33301 26.833 -19 34.5s-25.667 11.5 -39 11.5h-22v34h25c18 0 35.167 -2.66699 51.5 -8s29.5 -14.333 39.5 -27s15 -30.667 15 -54c0 -24 -6.66699 -42.667 -20 -56s-29.166 -22.5 -47.499 -27.5s-35.166 -7.5 -50.499 -7.5z" />
    <glyph glyph-name="Tcaron" unicode="&#x164;" 
d="M274 0v638h-232v48h516v-48h-232v-638h-52zM265 761l-132 115h70l110 -92h-26l110 92h70l-132 -115h-70z" />
    <glyph glyph-name="tcaron" unicode="&#x165;" 
d="M393 -10c-52.667 0 -95.5 12.167 -128.5 36.5s-49.5 62.5 -49.5 114.5v324h-161v46h161l18 163h33v-163h247v-46h-247v-322c0 -27.333 5.5 -48.833 16.5 -64.5s26.5 -26.667 46.5 -33s43.333 -9.5 70 -9.5c23.333 0 44.333 3.16699 63 9.5s35.667 12.833 51 19.5v-46
c-14.667 -8.66699 -33 -15.667 -55 -21s-43.667 -8 -65 -8zM377 553l-0.000976562 4.00098c10.667 13.333 19.334 27.666 26.001 42.999s9.66699 31.333 9 48h-30v82h69v-72c0 -16.667 -2.83301 -34.167 -8.5 -52.5s-15.167 -35.833 -28.5 -52.5h-37z" />
    <glyph glyph-name="Tbar" unicode="&#x166;" 
d="M274 0v638h-232v48h516v-48h-232v-638h-52zM125 317v45h350v-45h-350z" />
    <glyph glyph-name="tbar" unicode="&#x167;" 
d="M393 -10c-52.667 0 -95.5 12.167 -128.5 36.5s-49.5 62.5 -49.5 114.5v324h-161v46h161l18 163h33v-163h247v-46h-247v-322c0 -27.333 5.5 -48.833 16.5 -64.5s26.5 -26.667 46.5 -33s43.333 -9.5 70 -9.5c23.333 0 44.333 3.16699 63 9.5s35.667 12.833 51 19.5v-46
c-14.667 -8.66699 -33 -15.667 -55 -21s-43.667 -8 -65 -8zM95 253v45h350v-45h-350z" />
    <glyph glyph-name="Utilde" unicode="&#x168;" 
d="M297 -10c-68 0 -121 20.167 -159 60.5s-57 96.833 -57 169.5v466h54v-466c0 -56.667 14.5 -101.167 43.5 -133.5s69.5 -48.5 121.5 -48.5s92.5 16.167 121.5 48.5s43.5 76.833 43.5 133.5v466h54v-466c0 -72.667 -19 -129.167 -57 -169.5s-91 -60.5 -159 -60.5h-6z
M139 780c1.33301 13.333 5.16895 26.666 11.502 39.999s16 24.5 29 33.5s29.5 13.5 49.5 13.5c19.333 0 37.5 -3.66699 54.5 -11s33.167 -14.666 48.5 -21.999s29.333 -11 42 -11c14 0 25 4 33 12s13.333 18.333 16 31h38
c-0.666992 -13.333 -4.33398 -26.666 -11.001 -39.999s-16.334 -24.5 -29.001 -33.5s-28.667 -13.5 -48 -13.5c-18.667 0 -36.5 3.66699 -53.5 11s-33.167 14.666 -48.5 21.999s-30 11 -44 11c-14.667 0 -26 -3.83301 -34 -11.5s-13.333 -18.167 -16 -31.5h-38z" />
    <glyph glyph-name="utilde" unicode="&#x169;" 
d="M275 -10c-55.333 0 -100.001 16.001 -134.001 48.001s-51 80 -51 144v329h51v-314c0 -54 12.333 -94.333 37 -121s59.667 -40 105 -40c30.667 0 57.5 7.83301 80.5 23.5s41.167 36.5 54.5 62.5s20 54.333 20 85v304h51v-442c0 -10.667 2.83301 -18.834 8.5 -24.501
s13.834 -8.5 24.501 -8.5c7.33301 0 15.333 1 24 3s17.667 6.33301 27 13v-43c-8.66699 -6.66699 -18 -11.5 -28 -14.5s-20.667 -4.5 -32 -4.5c-20 0 -35.167 3.83301 -45.5 11.5s-17.333 18.667 -21 33s-5.83398 31.5 -6.50098 51.5c-10 -22.667 -23.667 -41 -41 -55
s-36.666 -24.333 -57.999 -31s-43.333 -10 -66 -10zM125.999 616.001c1.33301 14.667 5.16895 29.667 11.502 45s16 28.166 29 38.499s29.5 15.5 49.5 15.5c19.333 0 37.5 -4.66699 54.5 -14s33.167 -18.666 48.5 -27.999s29.333 -14 42 -14c14 0 25 5 33 15
s13.333 23.333 16 40h38c-0.666992 -15.333 -4.33398 -30.666 -11.001 -45.999s-16.334 -28 -29.001 -38s-28.667 -15 -48 -15c-18.667 0 -36.5 4.66699 -53.5 14s-33.167 18.666 -48.5 27.999s-30 14 -44 14c-14.667 0 -26 -5 -34 -15s-13.333 -23.333 -16 -40h-38z" />
    <glyph glyph-name="Umacron" unicode="&#x16a;" 
d="M297 -10c-68 0 -121 20.167 -159 60.5s-57 96.833 -57 169.5v466h54v-466c0 -56.667 14.5 -101.167 43.5 -133.5s69.5 -48.5 121.5 -48.5s92.5 16.167 121.5 48.5s43.5 76.833 43.5 133.5v466h54v-466c0 -72.667 -19 -129.167 -57 -169.5s-91 -60.5 -159 -60.5h-6z
M150 792v44h298v-44h-298z" />
    <glyph glyph-name="umacron" unicode="&#x16b;" 
d="M275 -10c-55.333 0 -100.001 16.001 -134.001 48.001s-51 80 -51 144v329h51v-314c0 -54 12.333 -94.333 37 -121s59.667 -40 105 -40c30.667 0 57.5 7.83301 80.5 23.5s41.167 36.5 54.5 62.5s20 54.333 20 85v304h51v-442c0 -10.667 2.83301 -18.834 8.5 -24.501
s13.834 -8.5 24.501 -8.5c7.33301 0 15.333 1 24 3s17.667 6.33301 27 13v-43c-8.66699 -6.66699 -18 -11.5 -28 -14.5s-20.667 -4.5 -32 -4.5c-20 0 -35.167 3.83301 -45.5 11.5s-17.333 18.667 -21 33s-5.83398 31.5 -6.50098 51.5c-10 -22.667 -23.667 -41 -41 -55
s-36.666 -24.333 -57.999 -31s-43.333 -10 -66 -10zM140.999 633.001v44h298v-44h-298z" />
    <glyph glyph-name="Ubreve" unicode="&#x16c;" 
d="M297 -10c-68 0 -121 20.167 -159 60.5s-57 96.833 -57 169.5v466h54v-466c0 -56.667 14.5 -101.167 43.5 -133.5s69.5 -48.5 121.5 -48.5s92.5 16.167 121.5 48.5s43.5 76.833 43.5 133.5v466h54v-466c0 -72.667 -19 -129.167 -57 -169.5s-91 -60.5 -159 -60.5h-6z
M296 761c-49.333 0 -87.6689 11.667 -115.002 35s-42.333 50 -45 80h48c7.33301 -27.333 21.666 -46 42.999 -56s44.333 -15 69 -15s47.834 5 69.501 15s35.834 28.667 42.501 56h48c-2.66699 -30 -17.667 -56.667 -45 -80s-65.666 -35 -114.999 -35z" />
    <glyph glyph-name="ubreve" unicode="&#x16d;" 
d="M275 -10c-55.333 0 -100.001 16.001 -134.001 48.001s-51 80 -51 144v329h51v-314c0 -54 12.333 -94.333 37 -121s59.667 -40 105 -40c30.667 0 57.5 7.83301 80.5 23.5s41.167 36.5 54.5 62.5s20 54.333 20 85v304h51v-442c0 -10.667 2.83301 -18.834 8.5 -24.501
s13.834 -8.5 24.501 -8.5c7.33301 0 15.333 1 24 3s17.667 6.33301 27 13v-43c-8.66699 -6.66699 -18 -11.5 -28 -14.5s-20.667 -4.5 -32 -4.5c-20 0 -35.167 3.83301 -45.5 11.5s-17.333 18.667 -21 33s-5.83398 31.5 -6.50098 51.5c-10 -22.667 -23.667 -41 -41 -55
s-36.666 -24.333 -57.999 -31s-43.333 -10 -66 -10zM288.999 602.001c-32.667 0 -60.668 6.33301 -84.001 19s-41.333 29.334 -54 50.001s-20 42.667 -22 66h48c7.33301 -34.667 21.666 -58.5 42.999 -71.5s44.333 -19.5 69 -19.5s47.834 6.5 69.501 19.5
s35.834 36.833 42.501 71.5h48c-1.33301 -23.333 -8.5 -45.333 -21.5 -66s-31 -37.334 -54 -50.001s-51.167 -19 -84.5 -19z" />
    <glyph glyph-name="Uring" unicode="&#x16e;" 
d="M297 -10c-68 0 -121 20.167 -159 60.5s-57 96.833 -57 169.5v466h54v-466c0 -56.667 14.5 -101.167 43.5 -133.5s69.5 -48.5 121.5 -48.5s92.5 16.167 121.5 48.5s43.5 76.833 43.5 133.5v466h54v-466c0 -72.667 -19 -129.167 -57 -169.5s-91 -60.5 -159 -60.5h-6z
M300 743c-30.667 0 -55.834 9.5 -75.501 28.5s-29.5 42.833 -29.5 71.5c0 29.333 9.83301 53.5 29.5 72.5s44.834 28.5 75.501 28.5s55.834 -9.5 75.501 -28.5s29.5 -43.167 29.5 -72.5c0 -28.667 -9.83301 -52.5 -29.5 -71.5s-44.834 -28.5 -75.501 -28.5zM300 781
c18.667 0 33.834 5.83301 45.501 17.5s17.5 26.5 17.5 44.5c0 18.667 -5.83301 33.834 -17.5 45.501s-26.834 17.5 -45.501 17.5s-33.834 -5.83301 -45.501 -17.5s-17.5 -26.834 -17.5 -45.501c0 -18 5.83301 -32.833 17.5 -44.5s26.834 -17.5 45.501 -17.5z" />
    <glyph glyph-name="uring" unicode="&#x16f;" 
d="M275 -10c-55.333 0 -100.001 16.001 -134.001 48.001s-51 80 -51 144v329h51v-314c0 -54 12.333 -94.333 37 -121s59.667 -40 105 -40c30.667 0 57.5 7.83301 80.5 23.5s41.167 36.5 54.5 62.5s20 54.333 20 85v304h51v-442c0 -10.667 2.83301 -18.834 8.5 -24.501
s13.834 -8.5 24.501 -8.5c7.33301 0 15.333 1 24 3s17.667 6.33301 27 13v-43c-8.66699 -6.66699 -18 -11.5 -28 -14.5s-20.667 -4.5 -32 -4.5c-20 0 -35.167 3.83301 -45.5 11.5s-17.333 18.667 -21 33s-5.83398 31.5 -6.50098 51.5c-10 -22.667 -23.667 -41 -41 -55
s-36.666 -24.333 -57.999 -31s-43.333 -10 -66 -10zM289.999 585.001c-30.667 0 -55.834 9.5 -75.501 28.5s-29.5 42.833 -29.5 71.5c0 29.333 9.83301 53.5 29.5 72.5s44.834 28.5 75.501 28.5s55.834 -9.5 75.501 -28.5s29.5 -43.167 29.5 -72.5
c0 -28.667 -9.83301 -52.5 -29.5 -71.5s-44.834 -28.5 -75.501 -28.5zM289.999 623.001c18.667 0 33.834 5.83301 45.501 17.5s17.5 26.5 17.5 44.5c0 18.667 -5.83301 33.834 -17.5 45.501s-26.834 17.5 -45.501 17.5s-33.834 -5.83301 -45.501 -17.5
s-17.5 -26.5 -17.5 -44.5c0 -18.667 5.83301 -33.834 17.5 -45.501s26.834 -17.5 45.501 -17.5z" />
    <glyph glyph-name="Uhungarumlaut" unicode="&#x170;" 
d="M297 -10c-68 0 -121 20.167 -159 60.5s-57 96.833 -57 169.5v466h54v-466c0 -56.667 14.5 -101.167 43.5 -133.5s69.5 -48.5 121.5 -48.5s92.5 16.167 121.5 48.5s43.5 76.833 43.5 133.5v466h54v-466c0 -72.667 -19 -129.167 -57 -169.5s-91 -60.5 -159 -60.5h-6z
M315 751l106 135h64l1 -3l-110 -132h-61zM186 751l106 135h64l1 -3l-110 -132h-61z" />
    <glyph glyph-name="uhungarumlaut" unicode="&#x171;" 
d="M275 -10c-55.333 0 -100.001 16.001 -134.001 48.001s-51 80 -51 144v329h51v-314c0 -54 12.333 -94.333 37 -121s59.667 -40 105 -40c30.667 0 57.5 7.83301 80.5 23.5s41.167 36.5 54.5 62.5s20 54.333 20 85v304h51v-442c0 -10.667 2.83301 -18.834 8.5 -24.501
s13.834 -8.5 24.501 -8.5c7.33301 0 15.333 1 24 3s17.667 6.33301 27 13v-43c-8.66699 -6.66699 -18 -11.5 -28 -14.5s-20.667 -4.5 -32 -4.5c-20 0 -35.167 3.83301 -45.5 11.5s-17.333 18.667 -21 33s-5.83398 31.5 -6.50098 51.5c-10 -22.667 -23.667 -41 -41 -55
s-36.666 -24.333 -57.999 -31s-43.333 -10 -66 -10zM311.999 595.001l86 145h74l1 -3l-111 -142h-50zM186.999 595.001l86 145h74l1 -3l-111 -142h-50z" />
    <glyph glyph-name="Uogonek" unicode="&#x172;" 
d="M297 -10c-68 0 -121 20.167 -159 60.5s-57 96.833 -57 169.5v466h54v-466c0 -56.667 14.5 -101.167 43.5 -133.5s69.5 -48.5 121.5 -48.5s92.5 16.167 121.5 48.5s43.5 76.833 43.5 133.5v466h54v-466c0 -72.667 -19 -129.167 -57 -169.5s-91 -60.5 -159 -60.5h-6z
M370 -143c-14 0 -27.834 2.00293 -41.501 6.00293s-25 11 -34 21s-13.5 23.333 -13.5 40c0 17.333 5 32.666 15 45.999s20.333 23.333 31 30h50c-16 -8.66699 -28 -18.834 -36 -30.501s-12 -22.834 -12 -33.501c0 -10 3.83301 -18.5 11.5 -25.5s18.834 -10.5 33.501 -10.5
c12 0 23.5 1.5 34.5 4.5s21.833 6.16699 32.5 9.5l13 -33c-12.667 -8 -26.167 -14 -40.5 -18s-28.833 -6 -43.5 -6z" />
    <glyph glyph-name="uogonek" unicode="&#x173;" 
d="M275 -10c-55.333 0 -100.001 16.001 -134.001 48.001s-51 80 -51 144v329h51v-314c0 -54 12.333 -94.333 37 -121s59.667 -40 105 -40c30.667 0 57.5 7.83301 80.5 23.5s41.167 36.5 54.5 62.5s20 54.333 20 85v304h51v-442c0 -10.667 2.83301 -18.834 8.5 -24.501
s13.834 -8.5 24.501 -8.5c7.33301 0 15.333 1 24 3s17.667 6.33301 27 13v-43c-8.66699 -6.66699 -18 -11.5 -28 -14.5s-20.667 -4.5 -32 -4.5c-20 0 -35.167 3.83301 -45.5 11.5s-17.333 18.667 -21 33s-5.83398 31.5 -6.50098 51.5c-10 -22.667 -23.667 -41 -41 -55
s-36.666 -24.333 -57.999 -31s-43.333 -10 -66 -10zM550.999 -142.999c-14 0 -27.834 2.00293 -41.501 6.00293s-25 11 -34 21s-13.5 23.333 -13.5 40c0 17.333 5 32.666 15 45.999s20.333 23.333 31 30h50c-16 -8.66699 -28 -18.834 -36 -30.501s-12 -22.834 -12 -33.501
c0 -10 3.83301 -18.5 11.5 -25.5s18.834 -10.5 33.501 -10.5c12 0 23.5 1.5 34.5 4.5s21.833 6.16699 32.5 9.5l13 -33c-12.667 -8 -26.167 -14 -40.5 -18s-28.833 -6 -43.5 -6z" />
    <glyph glyph-name="Wcircumflex" unicode="&#x174;" 
d="M130 0l-130 686h55l110 -579h4l98 579h72l100 -579h4l106 579h51l-130 -686h-67l-101 581h-4l-99 -581h-69zM146 761l122 122h62l122 -122h-66l-98 99h22l-98 -99h-66z" />
    <glyph glyph-name="wcircumflex" unicode="&#x175;" 
d="M138 0l-138 511h50l113 -418h4l107 418h68l98 -418h4l110 418h46l-134 -511h-54l-104 446h-4l-115 -446h-51zM153 593l124 155h58l124 -155h-59l-109 136h30l-109 -136h-59z" />
    <glyph glyph-name="Ycircumflex" unicode="&#x176;" 
d="M273 0v266l-246 420h63l211 -365h3l214 365h55l-246 -420v-266h-54zM146 761l122 122h62l122 -122h-66l-98 99h22l-98 -99h-66z" />
    <glyph glyph-name="ycircumflex" unicode="&#x177;" 
d="M169 -186c-10.667 0 -20.999 1.16699 -30.999 3.5s-20.667 5.83301 -32 10.5v46c7.33301 -2.66699 16 -5.66699 26 -9s19.333 -5 28 -5c17.333 0 31.333 4 42 12s21.334 22.667 32.001 44s24 52 40 92l-203 503h55l174 -435h4l175 435h50l-202 -498l-40 -99
c-12.667 -30 -27.834 -54.167 -45.501 -72.5s-41.834 -27.5 -72.501 -27.5zM157.001 593l124 155h58l124 -155h-59l-109 136h30l-109 -136h-59z" />
    <glyph glyph-name="Ydieresis" unicode="&#x178;" 
d="M273 0v266l-246 420h63l211 -365h3l214 365h55l-246 -420v-266h-54zM165 784v74h65v-74h-65zM372 784v74h65v-74h-65z" />
    <glyph glyph-name="Zacute" unicode="&#x179;" 
d="M48 0v25l415 613h-391v48h471v-24l-415 -614h423v-48h-503zM264 756l105 135h67v-3l-119 -132h-53z" />
    <glyph glyph-name="zacute" unicode="&#x17a;" 
d="M120 0v24l277 441h-260v46h335v-24l-278 -441h286v-46h-360zM260 592l75 155h65v-3l-90 -152h-50z" />
    <glyph glyph-name="Zdotaccent" unicode="&#x17b;" 
d="M48 0v25l415 613h-391v48h471v-24l-415 -614h423v-48h-503zM265 784v69h66v-69h-66z" />
    <glyph glyph-name="zdotaccent" unicode="&#x17c;" 
d="M120 0v24l277 441h-260v46h335v-24l-278 -441h286v-46h-360zM266 620v73h65v-73h-65z" />
    <glyph glyph-name="Zcaron" unicode="&#x17d;" 
d="M48 0v25l415 613h-391v48h471v-24l-415 -614h423v-48h-503zM265 761l-132 115h70l110 -92h-26l110 92h70l-132 -115h-70z" />
    <glyph glyph-name="zcaron" unicode="&#x17e;" 
d="M120 0v24l277 441h-260v46h335v-24l-278 -441h286v-46h-360zM453 748l-124 -155h-58l-124 155h59l109 -136h-30l109 136h59z" />
    <glyph glyph-name="longs" unicode="&#x17f;" 
d="M248 0v465.001h-161v46h161v57c0 38 8.33301 68.833 25 92.5s38.5 40.834 65.5 51.501s55.833 16 86.5 16c21.333 0 42.5 -2.16699 63.5 -6.5s38.833 -10.833 53.5 -19.5v-46c-15.333 6.66699 -31.833 12.667 -49.5 18s-38.167 8 -61.5 8
c-22 0 -43.167 -3.33301 -63.5 -10s-36.833 -18.334 -49.5 -35.001s-19 -40.334 -19 -71.001v-566h-51zM86 0.000976562v46h446v-46h-446z" />
    <glyph glyph-name="uni018F" unicode="&#x18f;" 
d="M300 -10c-33.333 0 -64.833 4.66797 -94.5 14.001s-55.834 26 -78.501 50s-40.5 57.5 -53.5 100.5s-19.5 98.167 -19.5 165.5v15h438v33c0 58 -4.83301 105.333 -14.5 142s-23.167 65 -40.5 85s-38 33.833 -62 41.5s-50 11.5 -78 11.5c-54 0 -98.833 -15 -134.5 -45
s-53.5 -74.667 -53.5 -134v-9h-50v12c0 48 10.333 88.667 31 122s49 58.666 85 75.999s76.333 26 121 26h7c34.667 0 66.834 -5 96.501 -15s55.5 -27.5 77.5 -52.5s39 -59.5 51 -103.5s18 -100.333 18 -169v-26c0 -68 -6.16699 -124 -18.5 -168s-29.5 -78.667 -51.5 -104
s-47.833 -43 -77.5 -53s-61.5 -15 -95.5 -15h-3zM300 38.001c34.667 0 65.9971 6.83398 93.9971 20.501s50.667 38.5 68 74.5s27 87.333 29 154h-383c1.33301 -50.667 7.33301 -92.334 18 -125.001s24.834 -58 42.501 -76s37.834 -30.5 60.501 -37.5
s46.334 -10.5 71.001 -10.5z" />
    <glyph glyph-name="uni0191" unicode="&#x191;" 
d="M49 -186c-8 0 -16.1699 0.667969 -24.5029 2.00098s-16.166 3.33301 -23.499 6s-14 5.66699 -20 9v45c9.33301 -4.66699 19.333 -8.5 30 -11.5s21.334 -4.5 32.001 -4.5c14 0 27 3.83301 39 11.5s18 26.167 18 55.5v759h406l-9 -48h-343v-264h293v-48h-293v-401
c0 -38.667 -10.167 -66.834 -30.5 -84.501s-45.166 -26.5 -74.499 -26.5z" />
    <glyph glyph-name="florin" unicode="&#x192;" 
d="M125 -184c-8 0 -16.168 0.666992 -24.501 2s-15.833 3.33301 -22.5 6s-12.667 5.66699 -18 9l6 45c7.33301 -3.33301 17.333 -6.83301 30 -10.5s22.667 -5.5 30 -5.5c10 0 19.5 1.5 28.5 4.5s16.833 9.33301 23.5 19s11.334 24.167 14.001 43.5l76 536h-56l6 46h56
l15 106c5.33301 38.667 19 66.834 41 84.501s47.667 26.5 77 26.5c8.66699 0 17 -0.666992 25 -2s15.5 -3.33301 22.5 -6s12.833 -5.66699 17.5 -9l-6 -45c-7.33301 3.33301 -17.333 6.83301 -30 10.5s-22.667 5.5 -30 5.5c-9.33301 0 -18.666 -1.5 -27.999 -4.5
s-17.333 -9.16699 -24 -18.5s-11.334 -24 -14.001 -44l-15 -104h119l-6 -46h-119l-76 -538c-5.33301 -38.667 -19 -66.834 -41 -84.501s-47.667 -26.5 -77 -26.5z" />
    <glyph glyph-name="uni0197" unicode="&#x197;" 
d="M154 367h292v-46h-292v46zM134 0v49h139v588h-139v49h332v-49h-139v-588h139v-49h-332z" />
    <glyph glyph-name="uni019D" unicode="&#x19d;" 
d="M38 -186c-8 0 -16.1689 0.667969 -24.502 2.00098s-16.166 3.33301 -23.499 6s-14 5.66699 -20 9v45c9.33301 -4.66699 19.333 -8.5 30 -11.5s21.334 -4.5 32.001 -4.5c14 0 27.167 3.83301 39.5 11.5s18.5 26.167 18.5 55.5v759h60l261 -498l44 -88h3v586h52v-686h-60
l-272 514l-33 72h-3v-661c0 -38.667 -10 -66.834 -30 -84.501s-44.667 -26.5 -74 -26.5z" />
    <glyph glyph-name="Ohorn" unicode="&#x1a0;" 
d="M300 -10c-34 0 -65.833 4.66797 -95.5 14.001s-55.834 25.666 -78.501 48.999s-40.334 55.833 -53.001 97.5s-19 94.834 -19 159.501v66c0 64.667 6.5 117.834 19.5 159.501s31 74.167 54 97.5s49.167 39.666 78.5 48.999s60 14 92 14h3c34 0 65.833 -4.66699 95.5 -14
s55.667 -25.833 78 -49.5s39.833 -56.334 52.5 -98.001s19 -94.5 19 -158.5v-66c0 -64 -6.33301 -116.833 -19 -158.5s-30.167 -74.167 -52.5 -97.5s-48.166 -39.833 -77.499 -49.5s-60.666 -14.5 -93.999 -14.5h-3zM300 38.001c26.667 0 51.5 3.66699 74.5 11
s43.333 20.5 61 39.5s31.5 45.5 41.5 79.5s15 77.333 15 130v90c0 52.667 -5 96 -15 130s-23.833 60.5 -41.5 79.5s-38 32.167 -61 39.5s-47.833 11 -74.5 11s-51.5 -3.66699 -74.5 -11s-43.333 -20.5 -61 -39.5s-31.5 -45.5 -41.5 -79.5s-15 -77.333 -15 -130v-90
c0 -52.667 5 -96 15 -130s23.833 -60.5 41.5 -79.5s38 -32.167 61 -39.5s47.833 -11 74.5 -11zM435 609.001l-0.000976562 39.001c25.333 9.33301 44.333 26.333 57 51s19 55.667 19 93h56c0 -30.667 -4.66699 -58.334 -14 -83.001s-23.666 -45.5 -42.999 -62.5
s-44.333 -29.5 -75 -37.5z" />
    <glyph glyph-name="ohorn" unicode="&#x1a1;" 
d="M300 -10c-46 0 -84.999 11.167 -116.999 33.5s-56.5 53 -73.5 92s-25.5 83.167 -25.5 132.5v15c0 50.667 8.5 95.334 25.5 134.001s41.667 69 74 91s71.166 33 116.499 33c46 0 85.167 -11.167 117.5 -33.5s56.833 -52.833 73.5 -91.5s25 -83 25 -133v-15
c0 -50.667 -8.5 -95.334 -25.5 -134.001s-41.5 -69 -73.5 -91s-71 -33 -117 -33zM300.001 36c48.667 0 88.334 17.667 119.001 53s46 86.333 46 153v27c0 66.667 -15.333 117.667 -46 153s-70.334 53 -119.001 53s-88.334 -17.667 -119.001 -53s-46 -86.333 -46 -153v-27
c0 -66.667 15.333 -117.667 46 -153s70.334 -53 119.001 -53zM420.001 430v37.999c32.667 5.33301 57.167 20.833 73.5 46.5s24.5 59.834 24.5 102.501h56c0 -32.667 -5.5 -62.167 -16.5 -88.5s-27.833 -47.833 -50.5 -64.5s-51.667 -28 -87 -34z" />
    <glyph glyph-name="Uhorn" unicode="&#x1af;" 
d="M297 -10c-68 0 -121 20.167 -159 60.5s-57 96.833 -57 169.5v466h54v-466c0 -56.667 14.5 -101.167 43.5 -133.5s69.5 -48.5 121.5 -48.5s92.5 16.167 121.5 48.5s43.5 76.833 43.5 133.5v466h54v-466c0 -72.667 -19 -129.167 -57 -169.5s-91 -60.5 -159 -60.5h-6z
M465 647l-0.000976562 39.001c25.333 9.33301 44.333 26.333 57 51s19 55.667 19 93h56c0 -30.667 -4.66699 -58.334 -14 -83.001s-23.666 -45.5 -42.999 -62.5s-44.333 -29.5 -75 -37.5z" />
    <glyph glyph-name="uhorn" unicode="&#x1b0;" 
d="M275 -10c-55.333 0 -100.001 16.001 -134.001 48.001s-51 80 -51 144v329h51v-314c0 -54 12.333 -94.333 37 -121s59.667 -40 105 -40c30.667 0 57.5 7.83301 80.5 23.5s41.167 36.5 54.5 62.5s20 54.333 20 85v304h51v-442c0 -10.667 2.83301 -18.834 8.5 -24.501
s13.834 -8.5 24.501 -8.5c7.33301 0 15.333 1 24 3s17.667 6.33301 27 13v-43c-8.66699 -6.66699 -18 -11.5 -28 -14.5s-20.667 -4.5 -32 -4.5c-20 0 -35.167 3.83301 -45.5 11.5s-17.333 18.667 -21 33s-5.83398 31.5 -6.50098 51.5c-10 -22.667 -23.667 -41 -41 -55
s-36.666 -24.333 -57.999 -31s-43.333 -10 -66 -10zM437.999 473.001v37.999c32.667 5.33301 57.167 20.833 73.5 46.5s24.5 59.834 24.5 102.501h56c0 -32.667 -5.5 -62.167 -16.5 -88.5s-27.833 -47.833 -50.5 -64.5s-51.667 -28 -87 -34z" />
    <glyph glyph-name="uni01C4" unicode="&#x1c4;" 
d="M45 0v686h99c40 0 73 -9.33301 99 -28s45.167 -47.167 57.5 -85.5s18.5 -87.166 18.5 -146.499v-165c0 -59.333 -6.16699 -108.333 -18.5 -147s-31.5 -67.334 -57.5 -86.001s-59 -28 -99 -28h-99zM99 48h45c41.333 0 71.833 16.5 91.5 49.5s29.5 84.5 29.5 154.5v183
c0 69.333 -9.83301 120.5 -29.5 153.5s-50.167 49.5 -91.5 49.5h-45v-590zM300 0v25l187 613h-171v48h234v-24l-188 -614h193v-48h-255zM410 760l-81 125h49l60 -77l60 77h49l-81 -125h-56z" />
    <glyph glyph-name="uni01C5" unicode="&#x1c5;" 
d="M45 0v686h99c40 0 73 -9.33301 99 -28s45.167 -47.167 57.5 -85.5s18.5 -87.166 18.5 -146.499v-165c0 -59.333 -6.16699 -108.333 -18.5 -147s-31.5 -67.334 -57.5 -86.001s-59 -28 -99 -28h-99zM99 48h45c41.333 0 71.833 16.5 91.5 49.5s29.5 84.5 29.5 154.5v183
c0 69.333 -9.83301 120.5 -29.5 153.5s-50.167 49.5 -91.5 49.5h-45v-590zM328 0v24l167 441h-150v46h215v-24l-168 -441h176v-46h-240zM419 575l-89 145h55l68 -97l69 97h55l-90 -145h-68z" />
    <glyph glyph-name="uni01C6" unicode="&#x1c6;" 
d="M143 -10c-46.667 0 -82.1689 21.165 -106.502 63.498s-36.5 104.5 -36.5 186.5v51c0 75.333 12.167 132.5 36.5 171.5s59.833 58.5 106.5 58.5c22.667 0 42.834 -7.16699 60.501 -21.5s31.834 -34.166 42.501 -59.499v280h51v-720h-34l-11 77
c-12.667 -29.333 -28 -51.166 -46 -65.499s-39 -21.5 -63 -21.5zM147.998 35.998c18 0 34.499 6.66699 49.499 20s27 36.166 36 68.499s13.5 76.5 13.5 132.5v12c0 72 -9.66699 124.333 -29 157s-42.666 49 -69.999 49c-32 0 -56.167 -15.667 -72.5 -47
s-24.5 -77.666 -24.5 -138.999v-51c0 -66.667 8.16699 -117 24.5 -151s40.5 -51 72.5 -51zM331.997 -0.00195312v24l187 441h-175v46h238v-24l-187 -441h193v-46h-256zM440.997 574.998l-104 145h50l77 -101l77 101h50l-104 -145h-46z" />
    <glyph glyph-name="uni01C7" unicode="&#x1c7;" 
d="M334 -186c-52 0 -92.667 11.1689 -122 33.502s-44 53.166 -44 92.499v19h50v-13c0 -26.667 10.333 -47.334 31 -62.001s49.334 -22 86.001 -22c38.667 0 68.5 11.833 89.5 35.5s31.5 56.5 31.5 98.5v690h54v-690c0 -38 -6.83301 -70.5 -20.5 -97.5
s-33.334 -47.833 -59.001 -62.5s-56.5 -22 -92.5 -22h-4zM90 0.00195312v686h54v-638h230l12 -48h-296z" />
    <glyph glyph-name="uni01C8" unicode="&#x1c8;" 
d="M90 0v686h54v-638h319l12 -48h-385zM356 -186c-18.667 0 -37.334 2.50098 -56.001 7.50098s-34.667 11.5 -48 19.5v45c15.333 -8 31.833 -14.333 49.5 -19s33.834 -7 48.501 -7c16 0 31.5 2.16699 46.5 6.5s27.167 13.5 36.5 27.5s14 35 14 63v554h51v-556
c0 -48.667 -13.333 -84.334 -40 -107.001s-60.667 -34 -102 -34zM417 625.001v95h100v-95h-100z" />
    <glyph glyph-name="uni01C9" unicode="&#x1c9;" 
d="M343 -186c-18.667 0 -37.334 2.50098 -56.001 7.50098s-34.667 11.5 -48 19.5v45c15.333 -8 31.833 -14.333 49.5 -19s33.834 -7 48.501 -7c16 0 31.5 2.16699 46.5 6.5s27.167 13.5 36.5 27.5s14 35 14 63v508h-140v46h191v-556c0 -48.667 -13.333 -84.334 -40 -107.001
s-60.667 -34 -102 -34zM102 0.000976562v720h51v-720h-51zM404 625.001v95h100v-95h-100z" />
    <glyph glyph-name="uni01CA" unicode="&#x1ca;" 
d="M334 -186c-52 0 -92.667 11.1689 -122 33.502s-44 53.166 -44 92.499v19h50v-13c0 -26.667 10.333 -47.334 31 -62.001s49.334 -22 86.001 -22c38.667 0 68.5 11.833 89.5 35.5s31.5 56.5 31.5 98.5v690h54v-690c0 -38 -6.83301 -70.5 -20.5 -97.5
s-33.334 -47.833 -59.001 -62.5s-56.5 -22 -92.5 -22h-4zM90 0.00195312v686h71l133 -448l31 -138h3v586h52v-686h-70l-137 464l-28 122h-3v-586h-52z" />
    <glyph glyph-name="uni01CB" unicode="&#x1cb;" 
d="M90 0v686h71l133 -448l31 -138h3v586h52v-686h-70l-137 464l-28 122h-3v-586h-52zM378 -186c-12.667 0 -25.334 1.16797 -38.001 3.50098s-24.667 5.5 -36 9.5s-21.333 8.66699 -30 14v45c15.333 -8 31.833 -14.333 49.5 -19s33.834 -7 48.501 -7
c16 0 31.5 2.16699 46.5 6.5s27.167 13.5 36.5 27.5s14 35 14 63v554h51v-556c0 -48.667 -13.333 -84.334 -40 -107.001s-60.667 -34 -102 -34zM443 625.001v95h100v-95h-100z" />
    <glyph glyph-name="uni01CC" unicode="&#x1cc;" 
d="M64 0v510.999h37l8 -61c8 23.333 21 41 39 53s37.667 18 59 18c37.333 0 66.333 -12.667 87 -38s31 -60.666 31 -105.999v-377h-51v377c0 66.667 -25.667 100 -77 100c-24 0 -43.667 -9.5 -59 -28.5s-23 -42.833 -23 -71.5v-377h-51zM393 -186.001
c-18.667 0 -37.334 2.50098 -56.001 7.50098s-34.667 11.5 -48 19.5v45c15.333 -8 31.833 -14.333 49.5 -19s33.834 -7 48.501 -7c16 0 31.5 2.16699 46.5 6.5s27.167 13.5 36.5 27.5s14 35 14 63v554h51v-556c0 -48.667 -13.333 -84.334 -40 -107.001s-60.667 -34 -102 -34
zM454 625v95h100v-95h-100z" />
    <glyph glyph-name="uni01CD" unicode="&#x1cd;" 
d="M20 0l252 686h56l252 -686h-58l-222 612h-4l-220 -612h-56zM117 170v49h364v-49h-364zM265 761l-132 115h70l110 -92h-26l110 92h70l-132 -115h-70z" />
    <glyph glyph-name="uni01CE" unicode="&#x1ce;" 
d="M243 -10c-52.667 0 -92.666 12.499 -119.999 37.499s-41 60.167 -41 105.5c0 39.333 10.667 71 32 95s57 41.333 107 52s117.333 16 202 16v64c0 42 -10 71.667 -30 89s-54.333 26 -103 26c-44.667 0 -79 -9 -103 -27s-36 -43.667 -36 -77v-16h-49
c-1.33301 16 -2.16602 26.333 -2.49902 31s-0.5 6.33398 -0.5 5.00098s0.166992 -3.5 0.5 -6.5s0.5 -4.16699 0.5 -3.5c0 42 17.333 75.833 52 101.5s80.667 38.5 138 38.5c62.667 0 109 -12.333 139 -37s45 -62.667 45 -114v-301c0 -12.667 3.16699 -21.334 9.5 -26.001
s14.5 -7 24.5 -7c18 0 34.667 5.33301 50 16v-43c-8 -6 -17 -10.667 -27 -14s-20.333 -5 -31 -5c-16 0 -29.5 2.5 -40.5 7.5s-19.333 14.333 -25 28s-8.83398 33.834 -9.50098 60.501c-12.667 -25.333 -29.334 -45 -50.001 -59s-42.5 -23.667 -65.5 -29s-45.167 -8 -66.5 -8
zM253.001 35.999c39.333 0 71.5 8.5 96.5 25.5s43.5 39.833 55.5 68.5s18 60.667 18 96v24c-74.667 0 -133 -3.5 -175 -10.5s-71.667 -19 -89 -36s-26 -40.833 -26 -71.5c0 -32 9.5 -56 28.5 -72s49.5 -24 91.5 -24zM444.001 747.999l-124 -155h-58l-124 155h59l109 -136
h-30l109 136h59z" />
    <glyph glyph-name="uni01CF" unicode="&#x1cf;" 
d="M134 0v49h139v588h-139v49h332v-49h-139v-588h139v-49h-332zM265 761l-132 115h70l110 -92h-26l110 92h70l-132 -115h-70z" />
    <glyph glyph-name="uni01D0" unicode="&#x1d0;" 
d="M299 0v465h-195v46h246v-511h-51zM104 0v46h436v-46h-436zM473 748l-124 -155h-58l-124 155h59l109 -136h-30l109 136h59z" />
    <glyph glyph-name="uni01D1" unicode="&#x1d1;" 
d="M300 -10c-34 0 -65.833 4.66797 -95.5 14.001s-55.834 25.666 -78.501 48.999s-40.334 55.833 -53.001 97.5s-19 94.834 -19 159.501v66c0 64.667 6.5 117.834 19.5 159.501s31 74.167 54 97.5s49.167 39.666 78.5 48.999s60 14 92 14h3c34 0 65.833 -4.66699 95.5 -14
s55.667 -25.833 78 -49.5s39.833 -56.334 52.5 -98.001s19 -94.5 19 -158.5v-66c0 -64 -6.33301 -116.833 -19 -158.5s-30.167 -74.167 -52.5 -97.5s-48.166 -39.833 -77.499 -49.5s-60.666 -14.5 -93.999 -14.5h-3zM300 38.001c26.667 0 51.5 3.66699 74.5 11
s43.333 20.5 61 39.5s31.5 45.5 41.5 79.5s15 77.333 15 130v90c0 52.667 -5 96 -15 130s-23.833 60.5 -41.5 79.5s-38 32.167 -61 39.5s-47.833 11 -74.5 11s-51.5 -3.66699 -74.5 -11s-43.333 -20.5 -61 -39.5s-31.5 -45.5 -41.5 -79.5s-15 -77.333 -15 -130v-90
c0 -52.667 5 -96 15 -130s23.833 -60.5 41.5 -79.5s38 -32.167 61 -39.5s47.833 -11 74.5 -11zM265 761.001l-132 115h70l110 -92h-26l110 92h70l-132 -115h-70z" />
    <glyph glyph-name="uni01D2" unicode="&#x1d2;" 
d="M300 -10c-46 0 -84.999 11.167 -116.999 33.5s-56.5 53 -73.5 92s-25.5 83.167 -25.5 132.5v15c0 50.667 8.5 95.334 25.5 134.001s41.667 69 74 91s71.166 33 116.499 33c46 0 85.167 -11.167 117.5 -33.5s56.833 -52.833 73.5 -91.5s25 -83 25 -133v-15
c0 -50.667 -8.5 -95.334 -25.5 -134.001s-41.5 -69 -73.5 -91s-71 -33 -117 -33zM300.001 36c48.667 0 88.334 17.667 119.001 53s46 86.333 46 153v27c0 66.667 -15.333 117.667 -46 153s-70.334 53 -119.001 53s-88.334 -17.667 -119.001 -53s-46 -86.333 -46 -153v-27
c0 -66.667 15.333 -117.667 46 -153s70.334 -53 119.001 -53zM453.001 748l-124 -155h-58l-124 155h59l109 -136h-30l109 136h59z" />
    <glyph glyph-name="uni01D3" unicode="&#x1d3;" 
d="M297 -10c-68 0 -121 20.167 -159 60.5s-57 96.833 -57 169.5v466h54v-466c0 -56.667 14.5 -101.167 43.5 -133.5s69.5 -48.5 121.5 -48.5s92.5 16.167 121.5 48.5s43.5 76.833 43.5 133.5v466h54v-466c0 -72.667 -19 -129.167 -57 -169.5s-91 -60.5 -159 -60.5h-6z
M265 761l-132 115h70l110 -92h-26l110 92h70l-132 -115h-70z" />
    <glyph glyph-name="uni01D4" unicode="&#x1d4;" 
d="M275 -10c-55.333 0 -100.001 16.001 -134.001 48.001s-51 80 -51 144v329h51v-314c0 -54 12.333 -94.333 37 -121s59.667 -40 105 -40c30.667 0 57.5 7.83301 80.5 23.5s41.167 36.5 54.5 62.5s20 54.333 20 85v304h51v-442c0 -10.667 2.83301 -18.834 8.5 -24.501
s13.834 -8.5 24.501 -8.5c7.33301 0 15.333 1 24 3s17.667 6.33301 27 13v-43c-8.66699 -6.66699 -18 -11.5 -28 -14.5s-20.667 -4.5 -32 -4.5c-20 0 -35.167 3.83301 -45.5 11.5s-17.333 18.667 -21 33s-5.83398 31.5 -6.50098 51.5c-10 -22.667 -23.667 -41 -41 -55
s-36.666 -24.333 -57.999 -31s-43.333 -10 -66 -10zM442.999 748.001l-124 -155h-58l-124 155h59l109 -136h-30l109 136h59z" />
    <glyph glyph-name="uni01D5" unicode="&#x1d5;" 
d="M297 -10c-68 0 -121 20.167 -159 60.5s-57 96.833 -57 169.5v466h54v-466c0 -56.667 14.5 -101.167 43.5 -133.5s69.5 -48.5 121.5 -48.5s92.5 16.167 121.5 48.5s43.5 76.833 43.5 133.5v466h54v-466c0 -72.667 -19 -129.167 -57 -169.5s-91 -60.5 -159 -60.5h-6z
M160 938v44h280v-44h-280zM440 781h-90v87h90v-87zM250 781h-90v87h90v-87z" />
    <glyph glyph-name="uni01D6" unicode="&#x1d6;" 
d="M275 -10c-55.333 0 -100.001 16.001 -134.001 48.001s-51 80 -51 144v329h51v-314c0 -54 12.333 -94.333 37 -121s59.667 -40 105 -40c30.667 0 57.5 7.83301 80.5 23.5s41.167 36.5 54.5 62.5s20 54.333 20 85v304h51v-442c0 -10.667 2.83301 -18.834 8.5 -24.501
s13.834 -8.5 24.501 -8.5c7.33301 0 15.333 1 24 3s17.667 6.33301 27 13v-43c-8.66699 -6.66699 -18 -11.5 -28 -14.5s-20.667 -4.5 -32 -4.5c-20 0 -35.167 3.83301 -45.5 11.5s-17.333 18.667 -21 33s-5.83398 31.5 -6.50098 51.5c-10 -22.667 -23.667 -41 -41 -55
s-36.666 -24.333 -57.999 -31s-43.333 -10 -66 -10zM150.999 780.001v44h280v-44h-280zM430.999 623.001h-90v87h90v-87zM240.999 623.001h-90v87h90v-87z" />
    <glyph glyph-name="uni01D7" unicode="&#x1d7;" 
d="M297 -10c-68 0 -121 20.167 -159 60.5s-57 96.833 -57 169.5v466h54v-466c0 -56.667 14.5 -101.167 43.5 -133.5s69.5 -48.5 121.5 -48.5s92.5 16.167 121.5 48.5s43.5 76.833 43.5 133.5v466h54v-466c0 -72.667 -19 -129.167 -57 -169.5s-91 -60.5 -159 -60.5h-6z
M278 908l96 125h69v-3l-111 -122h-54zM151 781v87h90v-87h-90zM361 781v87h90v-87h-90z" />
    <glyph glyph-name="uni01D8" unicode="&#x1d8;" 
d="M275 -10c-55.333 0 -100.001 16.001 -134.001 48.001s-51 80 -51 144v329h51v-314c0 -54 12.333 -94.333 37 -121s59.667 -40 105 -40c30.667 0 57.5 7.83301 80.5 23.5s41.167 36.5 54.5 62.5s20 54.333 20 85v304h51v-442c0 -10.667 2.83301 -18.834 8.5 -24.501
s13.834 -8.5 24.501 -8.5c7.33301 0 15.333 1 24 3s17.667 6.33301 27 13v-43c-8.66699 -6.66699 -18 -11.5 -28 -14.5s-20.667 -4.5 -32 -4.5c-20 0 -35.167 3.83301 -45.5 11.5s-17.333 18.667 -21 33s-5.83398 31.5 -6.50098 51.5c-10 -22.667 -23.667 -41 -41 -55
s-36.666 -24.333 -57.999 -31s-43.333 -10 -66 -10zM267.999 760.001l96 145h69v-3l-111 -142h-54zM140.999 623.001v87h90v-87h-90zM350.999 623.001v87h90v-87h-90z" />
    <glyph glyph-name="uni01D9" unicode="&#x1d9;" 
d="M297 -10c-68 0 -121 20.167 -159 60.5s-57 96.833 -57 169.5v466h54v-466c0 -56.667 14.5 -101.167 43.5 -133.5s69.5 -48.5 121.5 -48.5s92.5 16.167 121.5 48.5s43.5 76.833 43.5 133.5v466h54v-466c0 -72.667 -19 -129.167 -57 -169.5s-91 -60.5 -159 -60.5h-6z
M267 895l-129 125h65l98 -77l98 77h65l-129 -125h-68zM151 781v87h90v-87h-90zM361 781v87h90v-87h-90z" />
    <glyph glyph-name="uni01DA" unicode="&#x1da;" 
d="M275 -10c-55.333 0 -100.001 16.001 -134.001 48.001s-51 80 -51 144v329h51v-314c0 -54 12.333 -94.333 37 -121s59.667 -40 105 -40c30.667 0 57.5 7.83301 80.5 23.5s41.167 36.5 54.5 62.5s20 54.333 20 85v304h51v-442c0 -10.667 2.83301 -18.834 8.5 -24.501
s13.834 -8.5 24.501 -8.5c7.33301 0 15.333 1 24 3s17.667 6.33301 27 13v-43c-8.66699 -6.66699 -18 -11.5 -28 -14.5s-20.667 -4.5 -32 -4.5c-20 0 -35.167 3.83301 -45.5 11.5s-17.333 18.667 -21 33s-5.83398 31.5 -6.50098 51.5c-10 -22.667 -23.667 -41 -41 -55
s-36.666 -24.333 -57.999 -31s-43.333 -10 -66 -10zM257.999 770.001l-129 125h65l98 -77l98 77h65l-129 -125h-68zM140.999 623.001v87h90v-87h-90zM350.999 623.001v87h90v-87h-90z" />
    <glyph glyph-name="uni01DB" unicode="&#x1db;" 
d="M297 -10c-68 0 -121 20.167 -159 60.5s-57 96.833 -57 169.5v466h54v-466c0 -56.667 14.5 -101.167 43.5 -133.5s69.5 -48.5 121.5 -48.5s92.5 16.167 121.5 48.5s43.5 76.833 43.5 133.5v466h54v-466c0 -72.667 -19 -129.167 -57 -169.5s-91 -60.5 -159 -60.5h-6z
M327 908h-54l-111 122v3h69zM454 781h-90v87h90v-87zM244 781h-90v87h90v-87z" />
    <glyph glyph-name="uni01DC" unicode="&#x1dc;" 
d="M275 -10c-55.333 0 -100.001 16.001 -134.001 48.001s-51 80 -51 144v329h51v-314c0 -54 12.333 -94.333 37 -121s59.667 -40 105 -40c30.667 0 57.5 7.83301 80.5 23.5s41.167 36.5 54.5 62.5s20 54.333 20 85v304h51v-442c0 -10.667 2.83301 -18.834 8.5 -24.501
s13.834 -8.5 24.501 -8.5c7.33301 0 15.333 1 24 3s17.667 6.33301 27 13v-43c-8.66699 -6.66699 -18 -11.5 -28 -14.5s-20.667 -4.5 -32 -4.5c-20 0 -35.167 3.83301 -45.5 11.5s-17.333 18.667 -21 33s-5.83398 31.5 -6.50098 51.5c-10 -22.667 -23.667 -41 -41 -55
s-36.666 -24.333 -57.999 -31s-43.333 -10 -66 -10zM312.999 760.001h-54l-111 142v3h69zM439.999 623.001h-90v87h90v-87zM229.999 623.001h-90v87h90v-87z" />
    <glyph glyph-name="uni01E4" unicode="&#x1e4;" 
d="M300 -10c-34 0 -65.832 4.66797 -95.499 14.001s-55.834 25.666 -78.501 48.999s-40.334 55.833 -53.001 97.5s-19 94.834 -19 159.501v66c0 64.667 6.16699 117.834 18.5 159.501s29.5 74.167 51.5 97.5s47.833 39.666 77.5 48.999s61.834 14 96.501 14h5
c30.667 0 60.334 -3.83301 89.001 -11.5s54.334 -20.834 77.001 -39.501s40.667 -44 54 -76s20 -72 20 -120h-53c0 53.333 -9.16699 94.333 -27.5 123s-42 48.5 -71 59.5s-59.833 16.5 -92.5 16.5c-36.667 0 -69.334 -7 -98.001 -21s-51.334 -39.667 -68.001 -77
s-25 -91.333 -25 -162v-90c0 -52.667 5 -96 15 -130s23.833 -60.5 41.5 -79.5s38 -32.167 61 -39.5s47.833 -11 74.5 -11c34 0 65.667 6.16699 95 18.5s53 34.5 71 66.5s27 78 27 138v42h-222v47h272v-231c0 -26 0.666992 -49.667 2 -71s2.66602 -37.333 3.99902 -48h-37
l-16 92c-20.667 -36 -48.167 -62 -82.5 -78s-71.166 -24 -110.499 -24h-3zM313.001 170.001v42h280v-42h-280z" />
    <glyph glyph-name="uni01E5" unicode="&#x1e5;" 
d="M195 -188c-38.667 0 -69.3379 11.668 -92.0049 35.001s-34 52.333 -34 87c0 25.333 6.83301 47.833 20.5 67.5s31.5 34.167 53.5 43.5c-14.667 9.33301 -26 21.5 -34 36.5s-12 31.167 -12 48.5c0 22.667 7 43.334 21 62.001s34.667 31.334 62 38.001
c-23.333 13.333 -40.666 31.166 -51.999 53.499s-17 47.833 -17 76.5c0 50.667 17.333 90.167 52 118.5s82.334 42.5 143.001 42.5c45.333 0 82.333 -7.33301 111 -22c25.333 6.66699 45.833 19 61.5 37s25.167 40.333 28.5 67h48c0 -30.667 -9.66699 -58.334 -29 -83.001
s-42.666 -39 -69.999 -43l-1 -4c14.667 -12.667 26 -28.834 34 -48.501s12 -41.167 12 -64.5c0 -50 -17.167 -89.167 -51.5 -117.5s-82.166 -42.5 -143.499 -42.5h-82c-22 0 -40 -6.16699 -54 -18.5s-21 -28.5 -21 -48.5s6.83301 -36 20.5 -48s31.834 -18 54.501 -18h193
c42 0 75.5 -10.833 100.5 -32.5s37.5 -50.5 37.5 -86.5c0 -38.667 -12.667 -71 -38 -97s-60.333 -39 -105 -39h-217zM305.996 245.001c45.333 0 80.666 10 105.999 30s38 48.333 38 85s-12.667 65 -38 85s-60.666 30 -105.999 30s-80.666 -10 -105.999 -30
s-38 -48.333 -38 -85s12.667 -65 38 -85s60.666 -30 105.999 -30zM207.996 -141.999l207 0.000976562c29.333 0 51.5 7.66699 66.5 23s22.5 34.666 22.5 57.999c0 22 -7 40.667 -21 56s-36.667 23 -68 23h-207c-28.667 0 -50.667 -7.83301 -66 -23.5s-23 -34.5 -23 -56.5
s7.66699 -40.833 23 -56.5s37.333 -23.5 66 -23.5zM15.9961 -82.998v42h70h16h421h17h66v-42h-71h-13h-416h-16h-74z" />
    <glyph glyph-name="Gcaron" unicode="&#x1e6;" 
d="M300 -10c-34 0 -65.832 4.66797 -95.499 14.001s-55.834 25.666 -78.501 48.999s-40.334 55.833 -53.001 97.5s-19 94.834 -19 159.501v66c0 64.667 6.16699 117.834 18.5 159.501s29.5 74.167 51.5 97.5s47.833 39.666 77.5 48.999s61.834 14 96.501 14h5
c30.667 0 60.334 -3.83301 89.001 -11.5s54.334 -20.834 77.001 -39.501s40.667 -44 54 -76s20 -72 20 -120h-53c0 53.333 -9.16699 94.333 -27.5 123s-42 48.5 -71 59.5s-59.833 16.5 -92.5 16.5c-36.667 0 -69.334 -7 -98.001 -21s-51.334 -39.667 -68.001 -77
s-25 -91.333 -25 -162v-90c0 -52.667 5 -96 15 -130s23.833 -60.5 41.5 -79.5s38 -32.167 61 -39.5s47.833 -11 74.5 -11c34 0 65.667 6.16699 95 18.5s53 34.5 71 66.5s27 78 27 138v42h-222v47h272v-231c0 -26 0.666992 -49.667 2 -71s2.66602 -37.333 3.99902 -48h-37
l-16 92c-20.667 -36 -48.167 -62 -82.5 -78s-71.166 -24 -110.499 -24h-3zM270.001 761.001l-132 115h70l110 -92h-26l110 92h70l-132 -115h-70z" />
    <glyph glyph-name="gcaron" unicode="&#x1e7;" 
d="M195 -188c-38.667 0 -69.3379 11.668 -92.0049 35.001s-34 52.333 -34 87c0 25.333 6.83301 47.833 20.5 67.5s31.5 34.167 53.5 43.5c-14.667 9.33301 -26 21.5 -34 36.5s-12 31.167 -12 48.5c0 22.667 7 43.334 21 62.001s34.667 31.334 62 38.001
c-23.333 13.333 -40.666 31.166 -51.999 53.499s-17 47.833 -17 76.5c0 50.667 17.333 90.167 52 118.5s82.334 42.5 143.001 42.5c45.333 0 82.333 -7.33301 111 -22c25.333 6.66699 45.833 19 61.5 37s25.167 40.333 28.5 67h48c0 -30.667 -9.66699 -58.334 -29 -83.001
s-42.666 -39 -69.999 -43l-1 -4c14.667 -12.667 26 -28.834 34 -48.501s12 -41.167 12 -64.5c0 -50 -17.167 -89.167 -51.5 -117.5s-82.166 -42.5 -143.499 -42.5h-82c-22 0 -40 -6.16699 -54 -18.5s-21 -28.5 -21 -48.5s6.83301 -36 20.5 -48s31.834 -18 54.501 -18h193
c42 0 75.5 -10.833 100.5 -32.5s37.5 -50.5 37.5 -86.5c0 -38.667 -12.667 -71 -38 -97s-60.333 -39 -105 -39h-217zM207.996 -141.999l207 0.000976562c29.333 0 51.5 7.66699 66.5 23s22.5 34.666 22.5 57.999c0 22 -7 40.667 -21 56s-36.667 23 -68 23h-207
c-28.667 0 -50.667 -7.83301 -66 -23.5s-23 -34.5 -23 -56.5s7.66699 -40.833 23 -56.5s37.333 -23.5 66 -23.5zM305.996 245.002c45.333 0 80.666 10 105.999 30s38 48.333 38 85s-12.667 65 -38 85s-60.666 30 -105.999 30s-80.666 -10 -105.999 -30s-38 -48.333 -38 -85
s12.667 -65 38 -85s60.666 -30 105.999 -30zM452.996 748.002l-124 -155h-58l-124 155h59l109 -136h-30l109 136h59z" />
    <glyph glyph-name="uni01EA" unicode="&#x1ea;" 
d="M300 -10c-34 0 -65.833 4.66797 -95.5 14.001s-55.834 25.666 -78.501 48.999s-40.334 55.833 -53.001 97.5s-19 94.834 -19 159.501v66c0 64.667 6.5 117.834 19.5 159.501s31 74.167 54 97.5s49.167 39.666 78.5 48.999s60 14 92 14h3c34 0 65.833 -4.66699 95.5 -14
s55.667 -25.833 78 -49.5s39.833 -56.334 52.5 -98.001s19 -94.5 19 -158.5v-66c0 -64 -6.33301 -116.833 -19 -158.5s-30.167 -74.167 -52.5 -97.5s-48.166 -39.833 -77.499 -49.5s-60.666 -14.5 -93.999 -14.5h-3zM300 38.001c26.667 0 51.5 3.66699 74.5 11
s43.333 20.5 61 39.5s31.5 45.5 41.5 79.5s15 77.333 15 130v90c0 52.667 -5 96 -15 130s-23.833 60.5 -41.5 79.5s-38 32.167 -61 39.5s-47.833 11 -74.5 11s-51.5 -3.66699 -74.5 -11s-43.333 -20.5 -61 -39.5s-31.5 -45.5 -41.5 -79.5s-15 -77.333 -15 -130v-90
c0 -52.667 5 -96 15 -130s23.833 -60.5 41.5 -79.5s38 -32.167 61 -39.5s47.833 -11 74.5 -11zM376 -142.999c-14 0 -27.834 2.00293 -41.501 6.00293s-25 11 -34 21s-13.5 23.333 -13.5 40c0 17.333 5 32.666 15 45.999s20.333 23.333 31 30h50
c-16 -8.66699 -28 -18.834 -36 -30.501s-12 -22.834 -12 -33.501c0 -10 3.83301 -18.5 11.5 -25.5s18.834 -10.5 33.501 -10.5c12 0 23.5 1.5 34.5 4.5s21.833 6.16699 32.5 9.5l13 -33c-12.667 -8 -26.167 -14 -40.5 -18s-28.833 -6 -43.5 -6z" />
    <glyph glyph-name="uni01EB" unicode="&#x1eb;" 
d="M300 -10c-46 0 -84.999 11.167 -116.999 33.5s-56.5 53 -73.5 92s-25.5 83.167 -25.5 132.5v15c0 50.667 8.5 95.334 25.5 134.001s41.667 69 74 91s71.166 33 116.499 33c46 0 85.167 -11.167 117.5 -33.5s56.833 -52.833 73.5 -91.5s25 -83 25 -133v-15
c0 -50.667 -8.5 -95.334 -25.5 -134.001s-41.5 -69 -73.5 -91s-71 -33 -117 -33zM300.001 36c48.667 0 88.334 17.667 119.001 53s46 86.333 46 153v27c0 66.667 -15.333 117.667 -46 153s-70.334 53 -119.001 53s-88.334 -17.667 -119.001 -53s-46 -86.333 -46 -153v-27
c0 -66.667 15.333 -117.667 46 -153s70.334 -53 119.001 -53zM348.001 -143c-14 0 -27.834 2.00293 -41.501 6.00293s-25 11 -34 21s-13.5 23.333 -13.5 40c0 17.333 5 32.666 15 45.999s20.333 23.333 31 30h50c-16 -8.66699 -28 -18.834 -36 -30.501
s-12 -22.834 -12 -33.501c0 -10 3.83301 -18.5 11.5 -25.5s18.834 -10.5 33.501 -10.5c12 0 23.5 1.5 34.5 4.5s21.833 6.16699 32.5 9.5l13 -33c-12.667 -8 -26.167 -14 -40.5 -18s-28.833 -6 -43.5 -6z" />
    </font>
</defs>
</svg>
